<?xml version="1.0" standalone="no"?>
<!DOCTYPE svg PUBLIC "-//W3C//DTD SVG 1.1//EN" "http://www.w3.org/Graphics/SVG/1.1/DTD/svg11.dtd" >
<svg>
<metadata>
Created by FontForge 20090622 at Mon Mar 27 15:24:55 2017
 By deploy user
Copyright (c) Mark Simonson, 2005. All rights reserved.
</metadata>
<defs>
<font id="ProximaNovaExCn-Black" horiz-adv-x="462" >
  <font-face 
    font-family="Proxima Nova ExCn Bl"
    font-weight="900"
    font-stretch="normal"
    units-per-em="1000"
    panose-1="2 0 5 6 3 0 0 2 0 4"
    ascent="790"
    descent="-210"
    x-height="483"
    cap-height="667"
    bbox="-133 -297 925 886"
    underline-thickness="20"
    underline-position="-113"
    unicode-range="U+000D-U+FB04"
  />
<missing-glyph horiz-adv-x="434" 
d="M392 -90h-351v842h351v-842zM360 -60v782h-288v-782h288z" />
    <glyph glyph-name="f_f_j" unicode="ffj" horiz-adv-x="778" 
d="M485 0h-158v346h-41v137h41v19q0 85 37.5 130t105.5 45q52 0 86 -13l-20 -124q-8 4 -18 4q-33 0 -33 -42v-19h56v-137h-56v-346zM664 525q-38 0 -64 26.5t-26 63.5q0 38 26.5 64.5t63.5 26.5t63.5 -26.5t26.5 -64.5q0 -37 -26 -63.5t-64 -26.5zM579 -196q-43 0 -74 16
l26 124q9 -7 23 -7q31 0 31 50v496h158v-496q0 -183 -164 -183zM210 0h-158v346h-41v137h41v19q0 175 157 175q63 0 99 -26l-33 -120q-13 13 -31 13q-34 0 -34 -42v-19h56v-137h-56v-346z" />
    <glyph glyph-name="f_j" unicode="fj" horiz-adv-x="503" 
d="M210 0h-158v346h-41v137h41v19q0 85 37.5 130t105.5 45q52 0 86 -13l-20 -124q-8 4 -18 4q-33 0 -33 -42v-19h56v-137h-56v-346zM389 525q-37 0 -63.5 26.5t-26.5 63.5q0 38 26.5 64.5t63.5 26.5t63.5 -26.5t26.5 -64.5q0 -37 -26.5 -63.5t-63.5 -26.5zM304 -196
q-43 0 -74 16l26 124q9 -7 23 -7q31 0 31 50v496h158v-496q0 -183 -164 -183z" />
    <glyph glyph-name="f_f" unicode="ff" horiz-adv-x="550" 
d="M210 0h-158v346h-41v137h41v19q0 175 157 175q63 0 99 -26l-33 -120q-13 13 -31 13q-34 0 -34 -42v-19h56v-137h-56v-346zM485 0h-158v346h-41v137h41v19q0 175 157 175q63 0 99 -26l-33 -120q-13 13 -31 13q-34 0 -34 -42v-19h56v-137h-56v-346z" />
    <glyph glyph-name="fi" unicode="fi" horiz-adv-x="503" 
d="M210 0h-158v346h-41v137h41v19q0 85 37.5 130t105.5 45q52 0 86 -13l-20 -124q-8 4 -18 4q-33 0 -33 -42v-19h56v-137h-56v-346zM389 525q-37 0 -63.5 26.5t-26.5 63.5q0 38 26.5 64.5t63.5 26.5t63.5 -26.5t26.5 -64.5q0 -37 -26.5 -63.5t-63.5 -26.5zM468 0h-158v483
h158v-483z" />
    <glyph glyph-name="fl" unicode="fl" horiz-adv-x="503" 
d="M210 0h-158v346h-41v137h41v19q0 85 37.5 130t105.5 45q52 0 86 -13l-20 -124q-8 4 -18 4q-33 0 -33 -42v-19h56v-137h-56v-346zM468 0h-158v667h158v-667z" />
    <glyph glyph-name="f_f_i" unicode="ffi" horiz-adv-x="778" 
d="M485 0h-158v346h-41v137h41v19q0 85 37.5 130t105.5 45q52 0 86 -13l-20 -124q-8 4 -18 4q-33 0 -33 -42v-19h56v-137h-56v-346zM664 525q-38 0 -64 26.5t-26 63.5q0 38 26.5 64.5t63.5 26.5t63.5 -26.5t26.5 -64.5q0 -37 -26 -63.5t-64 -26.5zM743 0h-158v483h158v-483z
M210 0h-158v346h-41v137h41v19q0 175 157 175q63 0 99 -26l-33 -120q-13 13 -31 13q-34 0 -34 -42v-19h56v-137h-56v-346z" />
    <glyph glyph-name="f_f_l" unicode="ffl" horiz-adv-x="778" 
d="M485 0h-158v346h-41v137h41v19q0 85 37.5 130t105.5 45q52 0 86 -13l-20 -124q-8 4 -18 4q-33 0 -33 -42v-19h56v-137h-56v-346zM743 0h-158v667h158v-667zM210 0h-158v346h-41v137h41v19q0 175 157 175q63 0 99 -26l-33 -120q-13 13 -31 13q-34 0 -34 -42v-19h56v-137
h-56v-346z" />
    <glyph glyph-name="f_b" unicode="fb" horiz-adv-x="737" 
d="M210 0h-158v346h-41v137h41v19q0 85 37.5 130t105.5 45q52 0 86 -13l-20 -124q-8 4 -18 4q-33 0 -33 -42v-19h56v-137h-56v-346zM468 163q14 -36 41 -36q51 0 51 115q0 114 -51 114q-27 0 -41 -35v-158zM468 0h-158v667h158v-238q14 33 41 49.5t57 16.5q73 0 114 -67.5
t41 -185.5q0 -122 -40.5 -188t-114.5 -66q-67 0 -98 66v-54z" />
    <glyph glyph-name="f_h" unicode="fh" horiz-adv-x="737" 
d="M210 0h-158v346h-41v137h41v19q0 85 37.5 130t105.5 45q52 0 86 -13l-20 -124q-8 4 -18 4q-33 0 -33 -42v-19h56v-137h-56v-346zM702 0h-158v319q0 37 -29 37q-30 0 -47 -47v-309h-158v667h158v-242q14 27 50 48.5t70 21.5q114 0 114 -113v-382z" />
    <glyph glyph-name="f_k" unicode="fk" horiz-adv-x="720" 
d="M210 0h-158v346h-41v137h41v19q0 85 37.5 130t105.5 45q52 0 86 -13l-20 -124q-8 4 -18 4q-33 0 -33 -42v-19h56v-137h-56v-346zM725 0h-173l-51 166l-33 -64v-102h-158v667h158v-362l74 178h174l-108 -213z" />
    <glyph glyph-name=".notdef" horiz-adv-x="434" 
d="M392 -90h-351v842h351v-842zM360 -60v782h-288v-782h288z" />
    <glyph glyph-name=".null" horiz-adv-x="0" 
 />
    <glyph glyph-name=".null" horiz-adv-x="0" 
 />
    <glyph glyph-name="nonmarkingreturn" horiz-adv-x="333" 
 />
    <glyph glyph-name="CR" unicode="&#xd;" horiz-adv-x="0" 
 />
    <glyph glyph-name="space" unicode=" " horiz-adv-x="154" 
 />
    <glyph glyph-name="exclam" unicode="!" horiz-adv-x="270" 
d="M206 235h-141l-25 432h190zM135 -12q-39 0 -67.5 28t-28.5 67q0 40 28.5 68.5t67.5 28.5t67.5 -28.5t28.5 -68.5q0 -39 -28.5 -67t-67.5 -28z" />
    <glyph glyph-name="quotedbl" unicode="&#x22;" horiz-adv-x="442" 
d="M153 355h-66q-49 219 -49 240q0 34 24.5 58t57.5 24q34 0 58 -24t24 -58q0 -9 -12 -69l-24 -116zM355 355h-65q-49 219 -49 240q0 34 24 58t58 24q33 0 57 -24t24 -58q0 -9 -12 -69l-24 -116z" />
    <glyph glyph-name="numbersign" unicode="#" horiz-adv-x="487" 
d="M305 0h-113l39 163h-55l-37 -163h-113l38 163h-50l23 97h50l34 146h-52l21 96h53l38 165h113l-38 -165h54l37 165h113l-38 -165h51l-21 -96h-52l-35 -146h55l-23 -97h-55zM253 260l34 146h-54l-33 -146h53z" />
    <glyph glyph-name="dollar" unicode="$" horiz-adv-x="435" 
d="M166 -100v90q-99 9 -162 69l71 138q46 -53 118 -53q22 0 34.5 12t12.5 31q0 22 -22.5 40.5t-54 35.5t-63.5 40t-54.5 66t-22.5 102q0 66 37.5 121t105.5 75v101h114v-93q81 -11 132 -58l-64 -136q-41 41 -100 41q-21 0 -33 -11.5t-12 -29.5t16 -34t40 -28.5t52 -31.5
t52 -41.5t40 -60.5t16 -85q0 -74 -37 -127.5t-102 -73.5v-99h-114z" />
    <glyph glyph-name="percent" unicode="%" horiz-adv-x="604" 
d="M151 342q-62 0 -100.5 48t-38.5 119q0 72 38.5 120t100.5 48t100 -48t38 -120t-38 -119.5t-100 -47.5zM190 0h-60l284 667h61zM454 -12q-63 0 -101 47t-38 119t38 120t101 48q62 0 100 -48t38 -120q0 -71 -38 -118.5t-100 -47.5zM151 437q40 0 40 72q0 74 -40 74t-40 -74
q0 -72 40 -72zM454 82q40 0 40 72q0 74 -40 74t-40 -74q0 -72 40 -72z" />
    <glyph glyph-name="ampersand" unicode="&#x26;" horiz-adv-x="495" 
d="M507 0h-163l-20 30q-59 -42 -134 -42q-76 0 -125 52t-49 144q0 114 109 192q-36 84 -36 132q0 73 47 121t115 48q65 0 111.5 -45.5t46.5 -109.5q0 -43 -20.5 -79t-42 -54t-61.5 -46l26 -45l24 -40q14 44 26 93l123 -58q-30 -97 -69 -161zM227 110q19 0 36 14
q-30 48 -43 72l-34 59q-16 -27 -16 -60q0 -32 17 -58.5t40 -26.5zM224 508q0 -22 12 -60q40 33 40 69q0 49 -25 49q-27 0 -27 -58z" />
    <glyph glyph-name="quotesingle" unicode="'" horiz-adv-x="241" 
d="M153 355h-66q-49 219 -49 240q0 34 24.5 58t57.5 24q34 0 58 -24t24 -58q0 -9 -12 -69l-24 -116z" />
    <glyph glyph-name="parenleft" unicode="(" horiz-adv-x="306" 
d="M284 -146l-117 -53q-120 207 -120 442t120 442l117 -52q-66 -185 -66 -390t66 -389z" />
    <glyph glyph-name="parenright" unicode=")" horiz-adv-x="306" 
d="M140 -199l-118 53q66 184 66 389t-66 390l118 52q119 -207 119 -442t-119 -442z" />
    <glyph glyph-name="asterisk" unicode="*" horiz-adv-x="338" 
d="M206 353h-74l5 107l-90 -57l-36 63l94 49l-94 49l36 63l90 -57l-5 107h74l-5 -107l89 57l37 -63l-94 -49l94 -49l-37 -63l-89 57z" />
    <glyph glyph-name="plus" unicode="+" horiz-adv-x="388" 
d="M359 291h-114v-138h-103v138h-113v93h113v130h103v-130h114v-93z" />
    <glyph glyph-name="comma" unicode="," horiz-adv-x="270" 
d="M236 62q0 -123 -116 -205l-65 53q25 13 51 41t34 55q-8 -4 -23 -4q-33 0 -55.5 23.5t-22.5 60.5q0 39 27.5 66.5t65.5 27.5q43 0 73.5 -32t30.5 -86z" />
    <glyph glyph-name="hyphen" unicode="-" horiz-adv-x="247" 
d="M217 176h-187v132h187v-132z" />
    <glyph glyph-name="period" unicode="." horiz-adv-x="270" 
d="M134 -12q-39 0 -67 28.5t-28 67.5t28 67.5t67 28.5t67.5 -28.5t28.5 -67.5t-28.5 -67.5t-67.5 -28.5z" />
    <glyph glyph-name="slash" unicode="/" horiz-adv-x="254" 
d="M107 -20h-107l147 707h107z" />
    <glyph glyph-name="zero" unicode="0" horiz-adv-x="495" 
d="M248 -12q-74 0 -127 48.5t-78 125t-25 171.5t25 171.5t78 124.5t127 48t127 -48t77.5 -124.5t24.5 -171.5q0 -147 -60 -246t-169 -99zM248 144q29 0 39 41t10 148q0 108 -10 148t-39 40q-30 0 -40 -40t-10 -148t10 -148.5t40 -40.5z" />
    <glyph glyph-name="one" unicode="1" horiz-adv-x="405" 
d="M364 0h-177v442l-85 -87l-100 104l210 208h152v-667z" />
    <glyph glyph-name="two" unicode="2" horiz-adv-x="491" 
d="M468 0h-437v146q177 176 216.5 224t39.5 89q0 26 -16 44t-45 18q-65 0 -111 -64l-106 108q84 112 227 112q103 0 165.5 -58t62.5 -155q0 -66 -41 -130t-154 -180h199v-154z" />
    <glyph glyph-name="three" unicode="3" horiz-adv-x="490" 
d="M241 -12q-75 0 -135.5 29t-93.5 77l114 106q43 -56 107 -56q35 0 51 16.5t16 40.5q0 30 -21.5 44t-51.5 14q-33 0 -45 -1v157q8 -1 37 -1q74 0 74 54q0 53 -63 53q-28 0 -57 -12.5t-44 -37.5l-109 96q78 110 221 110q100 0 160.5 -46.5t60.5 -136.5q0 -53 -34.5 -97
t-84.5 -53q58 -10 93.5 -54.5t35.5 -103.5q0 -90 -64.5 -144t-166.5 -54z" />
    <glyph glyph-name="four" unicode="4" horiz-adv-x="495" 
d="M431 0h-177v120h-237v155l209 392h205v-393h47v-154h-47v-120zM254 274v194l-95 -194h95z" />
    <glyph glyph-name="five" unicode="5" horiz-adv-x="498" 
d="M242 -12q-151 0 -225 106l110 108q45 -58 103 -58q33 0 52 21t19 53q0 34 -16 53.5t-46 19.5q-45 0 -75 -49l-130 29v396h409v-154h-232v-123q14 23 41.5 37.5t59.5 14.5q75 0 121.5 -58t46.5 -161q0 -106 -64 -170.5t-174 -64.5z" />
    <glyph glyph-name="six" unicode="6" horiz-adv-x="491" 
d="M261 -12q-121 0 -182 95.5t-61 248.5q0 160 73 252.5t195 92.5q101 0 163 -64l-86 -130q-29 38 -73 38q-38 0 -66 -40.5t-28 -106.5v-5q15 34 47 54t71 20q68 0 114 -59t46 -161q0 -106 -61 -170.5t-152 -64.5zM250 144q22 0 34.5 22t12.5 50q0 40 -15 58.5t-35 18.5
q-31 0 -52 -43q6 -106 55 -106z" />
    <glyph glyph-name="seven" unicode="7" horiz-adv-x="451" 
d="M257 0h-188l173 513h-228v154h423v-122z" />
    <glyph glyph-name="eight" unicode="8" horiz-adv-x="491" 
d="M245 -12q-112 0 -170 48.5t-58 137.5q0 56 34.5 104.5t84.5 65.5q-48 16 -79 57.5t-31 99.5q0 59 33 100.5t80.5 58.5t105.5 17q90 0 155 -44.5t65 -131.5q0 -58 -31 -99.5t-80 -57.5q50 -17 84.5 -65.5t34.5 -103.5q0 -89 -58.5 -138t-169.5 -49zM245 398q47 24 47 66
q0 57 -47 57t-47 -57q0 -40 47 -66zM245 144q23 0 38 14.5t15 44.5q0 33 -19 54t-34 25q-15 -4 -33.5 -25t-18.5 -54q0 -59 52 -59z" />
    <glyph glyph-name="nine" unicode="9" horiz-adv-x="491" 
d="M205 -11q-101 0 -163 64l86 130q29 -38 73 -38q36 0 65 38t29 108v6q-15 -34 -47 -54t-71 -20q-68 0 -114 59t-46 161q0 106 61 170.5t152 64.5q121 0 182 -95.5t61 -248.5q0 -160 -73 -252.5t-195 -92.5zM244 373q30 0 52 43q-6 106 -53 106q-24 0 -36.5 -21.5
t-12.5 -50.5q0 -40 15 -58.5t35 -18.5z" />
    <glyph glyph-name="colon" unicode=":" horiz-adv-x="270" 
d="M134 298q-39 0 -67 28.5t-28 67.5t28 67.5t67 28.5t67.5 -28.5t28.5 -67.5t-28.5 -67.5t-67.5 -28.5zM134 -12q-39 0 -67 28.5t-28 67.5t28 67.5t67 28.5t67.5 -28.5t28.5 -67.5t-28.5 -67.5t-67.5 -28.5z" />
    <glyph glyph-name="semicolon" unicode=";" horiz-adv-x="270" 
d="M134 298q-39 0 -67 29t-28 68t28 67t67 28t67.5 -28t28.5 -67t-28.5 -68t-67.5 -29zM236 62q0 -123 -116 -205l-65 53q25 13 51 41t34 55q-8 -4 -23 -4q-33 0 -55.5 23.5t-22.5 60.5q0 39 27.5 66.5t65.5 27.5q43 0 73.5 -32t30.5 -86z" />
    <glyph glyph-name="less" unicode="&#x3c;" horiz-adv-x="388" 
d="M359 150l-330 128v114l330 128v-112l-224 -74l224 -73v-111z" />
    <glyph glyph-name="equal" unicode="=" horiz-adv-x="388" 
d="M359 380h-330v93h330v-93zM359 194h-330v94h330v-94z" />
    <glyph glyph-name="greater" unicode="&#x3e;" horiz-adv-x="388" 
d="M359 278l-330 -128v111l223 73l-223 74v112l330 -128v-114z" />
    <glyph glyph-name="question" unicode="?" horiz-adv-x="338" 
d="M103 216q-23 30 -23 92q0 43 19.5 76.5t39 59t19.5 47.5q0 15 -9.5 25t-23.5 10q-25 0 -42 -27l-70 107q68 71 158 71q76 0 118.5 -40.5t42.5 -105.5q0 -35 -17 -70t-37.5 -58t-37.5 -52t-17 -54q0 -19 11 -37zM170 -12q-39 0 -67.5 28.5t-28.5 67.5t28.5 67.5t67.5 28.5
t67.5 -28.5t28.5 -67.5t-28.5 -67.5t-67.5 -28.5z" />
    <glyph glyph-name="at" unicode="@" horiz-adv-x="670" 
d="M279 -70q-120 0 -182 75.5t-62 208.5q0 109 49 206.5t135 157.5t185 60q101 0 166 -65t65 -173q0 -126 -53.5 -220.5t-132.5 -94.5q-36 0 -62.5 17t-33.5 47l-2 10q-50 -74 -119 -74q-42 0 -70 31t-28 102q0 107 56 193t141 86q56 0 73 -58l10 46h138l-48 -229
q-3 -15 -3 -26q0 -41 27 -41q12 0 25.5 25t24 75t10.5 109q0 93 -50 145.5t-137 52.5t-162.5 -55.5t-118 -143t-42.5 -180.5q0 -108 49.5 -177t156.5 -69q77 0 158 54l23 -32q-93 -63 -186 -63zM310 194q10 0 18 3.5t15 13t9.5 12.5t9.5 16l23 114q-8 35 -31 35
q-35 0 -55.5 -47.5t-20.5 -96.5q0 -50 32 -50z" />
    <glyph glyph-name="A" unicode="A" horiz-adv-x="484" 
d="M490 0h-181l-14 93h-107l-13 -93h-181l146 667h203zM275 247l-33 228l-33 -228h66z" />
    <glyph glyph-name="B" unicode="B" horiz-adv-x="502" 
d="M308 0h-267v667h258q90 0 133 -50t43 -120q0 -61 -30 -101t-79 -52q52 -8 85 -54t33 -109q0 -79 -43 -130t-133 -51zM249 415q46 0 46 49t-46 49h-31v-98h31zM253 154q51 0 51 54q0 53 -51 53h-35v-107h35z" />
    <glyph glyph-name="C" unicode="C" horiz-adv-x="467" 
d="M262 -12q-121 0 -182.5 93t-61.5 252t61.5 252t182.5 93q47 0 82.5 -16.5t57.5 -47.5t34 -58t23 -64l-139 -51q-8 41 -21 61t-37 20q-64 0 -64 -189t64 -189q48 0 59 93l138 -50q-47 -199 -197 -199z" />
    <glyph glyph-name="D" unicode="D" horiz-adv-x="524" 
d="M248 0h-207v667h206q130 0 194.5 -92.5t64.5 -241.5q0 -151 -63.5 -242t-194.5 -91zM247 154q79 0 79 179q0 180 -79 180h-29v-359h29z" />
    <glyph glyph-name="E" unicode="E" horiz-adv-x="405" 
d="M377 0h-336v667h336v-154h-159v-98h152v-154h-152v-107h159v-154z" />
    <glyph glyph-name="F" unicode="F" horiz-adv-x="400" 
d="M218 0h-177v667h336v-154h-159v-98h152v-154h-152v-261z" />
    <glyph glyph-name="G" unicode="G" horiz-adv-x="495" 
d="M262 -12q-121 0 -182.5 93t-61.5 252t61.5 252t182.5 93q77 0 127.5 -52t69.5 -134l-139 -51q-13 81 -58 81q-64 0 -64 -189t64 -189q33 0 49 19v67h-61v155h215v-301q-86 -96 -203 -96z" />
    <glyph glyph-name="H" unicode="H" horiz-adv-x="532" 
d="M490 0h-176v266h-96v-266h-177v667h177v-247h96v247h176v-667z" />
    <glyph glyph-name="I" unicode="I" horiz-adv-x="259" 
d="M218 0h-177v667h177v-667z" />
    <glyph glyph-name="J" unicode="J" horiz-adv-x="375" 
d="M121 -12q-71 0 -112 27l40 145q19 -16 50 -16q27 0 43.5 14.5t16.5 42.5v466h177v-475q0 -103 -57.5 -153.5t-157.5 -50.5z" />
    <glyph glyph-name="K" unicode="K" horiz-adv-x="524" 
d="M529 0h-198l-75 220l-38 -83v-137h-177v667h177v-270l108 270h192l-156 -311z" />
    <glyph glyph-name="L" unicode="L" horiz-adv-x="396" 
d="M377 0h-336v667h177v-513h159v-154z" />
    <glyph glyph-name="M" unicode="M" horiz-adv-x="675" 
d="M633 0h-174v321l-94 -321h-55l-92 321v-321h-177v667h219l77 -268l81 268h215v-667z" />
    <glyph glyph-name="N" unicode="N" horiz-adv-x="532" 
d="M490 0h-164l-108 277v-277h-177v667h177l96 -260v260h176v-667z" />
    <glyph glyph-name="O" unicode="O" horiz-adv-x="522" 
d="M261 -12q-120 0 -181.5 93.5t-61.5 251.5t61.5 251.5t181.5 93.5t181.5 -93.5t61.5 -251.5t-61.5 -251.5t-181.5 -93.5zM261 144q63 0 63 189t-63 189t-63 -189t63 -189z" />
    <glyph glyph-name="P" unicode="P" horiz-adv-x="496" 
d="M218 0h-177v667h223q106 0 161.5 -64t55.5 -159q0 -94 -55.5 -158t-161.5 -64h-46v-222zM244 376q27 0 42.5 18t15.5 51q0 32 -15.5 50t-42.5 18h-26v-137h26z" />
    <glyph glyph-name="Q" unicode="Q" horiz-adv-x="523" 
d="M261 -12q-120 0 -181.5 93.5t-61.5 251.5t61.5 251.5t181.5 93.5t181.5 -93.5t61.5 -251.5q0 -172 -70 -263l23 -59l-119 -47l-13 33q-30 -9 -64 -9zM261 144h7l-33 86l86 33q3 31 3 70q0 189 -63 189t-63 -189t63 -189z" />
    <glyph glyph-name="R" unicode="R" horiz-adv-x="510" 
d="M487 0h-189l-57 222h-23v-222h-177v667h232q90 0 149 -62t59 -154q0 -128 -79 -186zM244 376q27 0 42.5 18t15.5 50q0 33 -15.5 51t-42.5 18h-26v-137h26z" />
    <glyph glyph-name="S" unicode="S" horiz-adv-x="437" 
d="M205 -12q-125 0 -201 71l71 138q46 -53 118 -53q22 0 34.5 12t12.5 31q0 22 -22.5 40.5t-54 35.5t-63.5 40t-54.5 66t-22.5 102q0 84 57.5 145.5t160.5 61.5q105 0 171 -61l-64 -136q-41 41 -100 41q-21 0 -33 -11.5t-12 -29.5t16 -34t40 -28.5t52 -31.5t52 -41.5
t40 -60.5t16 -85q0 -95 -58.5 -153.5t-155.5 -58.5z" />
    <glyph glyph-name="T" unicode="T" horiz-adv-x="406" 
d="M292 0h-177v513h-97v154h370v-154h-96v-513z" />
    <glyph glyph-name="U" unicode="U" horiz-adv-x="532" 
d="M266 -12q-92 0 -158.5 57.5t-66.5 167.5v454h177v-463q0 -62 48 -62t48 62v463h177v-453q0 -75 -34 -128t-83.5 -75.5t-107.5 -22.5z" />
    <glyph glyph-name="V" unicode="V" horiz-adv-x="484" 
d="M343 0h-203l-146 667h181l67 -443l67 443h181z" />
    <glyph glyph-name="W" unicode="W" horiz-adv-x="684" 
d="M558 0h-176l-40 346l-41 -346h-175l-122 667h178l40 -362l53 362h134l54 -362l39 362h178z" />
    <glyph glyph-name="X" unicode="X" horiz-adv-x="509" 
d="M515 0h-194l-67 191l-66 -191h-194l158 341l-150 326h194l58 -180l58 180h194l-150 -325z" />
    <glyph glyph-name="Y" unicode="Y" horiz-adv-x="489" 
d="M333 0h-177v269l-163 398h186l65 -232l66 232h186l-163 -398v-269z" />
    <glyph glyph-name="Z" unicode="Z" horiz-adv-x="412" 
d="M386 0h-360v147l153 366h-153v154h353v-141l-157 -372h164v-154z" />
    <glyph glyph-name="bracketleft" unicode="[" horiz-adv-x="227" 
d="M210 -190h-174v868h174v-101h-64v-666h64v-101z" />
    <glyph glyph-name="backslash" unicode="\" horiz-adv-x="254" 
d="M147 -20l-147 707h107l147 -707h-107z" />
    <glyph glyph-name="bracketright" unicode="]" horiz-adv-x="227" 
d="M192 -190h-174v101h63v666h-63v101h174v-868z" />
    <glyph glyph-name="asciicircum" unicode="^" horiz-adv-x="344" 
d="M325 333h-109l-45 210l-44 -210h-108l97 334h113z" />
    <glyph glyph-name="underscore" unicode="_" horiz-adv-x="279" 
d="M282 -141h-285v101h285v-101z" />
    <glyph glyph-name="grave" unicode="`" horiz-adv-x="209" 
d="M209 556h-97l-112 144h129z" />
    <glyph glyph-name="a" unicode="a" horiz-adv-x="453" 
d="M418 0h-157v47q-14 -26 -46 -42.5t-62 -16.5q-60 0 -99 43t-39 117t39 114.5t99 40.5q31 0 63 -14.5t45 -39.5v42q0 33 -19 52t-52 19q-48 0 -101 -45l-54 110q32 34 86.5 51t104.5 17q86 0 139 -41.5t53 -122.5v-331zM214 91q35 0 47 31v46q-13 32 -47 32q-43 0 -43 -54
q0 -55 43 -55z" />
    <glyph glyph-name="b" unicode="b" horiz-adv-x="461" 
d="M193 163q14 -36 41 -36q51 0 51 115q0 114 -51 114q-27 0 -41 -35v-158zM193 0h-158v667h158v-238q14 33 41 49.5t57 16.5q73 0 114 -67.5t41 -185.5q0 -122 -40.5 -188t-114.5 -66q-67 0 -98 66v-54z" />
    <glyph glyph-name="c" unicode="c" horiz-adv-x="371" 
d="M226 -12q-95 0 -152.5 70t-57.5 184t57 183.5t153 69.5q43 0 79.5 -12.5t55.5 -29.5l-45 -123q-31 26 -58 26q-37 0 -59 -31t-22 -83t22 -83.5t59 -31.5q29 0 58 26l45 -123q-44 -42 -135 -42z" />
    <glyph glyph-name="d" unicode="d" horiz-adv-x="461" 
d="M426 0h-157v54q-32 -66 -98 -66q-74 0 -114.5 66t-40.5 188q0 119 40.5 186t114.5 67q30 0 57 -16.5t41 -49.5v238h157v-667zM227 127q26 0 42 36v159q-16 34 -42 34q-50 0 -50 -114q0 -115 50 -115z" />
    <glyph glyph-name="e" unicode="e" horiz-adv-x="435" 
d="M233 -12q-101 0 -159 69t-58 185q0 110 55.5 181.5t153.5 71.5t147.5 -67.5t49.5 -182.5v-55h-255q1 -32 22 -53.5t62 -21.5q44 0 81 37l69 -90q-32 -36 -77 -55t-91 -19zM273 297q0 71 -53 71t-53 -71h106z" />
    <glyph glyph-name="f" unicode="f" horiz-adv-x="275" 
d="M210 0h-158v346h-41v137h41v19q0 175 157 175q63 0 99 -26l-33 -120q-13 13 -31 13q-34 0 -34 -42v-19h56v-137h-56v-346z" />
    <glyph glyph-name="g" unicode="g" horiz-adv-x="461" 
d="M209 -196q-109 0 -169 55l48 123q50 -45 103 -45q35 0 56.5 23.5t21.5 71.5v49q-33 -67 -98 -67q-155 0 -155 240q0 118 40 179.5t115 61.5q30 0 57 -16.5t41 -49.5v54h157v-451q0 -65 -18.5 -111.5t-51 -71t-68.5 -35t-79 -10.5zM227 153q27 0 42 34v135q-15 34 -42 34
q-28 0 -39 -24.5t-11 -77.5t11 -77t39 -24z" />
    <glyph glyph-name="h" unicode="h" 
d="M427 0h-158v319q0 37 -29 37q-30 0 -47 -47v-309h-158v667h158v-242q14 27 50 48.5t70 21.5q114 0 114 -113v-382z" />
    <glyph glyph-name="i" unicode="i" horiz-adv-x="228" 
d="M114 525q-38 0 -64 26.5t-26 63.5q0 38 26.5 64.5t63.5 26.5t63.5 -26.5t26.5 -64.5q0 -37 -26 -63.5t-64 -26.5zM193 0h-158v483h158v-483z" />
    <glyph glyph-name="j" unicode="j" horiz-adv-x="228" 
d="M114 525q-38 0 -64 26.5t-26 63.5q0 38 26.5 64.5t63.5 26.5t63.5 -26.5t26.5 -64.5q0 -37 -26 -63.5t-64 -26.5zM29 -196q-43 0 -74 16l26 124q9 -7 23 -7q31 0 31 50v496h158v-496q0 -183 -164 -183z" />
    <glyph glyph-name="k" unicode="k" horiz-adv-x="445" 
d="M450 0h-173l-51 166l-33 -64v-102h-158v667h158v-362l74 178h174l-108 -213z" />
    <glyph glyph-name="l" unicode="l" horiz-adv-x="228" 
d="M193 0h-158v667h158v-667z" />
    <glyph glyph-name="m" unicode="m" horiz-adv-x="696" 
d="M660 0h-157v317q0 39 -29 39q-30 0 -47 -47v-309h-158v317q0 39 -29 39q-30 0 -47 -47v-309h-158v483h158v-58q11 24 48 47t72 23q92 0 109 -78q13 29 50 53.5t75 24.5q51 0 82 -28t31 -87v-380z" />
    <glyph glyph-name="n" unicode="n" 
d="M427 0h-158v317q0 39 -29 39q-30 0 -47 -47v-309h-158v483h158v-58q14 27 50 48.5t70 21.5q59 0 86.5 -31t27.5 -84v-380z" />
    <glyph glyph-name="o" unicode="o" horiz-adv-x="451" 
d="M225 -12q-101 0 -155 73t-54 181t54 180.5t155 72.5q102 0 156.5 -72.5t54.5 -180.5t-54.5 -181t-156.5 -73zM225 127q49 0 49 115q0 114 -49 114q-47 0 -47 -114q0 -115 47 -115z" />
    <glyph glyph-name="p" unicode="p" horiz-adv-x="461" 
d="M291 -12q-30 0 -57 16t-41 50v-238h-158v667h158v-54q31 66 98 66q74 0 114.5 -66t40.5 -188q0 -118 -41 -185.5t-114 -67.5zM234 127q51 0 51 114q0 115 -51 115q-28 0 -41 -33v-162q14 -34 41 -34z" />
    <glyph glyph-name="q" unicode="q" horiz-adv-x="461" 
d="M227 127q27 0 42 34v162q-15 33 -42 33q-50 0 -50 -115q0 -114 50 -114zM171 -12q-74 0 -114.5 67t-40.5 186q0 122 40.5 188t114.5 66q66 0 98 -66v54h157v-667h-157v238q-14 -34 -41 -50t-57 -16z" />
    <glyph glyph-name="r" unicode="r" horiz-adv-x="309" 
d="M193 0h-158v483h158v-58q12 28 45 49.5t60 21.5v-151q-16 4 -26 4q-20 0 -42.5 -12t-36.5 -31v-306z" />
    <glyph glyph-name="s" unicode="s" horiz-adv-x="382" 
d="M186 -12q-121 0 -182 65l60 108q52 -50 107 -50q50 0 50 31q0 13 -20.5 22t-50 18t-58.5 24.5t-49.5 50t-20.5 84.5q0 65 47 109.5t134 44.5q93 0 167 -60l-60 -106q-16 16 -44.5 29.5t-59.5 13.5q-17 0 -28 -7.5t-11 -18.5q0 -12 21 -20.5t51 -18.5t60 -26t51 -50.5
t21 -83.5q0 -70 -51 -114.5t-134 -44.5z" />
    <glyph glyph-name="t" unicode="t" horiz-adv-x="282" 
d="M187 -12q-72 0 -103.5 34.5t-31.5 107.5v216h-41v137h41v132h158v-132h56v-137h-56v-182q0 -37 22 -37q17 0 23 8l25 -126q-33 -21 -93 -21z" />
    <glyph glyph-name="u" unicode="u" 
d="M427 0h-158v56q-15 -27 -50 -47.5t-70 -20.5q-114 0 -114 113v382h158v-319q0 -37 29 -37q15 0 27.5 13t19.5 32v311h158v-483z" />
    <glyph glyph-name="v" unicode="v" horiz-adv-x="435" 
d="M301 0h-167l-140 483h166l57 -285l58 285h166z" />
    <glyph glyph-name="w" unicode="w" horiz-adv-x="674" 
d="M560 0h-166l-57 269l-57 -269h-166l-117 483h162l51 -273l49 273h146l59 -273l50 273h163z" />
    <glyph glyph-name="x" unicode="x" horiz-adv-x="418" 
d="M423 0h-167l-47 129l-48 -129h-167l116 242l-111 241h165l44 -127l44 127h166l-111 -241z" />
    <glyph glyph-name="y" unicode="y" horiz-adv-x="435" 
d="M47 -188l22 136q8 -5 20 -5q32 0 39 24l8 24l-142 492h166l57 -284l58 284h166l-159 -547q-22 -76 -60.5 -104t-108.5 -28q-45 0 -66 8z" />
    <glyph glyph-name="z" unicode="z" horiz-adv-x="368" 
d="M349 0h-330v116l135 230h-135v137h326v-111l-137 -235h141v-137z" />
    <glyph glyph-name="braceleft" unicode="{" horiz-adv-x="237" 
d="M220 -190h-26q-56 0 -97.5 37.5t-41.5 93.5v196q0 29 -13.5 47t-38.5 18v84q25 0 38.5 18t13.5 47v195q0 56 41.5 94t97.5 38h26v-101h-26q-12 0 -20.5 -9t-8.5 -22v-212q0 -71 -45 -90q45 -19 45 -90v-213q0 -13 8.5 -21.5t20.5 -8.5h26v-101z" />
    <glyph glyph-name="bar" unicode="|" horiz-adv-x="184" 
d="M143 -20h-102v707h102v-707z" />
    <glyph glyph-name="braceright" unicode="}" horiz-adv-x="237" 
d="M17 -190v101h26q12 0 20.5 8.5t8.5 21.5v213q0 71 45 90q-45 19 -45 90v212q0 13 -8.5 22t-20.5 9h-26v101h26q56 0 97.5 -38t41.5 -94v-195q0 -29 13.5 -47t38.5 -18v-84q-25 0 -38.5 -18t-13.5 -47v-196q0 -56 -41.5 -93.5t-97.5 -37.5h-26z" />
    <glyph glyph-name="asciitilde" unicode="~" horiz-adv-x="437" 
d="M309 667l103 -8q-1 -31 -3 -53.5t-7 -55t-14.5 -55.5t-23 -44.5t-35.5 -33t-50 -11.5q-38 0 -61 26t-28.5 58t-12.5 58t-17 26q-14 0 -19.5 -32.5t-10.5 -136.5l-105 8q10 254 135 254q38 0 60.5 -26.5t28.5 -58t12.5 -58t17.5 -26.5q13 0 19 33t11 136z" />
    <glyph glyph-name="nbspace" unicode="&#xa0;" horiz-adv-x="154" 
 />
    <glyph glyph-name="exclamdown" unicode="&#xa1;" horiz-adv-x="270" 
d="M40 -184l24 432h141l24 -432h-189zM39 399q0 39 28 67.5t68 28.5q39 0 67.5 -28.5t28.5 -67.5q0 -40 -28.5 -68.5t-67.5 -28.5q-40 0 -68 28.5t-28 68.5z" />
    <glyph glyph-name="cent" unicode="&#xa2;" horiz-adv-x="371" 
d="M155 -100v100q-65 23 -102 87t-37 155t37 154.5t102 86.5v82h112v-73q62 -10 94 -39l-45 -123q-31 26 -58 26q-37 0 -59 -31t-22 -83t22 -83.5t59 -31.5q29 0 58 26l45 -123q-30 -28 -94 -39v-91h-112z" />
    <glyph glyph-name="sterling" unicode="&#xa3;" horiz-adv-x="469" 
d="M30 281v97h30q-17 46 -17 91q0 90 68.5 149t152.5 59q74 0 127 -38t65 -111l-142 -57q-9 64 -40 64q-17 0 -28.5 -18.5t-11.5 -49.5q0 -39 16 -89h67v-97h-47v-13q0 -27 -13.5 -60t-33.5 -51q20 7 36 7q22 0 48 -10t45 -10q47 0 70 25l41 -140q-16 -17 -51.5 -29
t-75.5 -12q-42 0 -86.5 21t-66.5 21q-43 0 -92 -37l-46 117q69 48 69 107q0 30 -12 64h-72z" />
    <glyph glyph-name="currency" unicode="&#xa4;" horiz-adv-x="491" 
d="M245 96q-45 0 -81 14l-67 -66l-92 91l62 62q-31 58 -31 136q0 79 32 136l-63 64l92 91l68 -69q36 14 80 14t80 -14l70 69l91 -91l-63 -63q33 -60 33 -137t-33 -137l63 -62l-91 -91l-68 67q-37 -14 -82 -14zM245 229q29 0 45.5 28t16.5 76t-16.5 75.5t-45.5 27.5
q-28 0 -44.5 -28t-16.5 -75q0 -48 16.5 -76t44.5 -28z" />
    <glyph glyph-name="yen" unicode="&#xa5;" horiz-adv-x="489" 
d="M333 0h-177v110h-129v94h129v65h-129v93h91l-125 305h186l65 -232l66 232h186l-125 -305h87v-93h-125v-65h125v-94h-125v-110z" />
    <glyph glyph-name="brokenbar" unicode="&#xa6;" horiz-adv-x="184" 
d="M143 -20h-102v316h102v-316zM143 371h-102v316h102v-316z" />
    <glyph glyph-name="section" unicode="&#xa7;" horiz-adv-x="384" 
d="M371 329q0 -80 -71 -127q71 -44 71 -124q0 -68 -53 -113.5t-132 -45.5q-120 0 -182 65l60 104q17 -19 48 -36.5t59 -17.5q26 0 38 11.5t12 28.5q0 18 -20.5 31t-50 24t-58.5 26t-49.5 47t-20.5 78q0 83 76 123q-76 43 -76 128q0 64 47.5 105t122.5 41q111 0 176 -63
l-58 -94q-50 48 -99 48q-44 0 -44 -35q0 -16 21 -28.5t51 -23.5t60 -27t51 -48t21 -77zM234 289q0 51 -39 69q-36 -11 -36 -47q0 -45 50 -66q25 15 25 44z" />
    <glyph glyph-name="dieresis" unicode="&#xa8;" horiz-adv-x="291" 
d="M319 615q0 -34 -23.5 -57t-57.5 -23q-33 0 -56.5 23t-23.5 57t23.5 57t56.5 23q34 0 57.5 -23t23.5 -57zM133 615q0 -33 -23 -56.5t-57 -23.5q-33 0 -56.5 23.5t-23.5 56.5t23.5 56.5t56.5 23.5q34 0 57 -23.5t23 -56.5z" />
    <glyph glyph-name="copyright" unicode="&#xa9;" horiz-adv-x="778" 
d="M734 334q0 -142 -101 -243.5t-244 -101.5t-244 101.5t-101 243.5t101 243.5t244 101.5t244 -101.5t101 -243.5zM694 334q0 125 -90 215t-215 90t-215 -90t-90 -215t90 -215t215 -90t215 90t90 215zM511 227l36 -34q-59 -69 -151 -69q-87 0 -147.5 60t-60.5 151
q0 90 60.5 149.5t147.5 59.5q92 0 149 -67l-35 -35q-43 58 -114 58q-66 0 -111.5 -46.5t-45.5 -118.5q0 -71 46 -119t111 -48q71 0 115 59z" />
    <glyph glyph-name="ordfeminine" unicode="&#xaa;" horiz-adv-x="322" 
d="M293 326h-112v30q-22 -38 -75 -38q-40 0 -67 26t-27 76q0 49 27 75.5t67 26.5q52 0 75 -34v27q0 23 -13 36.5t-35 13.5q-36 0 -69 -35l-39 72q45 46 133 46q60 0 97.5 -28.5t37.5 -85.5v-208zM151 390q22 0 30 20v28q-9 20 -30 20q-29 0 -29 -34t29 -34z" />
    <glyph glyph-name="guillemotleft" unicode="&#xab;" horiz-adv-x="446" 
d="M416 63h-118l-90 180l90 177h118l-90 -177zM237 63h-117l-90 180l90 177h117l-90 -177z" />
    <glyph glyph-name="logicalnot" unicode="&#xac;" horiz-adv-x="388" 
d="M359 473v-279h-97v186h-233v93h330z" />
    <glyph glyph-name="uni00AD" unicode="&#xad;" horiz-adv-x="247" 
d="M217 176h-187v132h187v-132z" />
    <glyph glyph-name="registered" unicode="&#xae;" horiz-adv-x="494" 
d="M459 465q0 -88 -62 -150t-150 -62t-150 62t-62 150t62 150t150 62q89 0 150.5 -61.5t61.5 -150.5zM425 465q0 75 -52 126.5t-126 51.5t-126 -51.5t-52 -126.5q0 -74 52 -126t126 -52t126 52t52 126zM348 343h-44l-63 96h-40v-96h-36v243h99q32 0 56.5 -21t24.5 -53
q0 -35 -22.5 -53.5t-39.5 -18.5zM308 512q0 19 -13.5 31.5t-30.5 12.5h-63v-86h63q17 0 30.5 12t13.5 30z" />
    <glyph glyph-name="macron" unicode="&#xaf;" horiz-adv-x="268" 
d="M268 555h-268v87h268v-87z" />
    <glyph glyph-name="degree" unicode="&#xb0;" horiz-adv-x="322" 
d="M304 534q0 -59 -42 -101t-101 -42t-101 42t-42 101t42 101t101 42t101 -42t42 -101zM223 534q0 25 -18.5 43.5t-43.5 18.5t-43 -18.5t-18 -43.5q0 -26 18 -43.5t43 -17.5t43.5 18t18.5 43z" />
    <glyph glyph-name="plusminus" unicode="&#xb1;" horiz-adv-x="388" 
d="M359 291h-114v-138h-103v138h-113v93h113v130h103v-130h114v-93zM359 9h-330v94h330v-94z" />
    <glyph glyph-name="twosuperior" unicode="&#xb2;" horiz-adv-x="322" 
d="M311 421h-286v84q110 95 139.5 129.5t29.5 61.5q0 17 -11.5 28t-31.5 11q-42 0 -73 -45l-68 70q57 67 149 67q69 0 109.5 -33.5t40.5 -93.5q0 -40 -30.5 -80.5t-108.5 -106.5h141v-92z" />
    <glyph glyph-name="threesuperior" unicode="&#xb3;" horiz-adv-x="322" 
d="M309 533q0 -54 -42 -86.5t-108 -32.5q-103 0 -149 63l70 71q31 -42 74 -42q21 0 32 10.5t11 24.5q0 37 -50 37q-24 0 -30 -1v91q5 -1 26 -1q49 0 49 34t-41 34q-46 0 -69 -37l-68 63q50 66 145 66q66 0 105 -28.5t39 -81.5q0 -33 -21.5 -59t-54.5 -31q35 -5 58.5 -32
t23.5 -62z" />
    <glyph glyph-name="acute" unicode="&#xb4;" horiz-adv-x="209" 
d="M209 700l-112 -144h-97l80 144h129z" />
    <glyph glyph-name="mu" unicode="&#xb5;" horiz-adv-x="477" 
d="M193 -6v-178h-158v667h158v-319q0 -37 30 -37q15 0 27 13.5t19 31.5v311h158v-329q0 -27 22 -27q6 0 14 2l11 -131q-30 -10 -70 -10q-109 0 -129 88q-8 -39 -26 -63.5t-38 -24.5q-10 0 -18 6z" />
    <glyph glyph-name="paragraph" unicode="&#xb6;" horiz-adv-x="449" 
d="M416 -100h-72v694h-73v-694h-72v423q-71 0 -121.5 50.5t-50.5 121.5t50.5 121.5t121.5 50.5h217v-767z" />
    <glyph glyph-name="periodcentered" unicode="&#xb7;" horiz-adv-x="270" 
d="M231 244q0 -39 -28.5 -67.5t-67.5 -28.5t-67.5 28.5t-28.5 67.5q0 40 28.5 68.5t67.5 28.5t67.5 -28.5t28.5 -68.5z" />
    <glyph glyph-name="cedilla" unicode="&#xb8;" horiz-adv-x="199" 
d="M95 -198q-55 0 -95 33l27 57q33 -28 63 -28q35 0 35 28q0 20 -18 20q-13 0 -23 -12l-53 30l30 81h73l-26 -60q15 9 29 9q27 0 44.5 -20t17.5 -51q0 -41 -28.5 -64t-75.5 -23z" />
    <glyph glyph-name="onesuperior" unicode="&#xb9;" horiz-adv-x="273" 
d="M239 421h-117v252l-53 -53l-66 68l136 133h100v-400z" />
    <glyph glyph-name="ordmasculine" unicode="&#xba;" horiz-adv-x="327" 
d="M163 318q-69 0 -108 48t-39 117q0 70 38.5 117.5t108.5 47.5q71 0 109.5 -47.5t38.5 -117.5t-38.5 -117.5t-109.5 -47.5zM163 407q20 0 26.5 18t6.5 58t-6.5 57.5t-26.5 17.5q-32 0 -32 -75q0 -76 32 -76z" />
    <glyph glyph-name="guillemotright" unicode="&#xbb;" horiz-adv-x="446" 
d="M237 243l-90 -180h-117l90 180l-90 177h117zM416 243l-90 -180h-118l90 180l-90 177h118z" />
    <glyph glyph-name="onequarter" unicode="&#xbc;" horiz-adv-x="720" 
d="M239 267h-117v252l-53 -53l-66 68l136 133h100v-400zM710 77h-31v-77h-117v77h-154v88l131 235h140v-232h31v-91zM562 168v109l-58 -109h58zM534 667l-285 -667h-60l284 667h61z" />
    <glyph glyph-name="onehalf" unicode="&#xbd;" horiz-adv-x="758" 
d="M239 267h-117v252l-53 -53l-66 68l136 133h100v-400zM748 0h-286v84q110 95 139.5 129.5t29.5 61.5q0 17 -11.5 28t-31.5 11q-42 0 -73 -45l-68 70q57 67 149 67q69 0 109.5 -33.5t40.5 -93.5q0 -40 -30.5 -80.5t-108.5 -106.5h141v-92zM534 667l-285 -667h-60l284 667
h61z" />
    <glyph glyph-name="threequarters" unicode="&#xbe;" horiz-adv-x="756" 
d="M746 77h-31v-77h-117v77h-154v88l131 235h140v-232h31v-91zM598 168v109l-58 -109h58zM570 667l-285 -667h-60l284 667h61zM309 379q0 -54 -42 -86.5t-108 -32.5q-103 0 -149 63l70 71q31 -42 74 -42q21 0 32 10.5t11 24.5q0 37 -50 37q-24 0 -30 -1v91q5 -1 26 -1
q49 0 49 34t-41 34q-46 0 -69 -37l-68 63q50 66 145 66q66 0 105 -28.5t39 -81.5q0 -33 -21.5 -59t-54.5 -31q35 -5 58.5 -32t23.5 -62z" />
    <glyph glyph-name="questiondown" unicode="&#xbf;" horiz-adv-x="304" 
d="M235 267q23 -34 23 -92q0 -34 -12 -63t-27 -45.5t-27 -37t-12 -38.5q0 -15 9 -25t24 -10q24 0 42 28l70 -107q-67 -72 -159 -72q-75 0 -117.5 40.5t-42.5 105.5q0 45 27 87t54 79t27 68q0 20 -11 38zM167 495q39 0 67.5 -28.5t28.5 -67.5t-28.5 -67.5t-67.5 -28.5
t-67.5 28.5t-28.5 67.5t28.5 67.5t67.5 28.5z" />
    <glyph glyph-name="Agrave" unicode="&#xc0;" horiz-adv-x="484" 
d="M490 0h-181l-14 93h-107l-13 -93h-181l146 667h203zM275 247l-33 228l-33 -228h66zM294 723h-97l-112 144h129z" />
    <glyph glyph-name="Aacute" unicode="&#xc1;" horiz-adv-x="484" 
d="M490 0h-181l-14 93h-107l-13 -93h-181l146 667h203zM275 247l-33 228l-33 -228h66zM399 867l-112 -144h-97l80 144h129z" />
    <glyph glyph-name="Acircumflex" unicode="&#xc2;" horiz-adv-x="484" 
d="M373 723h-84l-48 79l-44 -79h-84l59 144h138zM490 0h-181l-14 93h-107l-13 -93h-181l146 667h203zM275 247l-33 228l-33 -228h66z" />
    <glyph glyph-name="Atilde" unicode="&#xc3;" horiz-adv-x="484" 
d="M490 0h-181l-14 93h-107l-13 -93h-181l146 667h203zM275 247l-33 228l-33 -228h66zM289 721q-22 0 -39 13.5t-29.5 26.5t-22.5 13q-24 0 -24 -47h-74q0 61 26 97.5t71 36.5q21 0 38.5 -13.5t30 -27t22.5 -13.5q24 0 24 48h74q0 -61 -26 -97.5t-71 -36.5z" />
    <glyph glyph-name="Adieresis" unicode="&#xc4;" horiz-adv-x="484" 
d="M415 782q0 -34 -23.5 -57t-57.5 -23q-33 0 -56.5 23t-23.5 57t23.5 57t56.5 23q34 0 57.5 -23t23.5 -57zM229 782q0 -33 -23 -56.5t-57 -23.5q-33 0 -56.5 23.5t-23.5 56.5t23.5 56.5t56.5 23.5q34 0 57 -23.5t23 -56.5zM490 0h-181l-14 93h-107l-13 -93h-181l146 667
h203zM275 247l-33 228l-33 -228h66z" />
    <glyph glyph-name="Aring" unicode="&#xc5;" horiz-adv-x="484" 
d="M490 0h-181l-14 93h-107l-13 -93h-181l146 667h203zM275 247l-33 228l-33 -228h66zM243 687q-39 0 -67 28t-28 67q0 40 28 67.5t67 27.5t66 -27.5t27 -67.5q0 -39 -27 -67t-66 -28zM243 751q13 0 21.5 9t8.5 22q0 14 -8.5 23t-21.5 9t-22 -9.5t-9 -22.5t9 -22t22 -9z" />
    <glyph glyph-name="AE" unicode="&#xc6;" horiz-adv-x="659" 
d="M640 0h-335v93h-103l-26 -93h-180l232 667h412v-154h-159v-98h152v-154h-152v-107h159v-154zM305 247v228l-62 -228h62z" />
    <glyph glyph-name="Ccedilla" unicode="&#xc7;" horiz-adv-x="467" 
d="M258 -194q-55 0 -95 33l27 57q33 -28 63 -28q35 0 35 28q0 20 -18 20q-13 0 -23 -12l-53 30l21 58q-98 17 -147.5 108t-49.5 233q0 159 61.5 252t182.5 93q47 0 82.5 -16.5t57.5 -47.5t34 -58t23 -64l-139 -51q-8 41 -21 61t-37 20q-64 0 -64 -189t64 -189q48 0 59 93
l138 -50q-44 -184 -173 -197l-15 -35q15 9 29 9q27 0 44.5 -20t17.5 -51q0 -41 -28.5 -64t-75.5 -23z" />
    <glyph glyph-name="Egrave" unicode="&#xc8;" horiz-adv-x="405" 
d="M377 0h-336v667h336v-154h-159v-98h152v-154h-152v-107h159v-154zM261 723h-97l-112 144h129z" />
    <glyph glyph-name="Eacute" unicode="&#xc9;" horiz-adv-x="405" 
d="M366 867l-112 -144h-97l80 144h129zM377 0h-336v667h336v-154h-159v-98h152v-154h-152v-107h159v-154z" />
    <glyph glyph-name="Ecircumflex" unicode="&#xca;" horiz-adv-x="405" 
d="M339 723h-84l-48 79l-44 -79h-84l59 144h138zM377 0h-336v667h336v-154h-159v-98h152v-154h-152v-107h159v-154z" />
    <glyph glyph-name="Edieresis" unicode="&#xcb;" horiz-adv-x="405" 
d="M385 782q0 -34 -23.5 -57t-57.5 -23q-33 0 -56.5 23t-23.5 57t23.5 57t56.5 23q34 0 57.5 -23t23.5 -57zM199 782q0 -33 -23 -56.5t-57 -23.5q-33 0 -56.5 23.5t-23.5 56.5t23.5 56.5t56.5 23.5q34 0 57 -23.5t23 -56.5zM377 0h-336v667h336v-154h-159v-98h152v-154h-152
v-107h159v-154z" />
    <glyph glyph-name="Igrave" unicode="&#xcc;" horiz-adv-x="259" 
d="M218 0h-177v667h177v-667zM181 723h-97l-112 144h129z" />
    <glyph glyph-name="Iacute" unicode="&#xcd;" horiz-adv-x="259" 
d="M218 0h-177v667h177v-667zM286 867l-112 -144h-97l80 144h129z" />
    <glyph glyph-name="Icircumflex" unicode="&#xce;" horiz-adv-x="259" 
d="M259 723h-84l-48 79l-44 -79h-84l59 144h138zM218 0h-177v667h177v-667z" />
    <glyph glyph-name="Idieresis" unicode="&#xcf;" horiz-adv-x="259" 
d="M304 782q0 -34 -23.5 -57t-57.5 -23q-33 0 -56.5 23t-23.5 57t23.5 57t56.5 23q34 0 57.5 -23t23.5 -57zM118 782q0 -33 -23 -56.5t-57 -23.5q-33 0 -56.5 23.5t-23.5 56.5t23.5 56.5t56.5 23.5q34 0 57 -23.5t23 -56.5zM218 0h-177v667h177v-667z" />
    <glyph glyph-name="Eth" unicode="&#xd0;" horiz-adv-x="550" 
d="M274 0h-207v265h-56v135h56v267h206q130 0 194.5 -92.5t64.5 -241.5q0 -151 -63.5 -242t-194.5 -91zM273 154q79 0 79 179q0 180 -79 180h-29v-113h55v-135h-55v-111h29z" />
    <glyph glyph-name="Ntilde" unicode="&#xd1;" horiz-adv-x="532" 
d="M313 721q-22 0 -39 13.5t-29.5 26.5t-22.5 13q-24 0 -24 -47h-74q0 61 26 97.5t71 36.5q21 0 38.5 -13.5t30 -27t22.5 -13.5q24 0 24 48h74q0 -61 -26 -97.5t-71 -36.5zM490 0h-164l-108 277v-277h-177v667h177l96 -260v260h176v-667z" />
    <glyph glyph-name="Ograve" unicode="&#xd2;" horiz-adv-x="522" 
d="M313 723h-97l-112 144h129zM261 -12q-120 0 -181.5 93.5t-61.5 251.5t61.5 251.5t181.5 93.5t181.5 -93.5t61.5 -251.5t-61.5 -251.5t-181.5 -93.5zM261 144q63 0 63 189t-63 189t-63 -189t63 -189z" />
    <glyph glyph-name="Oacute" unicode="&#xd3;" horiz-adv-x="522" 
d="M418 867l-112 -144h-97l80 144h129zM261 -12q-120 0 -181.5 93.5t-61.5 251.5t61.5 251.5t181.5 93.5t181.5 -93.5t61.5 -251.5t-61.5 -251.5t-181.5 -93.5zM261 144q63 0 63 189t-63 189t-63 -189t63 -189z" />
    <glyph glyph-name="Ocircumflex" unicode="&#xd4;" horiz-adv-x="522" 
d="M392 723h-84l-48 79l-44 -79h-84l59 144h138zM261 -12q-120 0 -181.5 93.5t-61.5 251.5t61.5 251.5t181.5 93.5t181.5 -93.5t61.5 -251.5t-61.5 -251.5t-181.5 -93.5zM261 144q63 0 63 189t-63 189t-63 -189t63 -189z" />
    <glyph glyph-name="Otilde" unicode="&#xd5;" horiz-adv-x="522" 
d="M261 -12q-120 0 -181.5 93.5t-61.5 251.5t61.5 251.5t181.5 93.5t181.5 -93.5t61.5 -251.5t-61.5 -251.5t-181.5 -93.5zM261 144q63 0 63 189t-63 189t-63 -189t63 -189zM308 721q-22 0 -39 13.5t-29.5 26.5t-22.5 13q-24 0 -24 -47h-74q0 61 26 97.5t71 36.5
q22 0 39 -13.5t29.5 -27t22.5 -13.5q24 0 24 48h74q0 -61 -26 -97.5t-71 -36.5z" />
    <glyph glyph-name="Odieresis" unicode="&#xd6;" horiz-adv-x="522" 
d="M435 782q0 -34 -23.5 -57t-57.5 -23q-33 0 -56.5 23t-23.5 57t23.5 57t56.5 23q34 0 57.5 -23t23.5 -57zM249 782q0 -33 -23 -56.5t-57 -23.5q-33 0 -56.5 23.5t-23.5 56.5t23.5 56.5t56.5 23.5q34 0 57 -23.5t23 -56.5zM261 -12q-120 0 -181.5 93.5t-61.5 251.5
t61.5 251.5t181.5 93.5t181.5 -93.5t61.5 -251.5t-61.5 -251.5t-181.5 -93.5zM261 144q63 0 63 189t-63 189t-63 -189t63 -189z" />
    <glyph glyph-name="multiply" unicode="&#xd7;" horiz-adv-x="388" 
d="M289 174l-95 94l-94 -94l-67 66l95 94l-95 94l67 66l94 -94l95 94l66 -66l-94 -94l94 -94z" />
    <glyph glyph-name="Oslash" unicode="&#xd8;" horiz-adv-x="522" 
d="M261 -12q-71 0 -122 34l-12 -22h-95l46 84q-60 89 -60 249q0 158 61.5 251.5t181.5 93.5q71 0 122 -34l13 23h95l-47 -85q60 -89 60 -249q0 -158 -61.5 -251.5t-181.5 -93.5zM198 333v-28l103 188q-15 29 -40 29q-63 0 -63 -189zM261 144q63 0 63 189q0 5 -0.5 14
t-0.5 13l-102 -188q14 -28 40 -28z" />
    <glyph glyph-name="Ugrave" unicode="&#xd9;" horiz-adv-x="532" 
d="M266 -12q-92 0 -158.5 57.5t-66.5 167.5v454h177v-463q0 -62 48 -62t48 62v463h177v-453q0 -75 -34 -128t-83.5 -75.5t-107.5 -22.5zM318 723h-97l-112 144h129z" />
    <glyph glyph-name="Uacute" unicode="&#xda;" horiz-adv-x="532" 
d="M423 867l-112 -144h-97l80 144h129zM266 -12q-92 0 -158.5 57.5t-66.5 167.5v454h177v-463q0 -62 48 -62t48 62v463h177v-453q0 -75 -34 -128t-83.5 -75.5t-107.5 -22.5z" />
    <glyph glyph-name="Ucircumflex" unicode="&#xdb;" horiz-adv-x="532" 
d="M398 723h-84l-48 79l-44 -79h-84l59 144h138zM266 -12q-92 0 -158.5 57.5t-66.5 167.5v454h177v-463q0 -62 48 -62t48 62v463h177v-453q0 -75 -34 -128t-83.5 -75.5t-107.5 -22.5z" />
    <glyph glyph-name="Udieresis" unicode="&#xdc;" horiz-adv-x="532" 
d="M439 782q0 -34 -23.5 -57t-57.5 -23q-33 0 -56.5 23t-23.5 57t23.5 57t56.5 23q34 0 57.5 -23t23.5 -57zM253 782q0 -33 -23 -56.5t-57 -23.5q-33 0 -56.5 23.5t-23.5 56.5t23.5 56.5t56.5 23.5q34 0 57 -23.5t23 -56.5zM266 -12q-92 0 -158.5 57.5t-66.5 167.5v454h177
v-463q0 -62 48 -62t48 62v463h177v-453q0 -75 -34 -128t-83.5 -75.5t-107.5 -22.5z" />
    <glyph glyph-name="Yacute" unicode="&#xdd;" horiz-adv-x="489" 
d="M333 0h-177v269l-163 398h186l65 -232l66 232h186l-163 -398v-269zM401 867l-112 -144h-97l80 144h129z" />
    <glyph glyph-name="Thorn" unicode="&#xde;" horiz-adv-x="496" 
d="M218 0h-177v667h177v-101h46q106 0 161.5 -64t55.5 -159q0 -94 -55.5 -158t-161.5 -64h-46v-121zM244 275q27 0 42.5 18t15.5 50t-16 50.5t-42 18.5h-26v-137h26z" />
    <glyph glyph-name="germandbls" unicode="&#xdf;" horiz-adv-x="581" 
d="M570 147q0 -62 -48.5 -110.5t-125.5 -48.5q-103 0 -168 65l50 109q44 -49 84 -49q41 0 41 30q0 13 -17 24t-41.5 22.5t-48.5 27.5t-41 46t-17 70q0 33 14 58.5t30 38t30 29.5t14 35q0 19 -17 31.5t-44 12.5q-70 0 -70 -77v-461h-158v461q0 91 62 153.5t166 62.5
q87 0 153.5 -48t66.5 -116q0 -37 -14.5 -66t-32.5 -43t-32.5 -29t-14.5 -28q0 -12 18.5 -21t45 -19t52.5 -26t44.5 -50.5t18.5 -83.5z" />
    <glyph glyph-name="agrave" unicode="&#xe0;" horiz-adv-x="453" 
d="M418 0h-157v47q-14 -26 -46 -42.5t-62 -16.5q-60 0 -99 43t-39 117t39 114.5t99 40.5q31 0 63 -14.5t45 -39.5v42q0 33 -19 52t-52 19q-48 0 -101 -45l-54 110q32 34 86.5 51t104.5 17q86 0 139 -41.5t53 -122.5v-331zM214 91q35 0 47 31v46q-13 32 -47 32q-43 0 -43 -54
q0 -55 43 -55zM278 556h-97l-112 144h129z" />
    <glyph glyph-name="aacute" unicode="&#xe1;" horiz-adv-x="453" 
d="M418 0h-157v47q-14 -26 -46 -42.5t-62 -16.5q-60 0 -99 43t-39 117t39 114.5t99 40.5q31 0 63 -14.5t45 -39.5v42q0 33 -19 52t-52 19q-48 0 -101 -45l-54 110q32 34 86.5 51t104.5 17q86 0 139 -41.5t53 -122.5v-331zM214 91q35 0 47 31v46q-13 32 -47 32q-43 0 -43 -54
q0 -55 43 -55zM383 700l-112 -144h-97l80 144h129z" />
    <glyph glyph-name="acircumflex" unicode="&#xe2;" horiz-adv-x="453" 
d="M418 0h-157v47q-14 -26 -46 -42.5t-62 -16.5q-60 0 -99 43t-39 117t39 114.5t99 40.5q31 0 63 -14.5t45 -39.5v42q0 33 -19 52t-52 19q-48 0 -101 -45l-54 110q32 34 86.5 51t104.5 17q86 0 139 -41.5t53 -122.5v-331zM214 91q35 0 47 31v46q-13 32 -47 32q-43 0 -43 -54
q0 -55 43 -55zM361 556h-84l-48 79l-44 -79h-84l59 144h138z" />
    <glyph glyph-name="atilde" unicode="&#xe3;" horiz-adv-x="453" 
d="M418 0h-157v47q-14 -26 -46 -42.5t-62 -16.5q-60 0 -99 43t-39 117t39 114.5t99 40.5q31 0 63 -14.5t45 -39.5v42q0 33 -19 52t-52 19q-48 0 -101 -45l-54 110q32 34 86.5 51t104.5 17q86 0 139 -41.5t53 -122.5v-331zM214 91q35 0 47 31v46q-13 32 -47 32q-43 0 -43 -54
q0 -55 43 -55zM274 554q-22 0 -39 13t-29.5 26.5t-22.5 13.5q-24 0 -24 -47h-74q0 61 26 97.5t71 36.5q22 0 39 -13.5t29.5 -27t22.5 -13.5q24 0 24 48h74q0 -61 -26 -97.5t-71 -36.5z" />
    <glyph glyph-name="adieresis" unicode="&#xe4;" horiz-adv-x="453" 
d="M418 0h-157v47q-14 -26 -46 -42.5t-62 -16.5q-60 0 -99 43t-39 117t39 114.5t99 40.5q31 0 63 -14.5t45 -39.5v42q0 33 -19 52t-52 19q-48 0 -101 -45l-54 110q32 34 86.5 51t104.5 17q86 0 139 -41.5t53 -122.5v-331zM214 91q35 0 47 31v46q-13 32 -47 32q-43 0 -43 -54
q0 -55 43 -55zM403 615q0 -34 -23.5 -57t-57.5 -23q-33 0 -56.5 23t-23.5 57t23.5 57t56.5 23q34 0 57.5 -23t23.5 -57zM217 615q0 -33 -23 -56.5t-57 -23.5q-33 0 -56.5 23.5t-23.5 56.5t23.5 56.5t56.5 23.5q34 0 57 -23.5t23 -56.5z" />
    <glyph glyph-name="aring" unicode="&#xe5;" horiz-adv-x="453" 
d="M418 0h-157v47q-14 -26 -46 -42.5t-62 -16.5q-60 0 -99 43t-39 117t39 114.5t99 40.5q31 0 63 -14.5t45 -39.5v42q0 33 -19 52t-52 19q-48 0 -101 -45l-54 110q32 34 86.5 51t104.5 17q86 0 139 -41.5t53 -122.5v-331zM214 91q35 0 47 31v46q-13 32 -47 32q-43 0 -43 -54
q0 -55 43 -55zM227 527q-39 0 -67 28t-28 67q0 40 28 67.5t67 27.5t66 -27.5t27 -67.5q0 -39 -27 -67t-66 -28zM227 591q13 0 21.5 9t8.5 22q0 14 -8.5 23t-21.5 9t-22 -9.5t-9 -22.5t9 -22t22 -9z" />
    <glyph glyph-name="ae" unicode="&#xe6;" horiz-adv-x="680" 
d="M667 189h-256q2 -33 23 -53.5t61 -20.5q44 0 81 37l70 -90q-67 -74 -168 -74q-87 0 -139 69q-32 -34 -67 -51.5t-91 -17.5q-72 0 -119 41.5t-47 115.5t39 116t99 42q31 0 62.5 -14.5t45.5 -39.5v42q0 32 -19 51.5t-52 19.5q-48 0 -101 -45l-54 110q32 34 84.5 51t94.5 17
q91 0 127 -54q49 54 135 54q94 0 142.5 -69t48.5 -184v-53zM411 297h106q0 71 -52 71q-54 0 -54 -71zM261 159v9q-13 32 -50 32q-21 0 -33.5 -13t-12.5 -33q0 -46 46 -46q21 0 35.5 15.5t14.5 35.5z" />
    <glyph glyph-name="ccedilla" unicode="&#xe7;" horiz-adv-x="371" 
d="M226 -196q-55 0 -95 33l27 57q33 -28 63 -28q35 0 35 28q0 20 -18 20q-13 0 -23 -12l-53 30l22 60q-78 15 -123 82t-45 168q0 114 57 183.5t153 69.5q43 0 79.5 -12.5t55.5 -29.5l-45 -123q-31 26 -58 26q-37 0 -59 -31t-22 -83t22 -83.5t59 -31.5q29 0 58 26l45 -123
q-32 -32 -106 -40l-16 -37q15 9 29 9q27 0 44.5 -20t17.5 -51q0 -41 -28.5 -64t-75.5 -23z" />
    <glyph glyph-name="egrave" unicode="&#xe8;" horiz-adv-x="435" 
d="M233 -12q-101 0 -159 69t-58 185q0 110 55.5 181.5t153.5 71.5t147.5 -67.5t49.5 -182.5v-55h-255q1 -32 22 -53.5t62 -21.5q44 0 81 37l69 -90q-32 -36 -77 -55t-91 -19zM273 297q0 71 -53 71t-53 -71h106zM277 556h-97l-112 144h129z" />
    <glyph glyph-name="eacute" unicode="&#xe9;" horiz-adv-x="435" 
d="M382 700l-112 -144h-97l80 144h129zM233 -12q-101 0 -159 69t-58 185q0 110 55.5 181.5t153.5 71.5t147.5 -67.5t49.5 -182.5v-55h-255q1 -32 22 -53.5t62 -21.5q44 0 81 37l69 -90q-32 -36 -77 -55t-91 -19zM273 297q0 71 -53 71t-53 -71h106z" />
    <glyph glyph-name="ecircumflex" unicode="&#xea;" horiz-adv-x="435" 
d="M352 556h-84l-48 79l-44 -79h-84l59 144h138zM233 -12q-101 0 -159 69t-58 185q0 110 55.5 181.5t153.5 71.5t147.5 -67.5t49.5 -182.5v-55h-255q1 -32 22 -53.5t62 -21.5q44 0 81 37l69 -90q-32 -36 -77 -55t-91 -19zM273 297q0 71 -53 71t-53 -71h106z" />
    <glyph glyph-name="edieresis" unicode="&#xeb;" horiz-adv-x="435" 
d="M394 615q0 -34 -23.5 -57t-57.5 -23q-33 0 -56.5 23t-23.5 57t23.5 57t56.5 23q34 0 57.5 -23t23.5 -57zM208 615q0 -33 -23 -56.5t-57 -23.5q-33 0 -56.5 23.5t-23.5 56.5t23.5 56.5t56.5 23.5q34 0 57 -23.5t23 -56.5zM233 -12q-101 0 -159 69t-58 185
q0 110 55.5 181.5t153.5 71.5t147.5 -67.5t49.5 -182.5v-55h-255q1 -32 22 -53.5t62 -21.5q44 0 81 37l69 -90q-32 -36 -77 -55t-91 -19zM273 297q0 71 -53 71t-53 -71h106z" />
    <glyph glyph-name="igrave" unicode="&#xec;" horiz-adv-x="228" 
d="M193 0h-158v483h158v-483zM166 556h-97l-112 144h129z" />
    <glyph glyph-name="iacute" unicode="&#xed;" horiz-adv-x="228" 
d="M271 700l-112 -144h-97l80 144h129zM193 0h-158v483h158v-483z" />
    <glyph glyph-name="icircumflex" unicode="&#xee;" horiz-adv-x="228" 
d="M245 556h-84l-48 79l-44 -79h-84l59 144h138zM193 0h-158v483h158v-483z" />
    <glyph glyph-name="idieresis" unicode="&#xef;" horiz-adv-x="228" 
d="M287 615q0 -34 -23.5 -57t-57.5 -23q-33 0 -56.5 23t-23.5 57t23.5 57t56.5 23q34 0 57.5 -23t23.5 -57zM101 615q0 -33 -23 -56.5t-57 -23.5q-33 0 -56.5 23.5t-23.5 56.5t23.5 56.5t56.5 23.5q34 0 57 -23.5t23 -56.5zM193 0h-158v483h158v-483z" />
    <glyph glyph-name="eth" unicode="&#xf0;" horiz-adv-x="451" 
d="M154 483l-32 69l91 40q-8 19 -33 61l137 62q12 -21 34 -63l60 26l29 -68l-59 -27q55 -145 55 -298q0 -144 -52.5 -220.5t-158.5 -76.5q-101 0 -155 66.5t-54 165.5q0 96 43.5 163t116.5 67q69 0 103 -75q-8 64 -37 147zM225 127q49 0 49 92t-49 92q-47 0 -47 -92t47 -92z
" />
    <glyph glyph-name="ntilde" unicode="&#xf1;" 
d="M427 0h-158v317q0 39 -29 39q-30 0 -47 -47v-309h-158v483h158v-58q14 27 50 48.5t70 21.5q59 0 86.5 -31t27.5 -84v-380zM278 554q-22 0 -39 13t-29.5 26.5t-22.5 13.5q-24 0 -24 -47h-74q0 61 26 97.5t71 36.5q21 0 38.5 -13.5t30 -27t22.5 -13.5q24 0 24 48h74
q0 -61 -26 -97.5t-71 -36.5z" />
    <glyph glyph-name="ograve" unicode="&#xf2;" horiz-adv-x="451" 
d="M225 -12q-101 0 -155 73t-54 181t54 180.5t155 72.5q102 0 156.5 -72.5t54.5 -180.5t-54.5 -181t-156.5 -73zM225 127q49 0 49 115q0 114 -49 114q-47 0 -47 -114q0 -115 47 -115zM277 556h-97l-112 144h129z" />
    <glyph glyph-name="oacute" unicode="&#xf3;" horiz-adv-x="451" 
d="M382 700l-112 -144h-97l80 144h129zM225 -12q-101 0 -155 73t-54 181t54 180.5t155 72.5q102 0 156.5 -72.5t54.5 -180.5t-54.5 -181t-156.5 -73zM225 127q49 0 49 115q0 114 -49 114q-47 0 -47 -114q0 -115 47 -115z" />
    <glyph glyph-name="ocircumflex" unicode="&#xf4;" horiz-adv-x="451" 
d="M357 556h-84l-48 79l-44 -79h-84l59 144h138zM225 -12q-101 0 -155 73t-54 181t54 180.5t155 72.5q102 0 156.5 -72.5t54.5 -180.5t-54.5 -181t-156.5 -73zM225 127q49 0 49 115q0 114 -49 114q-47 0 -47 -114q0 -115 47 -115z" />
    <glyph glyph-name="otilde" unicode="&#xf5;" horiz-adv-x="451" 
d="M225 -12q-101 0 -155 73t-54 181t54 180.5t155 72.5q102 0 156.5 -72.5t54.5 -180.5t-54.5 -181t-156.5 -73zM225 127q49 0 49 115q0 114 -49 114q-47 0 -47 -114q0 -115 47 -115zM272 554q-22 0 -39 13t-29.5 26.5t-22.5 13.5q-24 0 -24 -47h-74q0 61 26 97.5t71 36.5
q22 0 39 -13.5t29.5 -27t22.5 -13.5q24 0 24 48h74q0 -61 -26 -97.5t-71 -36.5z" />
    <glyph glyph-name="odieresis" unicode="&#xf6;" horiz-adv-x="451" 
d="M399 615q0 -34 -23.5 -57t-57.5 -23q-33 0 -56.5 23t-23.5 57t23.5 57t56.5 23q34 0 57.5 -23t23.5 -57zM213 615q0 -33 -23 -56.5t-57 -23.5q-33 0 -56.5 23.5t-23.5 56.5t23.5 56.5t56.5 23.5q34 0 57 -23.5t23 -56.5zM225 -12q-101 0 -155 73t-54 181t54 180.5
t155 72.5q102 0 156.5 -72.5t54.5 -180.5t-54.5 -181t-156.5 -73zM225 127q49 0 49 115q0 114 -49 114q-47 0 -47 -114q0 -115 47 -115z" />
    <glyph glyph-name="divide" unicode="&#xf7;" horiz-adv-x="374" 
d="M257 485q0 -29 -20.5 -49.5t-49.5 -20.5q-28 0 -48.5 20.5t-20.5 49.5t20 49t49 20t49.5 -20t20.5 -49zM345 291h-316v93h316v-93zM257 190q0 -29 -20.5 -49.5t-49.5 -20.5t-49 20.5t-20 49.5q0 28 20 48.5t49 20.5t49.5 -20t20.5 -49z" />
    <glyph glyph-name="oslash" unicode="&#xf8;" horiz-adv-x="451" 
d="M103 0h-82l45 66q-50 68 -50 176t54 180.5t155 72.5q62 0 111 -31l13 19h81l-45 -66q51 -69 51 -175q0 -108 -54.5 -181t-156.5 -73q-63 0 -110 30zM225 127q49 0 49 115v10l-76 -112q10 -13 27 -13zM178 242v-11l75 111q-11 14 -28 14q-47 0 -47 -114z" />
    <glyph glyph-name="ugrave" unicode="&#xf9;" 
d="M427 0h-158v56q-15 -27 -50 -47.5t-70 -20.5q-114 0 -114 113v382h158v-319q0 -37 29 -37q15 0 27.5 13t19.5 32v311h158v-483zM283 556h-97l-112 144h129z" />
    <glyph glyph-name="uacute" unicode="&#xfa;" 
d="M388 700l-112 -144h-97l80 144h129zM427 0h-158v56q-15 -27 -50 -47.5t-70 -20.5q-114 0 -114 113v382h158v-319q0 -37 29 -37q15 0 27.5 13t19.5 32v311h158v-483z" />
    <glyph glyph-name="ucircumflex" unicode="&#xfb;" 
d="M362 556h-84l-48 79l-44 -79h-84l59 144h138zM427 0h-158v56q-15 -27 -50 -47.5t-70 -20.5q-114 0 -114 113v382h158v-319q0 -37 29 -37q15 0 27.5 13t19.5 32v311h158v-483z" />
    <glyph glyph-name="udieresis" unicode="&#xfc;" 
d="M405 615q0 -34 -23.5 -57t-57.5 -23q-33 0 -56.5 23t-23.5 57t23.5 57t56.5 23q34 0 57.5 -23t23.5 -57zM219 615q0 -33 -23 -56.5t-57 -23.5q-33 0 -56.5 23.5t-23.5 56.5t23.5 56.5t56.5 23.5q34 0 57 -23.5t23 -56.5zM427 0h-158v56q-15 -27 -50 -47.5t-70 -20.5
q-114 0 -114 113v382h158v-319q0 -37 29 -37q15 0 27.5 13t19.5 32v311h158v-483z" />
    <glyph glyph-name="yacute" unicode="&#xfd;" horiz-adv-x="435" 
d="M47 -188l22 136q8 -5 20 -5q32 0 39 24l8 24l-142 492h166l57 -284l58 284h166l-159 -547q-22 -76 -60.5 -104t-108.5 -28q-45 0 -66 8zM374 700l-112 -144h-97l80 144h129z" />
    <glyph glyph-name="thorn" unicode="&#xfe;" horiz-adv-x="461" 
d="M291 -12q-70 0 -98 65v-237h-158v851h158v-237q31 65 98 65q74 0 114.5 -66t40.5 -188q0 -118 -41 -185.5t-114 -67.5zM234 127q51 0 51 114q0 115 -51 115q-28 0 -41 -33v-162q14 -34 41 -34z" />
    <glyph glyph-name="ydieresis" unicode="&#xff;" horiz-adv-x="435" 
d="M47 -188l22 136q8 -5 20 -5q32 0 39 24l8 24l-142 492h166l57 -284l58 284h166l-159 -547q-22 -76 -60.5 -104t-108.5 -28q-45 0 -66 8zM391 615q0 -34 -23.5 -57t-57.5 -23q-33 0 -56.5 23t-23.5 57t23.5 57t56.5 23q34 0 57.5 -23t23.5 -57zM205 615q0 -33 -23 -56.5
t-57 -23.5q-33 0 -56.5 23.5t-23.5 56.5t23.5 56.5t56.5 23.5q34 0 57 -23.5t23 -56.5z" />
    <glyph glyph-name="Amacron" unicode="&#x100;" horiz-adv-x="484" 
d="M490 0h-181l-14 93h-107l-13 -93h-181l146 667h203zM275 247l-33 228l-33 -228h66zM375 722h-268v87h268v-87z" />
    <glyph glyph-name="amacron" unicode="&#x101;" horiz-adv-x="453" 
d="M418 0h-157v47q-14 -26 -46 -42.5t-62 -16.5q-60 0 -99 43t-39 117t39 114.5t99 40.5q31 0 63 -14.5t45 -39.5v42q0 33 -19 52t-52 19q-48 0 -101 -45l-54 110q32 34 86.5 51t104.5 17q86 0 139 -41.5t53 -122.5v-331zM214 91q35 0 47 31v46q-13 32 -47 32q-43 0 -43 -54
q0 -55 43 -55zM361 555h-268v87h268v-87z" />
    <glyph glyph-name="Abreve" unicode="&#x102;" horiz-adv-x="484" 
d="M490 0h-181l-14 93h-107l-13 -93h-181l146 667h203zM275 247l-33 228l-33 -228h66zM370 770q-46 -65 -129 -65q-81 0 -129 65l70 52q21 -31 59 -31t59 31z" />
    <glyph glyph-name="abreve" unicode="&#x103;" horiz-adv-x="453" 
d="M418 0h-157v47q-14 -26 -46 -42.5t-62 -16.5q-60 0 -99 43t-39 117t39 114.5t99 40.5q31 0 63 -14.5t45 -39.5v42q0 33 -19 52t-52 19q-48 0 -101 -45l-54 110q32 34 86.5 51t104.5 17q86 0 139 -41.5t53 -122.5v-331zM214 91q35 0 47 31v46q-13 32 -47 32q-43 0 -43 -54
q0 -55 43 -55zM356 603q-46 -65 -129 -65q-81 0 -129 65l70 52q21 -31 59 -31t59 31z" />
    <glyph glyph-name="Aogonek" unicode="&#x104;" horiz-adv-x="484" 
d="M480 -101l59 -32q-25 -53 -81 -53q-42 0 -66.5 22t-24.5 66q0 54 36 98h-94l-14 93h-107l-13 -93h-181l146 667h203l147 -667h-1q-49 -37 -49 -92q0 -32 19 -32q14 0 21 23zM275 247l-33 228l-33 -228h66z" />
    <glyph glyph-name="aogonek" unicode="&#x105;" horiz-adv-x="453" 
d="M409 -101l59 -32q-25 -53 -81 -53q-42 0 -66.5 22t-24.5 66q0 54 36 98h-71v47q-14 -26 -46 -42.5t-62 -16.5q-60 0 -99 43t-39 117t39 114.5t99 40.5q31 0 63 -14.5t45 -39.5v42q0 33 -19 52t-52 19q-48 0 -101 -45l-54 110q32 34 86.5 51t104.5 17q86 0 139 -41.5
t53 -122.5v-331q-49 -37 -49 -92q0 -32 19 -32q14 0 21 23zM214 91q35 0 47 31v46q-13 32 -47 32q-43 0 -43 -54q0 -55 43 -55z" />
    <glyph glyph-name="Cacute" unicode="&#x106;" horiz-adv-x="467" 
d="M419 867l-112 -144h-97l80 144h129zM262 -12q-121 0 -182.5 93t-61.5 252t61.5 252t182.5 93q47 0 82.5 -16.5t57.5 -47.5t34 -58t23 -64l-139 -51q-8 41 -21 61t-37 20q-64 0 -64 -189t64 -189q48 0 59 93l138 -50q-47 -199 -197 -199z" />
    <glyph glyph-name="cacute" unicode="&#x107;" horiz-adv-x="371" 
d="M383 700l-112 -144h-97l80 144h129zM226 -12q-95 0 -152.5 70t-57.5 184t57 183.5t153 69.5q43 0 79.5 -12.5t55.5 -29.5l-45 -123q-31 26 -58 26q-37 0 -59 -31t-22 -83t22 -83.5t59 -31.5q29 0 58 26l45 -123q-44 -42 -135 -42z" />
    <glyph glyph-name="Ccircumflex" unicode="&#x108;" horiz-adv-x="467" 
d="M392 723h-84l-48 79l-44 -79h-84l59 144h138zM262 -12q-121 0 -182.5 93t-61.5 252t61.5 252t182.5 93q47 0 82.5 -16.5t57.5 -47.5t34 -58t23 -64l-139 -51q-8 41 -21 61t-37 20q-64 0 -64 -189t64 -189q48 0 59 93l138 -50q-47 -199 -197 -199z" />
    <glyph glyph-name="ccircumflex" unicode="&#x109;" horiz-adv-x="371" 
d="M359 556h-84l-48 79l-44 -79h-84l59 144h138zM226 -12q-95 0 -152.5 70t-57.5 184t57 183.5t153 69.5q43 0 79.5 -12.5t55.5 -29.5l-45 -123q-31 26 -58 26q-37 0 -59 -31t-22 -83t22 -83.5t59 -31.5q29 0 58 26l45 -123q-44 -42 -135 -42z" />
    <glyph glyph-name="Cdotaccent" unicode="&#x10a;" horiz-adv-x="467" 
d="M262 -12q-121 0 -182.5 93t-61.5 252t61.5 252t182.5 93q47 0 82.5 -16.5t57.5 -47.5t34 -58t23 -64l-139 -51q-8 41 -21 61t-37 20q-64 0 -64 -189t64 -189q48 0 59 93l138 -50q-47 -199 -197 -199zM260 703q-33 0 -56.5 23t-23.5 56t24 56.5t56 23.5q33 0 56.5 -23.5
t23.5 -56.5t-23.5 -56t-56.5 -23z" />
    <glyph glyph-name="cdotaccent" unicode="&#x10b;" horiz-adv-x="371" 
d="M226 -12q-95 0 -152.5 70t-57.5 184t57 183.5t153 69.5q43 0 79.5 -12.5t55.5 -29.5l-45 -123q-31 26 -58 26q-37 0 -59 -31t-22 -83t22 -83.5t59 -31.5q29 0 58 26l45 -123q-44 -42 -135 -42zM227 536q-33 0 -56.5 23t-23.5 56t24 56.5t56 23.5q33 0 56.5 -23.5
t23.5 -56.5t-23.5 -56t-56.5 -23z" />
    <glyph glyph-name="Ccaron" unicode="&#x10c;" horiz-adv-x="467" 
d="M332 723h-138l-62 144h84l47 -79l45 79h84zM262 -12q-121 0 -182.5 93t-61.5 252t61.5 252t182.5 93q47 0 82.5 -16.5t57.5 -47.5t34 -58t23 -64l-139 -51q-8 41 -21 61t-37 20q-64 0 -64 -189t64 -189q48 0 59 93l138 -50q-47 -199 -197 -199z" />
    <glyph glyph-name="ccaron" unicode="&#x10d;" horiz-adv-x="371" 
d="M299 556h-138l-62 144h84l47 -79l45 79h84zM226 -12q-95 0 -152.5 70t-57.5 184t57 183.5t153 69.5q43 0 79.5 -12.5t55.5 -29.5l-45 -123q-31 26 -58 26q-37 0 -59 -31t-22 -83t22 -83.5t59 -31.5q29 0 58 26l45 -123q-44 -42 -135 -42z" />
    <glyph glyph-name="Dcaron" unicode="&#x10e;" horiz-adv-x="524" 
d="M331 723h-138l-62 144h84l47 -79l45 79h84zM248 0h-207v667h206q130 0 194.5 -92.5t64.5 -241.5q0 -151 -63.5 -242t-194.5 -91zM247 154q79 0 79 179q0 180 -79 180h-29v-359h29z" />
    <glyph glyph-name="dcaron" unicode="&#x10f;" horiz-adv-x="605" 
d="M611 588q0 -95 -89 -158l-50 40q20 10 40 32.5t26 43.5q-4 -3 -17 -3q-26 0 -43.5 17.5t-17.5 46.5q0 30 21.5 51t50.5 21q32 0 55.5 -25t23.5 -66zM426 0h-157v54q-32 -66 -98 -66q-74 0 -114.5 66t-40.5 188q0 119 40.5 186t114.5 67q30 0 57 -16.5t41 -49.5v238h157
v-667zM227 127q26 0 42 36v159q-16 34 -42 34q-50 0 -50 -114q0 -115 50 -115z" />
    <glyph glyph-name="Dcroat" unicode="&#x110;" horiz-adv-x="550" 
d="M274 0h-207v265h-56v135h56v267h206q130 0 194.5 -92.5t64.5 -241.5q0 -151 -63.5 -242t-194.5 -91zM273 154q79 0 79 179q0 180 -79 180h-29v-113h55v-135h-55v-111h29z" />
    <glyph glyph-name="dcroat" unicode="&#x111;" horiz-adv-x="461" 
d="M426 0h-157v54q-32 -66 -98 -66q-74 0 -114.5 66t-40.5 188q0 119 40.5 186t114.5 67q30 0 57 -16.5t41 -49.5v95h-119v87h119v56h157v-56h32v-87h-32v-524zM227 127q26 0 42 36v159q-16 34 -42 34q-50 0 -50 -114q0 -115 50 -115z" />
    <glyph glyph-name="Emacron" unicode="&#x112;" horiz-adv-x="405" 
d="M377 0h-336v667h336v-154h-159v-98h152v-154h-152v-107h159v-154zM342 722h-268v87h268v-87z" />
    <glyph glyph-name="emacron" unicode="&#x113;" horiz-adv-x="435" 
d="M233 -12q-101 0 -159 69t-58 185q0 110 55.5 181.5t153.5 71.5t147.5 -67.5t49.5 -182.5v-55h-255q1 -32 22 -53.5t62 -21.5q44 0 81 37l69 -90q-32 -36 -77 -55t-91 -19zM273 297q0 71 -53 71t-53 -71h106zM352 555h-268v87h268v-87z" />
    <glyph glyph-name="Ebreve" unicode="&#x114;" horiz-adv-x="405" 
d="M377 0h-336v667h336v-154h-159v-98h152v-154h-152v-107h159v-154zM337 770q-46 -65 -129 -65q-81 0 -129 65l70 52q21 -31 59 -31t59 31z" />
    <glyph glyph-name="ebreve" unicode="&#x115;" horiz-adv-x="435" 
d="M233 -12q-101 0 -159 69t-58 185q0 110 55.5 181.5t153.5 71.5t147.5 -67.5t49.5 -182.5v-55h-255q1 -32 22 -53.5t62 -21.5q44 0 81 37l69 -90q-32 -36 -77 -55t-91 -19zM273 297q0 71 -53 71t-53 -71h106zM355 603q-46 -65 -129 -65q-81 0 -129 65l70 52q21 -31 59 -31
t59 31z" />
    <glyph glyph-name="Edotaccent" unicode="&#x116;" horiz-adv-x="405" 
d="M377 0h-336v667h336v-154h-159v-98h152v-154h-152v-107h159v-154zM213 703q-33 0 -56.5 23t-23.5 56t24 56.5t56 23.5q33 0 56.5 -23.5t23.5 -56.5t-23.5 -56t-56.5 -23z" />
    <glyph glyph-name="edotaccent" unicode="&#x117;" horiz-adv-x="435" 
d="M233 -12q-101 0 -159 69t-58 185q0 110 55.5 181.5t153.5 71.5t147.5 -67.5t49.5 -182.5v-55h-255q1 -32 22 -53.5t62 -21.5q44 0 81 37l69 -90q-32 -36 -77 -55t-91 -19zM273 297q0 71 -53 71t-53 -71h106zM224 536q-33 0 -56.5 23t-23.5 56t24 56.5t56 23.5
q33 0 56.5 -23.5t23.5 -56.5t-23.5 -56t-56.5 -23z" />
    <glyph glyph-name="Eogonek" unicode="&#x118;" horiz-adv-x="405" 
d="M377 0q-49 -37 -49 -92q0 -32 19 -32q14 0 21 23l59 -32q-25 -53 -81 -53q-42 0 -66.5 22t-24.5 66q0 54 36 98h-250v667h336v-154h-159v-98h152v-154h-152v-107h159v-154z" />
    <glyph glyph-name="eogonek" unicode="&#x119;" horiz-adv-x="435" 
d="M296 -101l59 -32q-25 -53 -81 -53q-42 0 -66.5 22t-24.5 66q0 49 28 87q-92 8 -143.5 76t-51.5 177q0 110 55.5 181.5t153.5 71.5t147.5 -67.5t49.5 -182.5v-55h-255q1 -32 22 -53.5t62 -21.5q44 0 81 37l69 -90q-40 -45 -97 -62q-48 -38 -48 -92q0 -32 19 -32
q14 0 21 23zM273 297q0 71 -53 71t-53 -71h106z" />
    <glyph glyph-name="Ecaron" unicode="&#x11a;" horiz-adv-x="405" 
d="M277 723h-138l-62 144h84l47 -79l45 79h84zM377 0h-336v667h336v-154h-159v-98h152v-154h-152v-107h159v-154z" />
    <glyph glyph-name="ecaron" unicode="&#x11b;" horiz-adv-x="435" 
d="M296 556h-138l-62 144h84l47 -79l45 79h84zM233 -12q-101 0 -159 69t-58 185q0 110 55.5 181.5t153.5 71.5t147.5 -67.5t49.5 -182.5v-55h-255q1 -32 22 -53.5t62 -21.5q44 0 81 37l69 -90q-32 -36 -77 -55t-91 -19zM273 297q0 71 -53 71t-53 -71h106z" />
    <glyph glyph-name="Gcircumflex" unicode="&#x11c;" horiz-adv-x="495" 
d="M392 723h-84l-48 79l-44 -79h-84l59 144h138zM262 -12q-121 0 -182.5 93t-61.5 252t61.5 252t182.5 93q77 0 127.5 -52t69.5 -134l-139 -51q-13 81 -58 81q-64 0 -64 -189t64 -189q33 0 49 19v67h-61v155h215v-301q-86 -96 -203 -96z" />
    <glyph glyph-name="gcircumflex" unicode="&#x11d;" horiz-adv-x="461" 
d="M363 556h-84l-48 79l-44 -79h-84l59 144h138zM209 -196q-109 0 -169 55l48 123q50 -45 103 -45q35 0 56.5 23.5t21.5 71.5v49q-33 -67 -98 -67q-155 0 -155 240q0 118 40 179.5t115 61.5q30 0 57 -16.5t41 -49.5v54h157v-451q0 -65 -18.5 -111.5t-51 -71t-68.5 -35
t-79 -10.5zM227 153q27 0 42 34v135q-15 34 -42 34q-28 0 -39 -24.5t-11 -77.5t11 -77t39 -24z" />
    <glyph glyph-name="Gbreve" unicode="&#x11e;" horiz-adv-x="495" 
d="M262 -12q-121 0 -182.5 93t-61.5 252t61.5 252t182.5 93q77 0 127.5 -52t69.5 -134l-139 -51q-13 81 -58 81q-64 0 -64 -189t64 -189q33 0 49 19v67h-61v155h215v-301q-86 -96 -203 -96zM392 770q-46 -65 -129 -65q-81 0 -129 65l70 52q21 -31 59 -31t59 31z" />
    <glyph glyph-name="gbreve" unicode="&#x11f;" horiz-adv-x="461" 
d="M209 -196q-109 0 -169 55l48 123q50 -45 103 -45q35 0 56.5 23.5t21.5 71.5v49q-33 -67 -98 -67q-155 0 -155 240q0 118 40 179.5t115 61.5q30 0 57 -16.5t41 -49.5v54h157v-451q0 -65 -18.5 -111.5t-51 -71t-68.5 -35t-79 -10.5zM227 153q27 0 42 34v135q-15 34 -42 34
q-28 0 -39 -24.5t-11 -77.5t11 -77t39 -24zM357 603q-46 -65 -129 -65q-81 0 -129 65l70 52q21 -31 59 -31t59 31z" />
    <glyph glyph-name="Gdotaccent" unicode="&#x120;" horiz-adv-x="495" 
d="M262 -12q-121 0 -182.5 93t-61.5 252t61.5 252t182.5 93q77 0 127.5 -52t69.5 -134l-139 -51q-13 81 -58 81q-64 0 -64 -189t64 -189q33 0 49 19v67h-61v155h215v-301q-86 -96 -203 -96zM262 703q-33 0 -56.5 23t-23.5 56t24 56.5t56 23.5q33 0 56.5 -23.5t23.5 -56.5
t-23.5 -56t-56.5 -23z" />
    <glyph glyph-name="gdotaccent" unicode="&#x121;" horiz-adv-x="461" 
d="M209 -196q-109 0 -169 55l48 123q50 -45 103 -45q35 0 56.5 23.5t21.5 71.5v49q-33 -67 -98 -67q-155 0 -155 240q0 118 40 179.5t115 61.5q30 0 57 -16.5t41 -49.5v54h157v-451q0 -65 -18.5 -111.5t-51 -71t-68.5 -35t-79 -10.5zM227 153q27 0 42 34v135q-15 34 -42 34
q-28 0 -39 -24.5t-11 -77.5t11 -77t39 -24zM236 536q-33 0 -56.5 23t-23.5 56t24 56.5t56 23.5q33 0 56.5 -23.5t23.5 -56.5t-23.5 -56t-56.5 -23z" />
    <glyph glyph-name="Gcommaaccent" unicode="&#x122;" horiz-adv-x="495" 
d="M327 -139q0 -95 -89 -158l-50 40q20 10 40 32.5t26 43.5q-4 -3 -17 -3q-26 0 -43.5 17.5t-17.5 46.5q0 30 21.5 51t50.5 21q32 0 55.5 -25t23.5 -66zM262 -12q-121 0 -182.5 93t-61.5 252t61.5 252t182.5 93q77 0 127.5 -52t69.5 -134l-139 -51q-13 81 -58 81
q-64 0 -64 -189t64 -189q33 0 49 19v67h-61v155h215v-301q-86 -96 -203 -96z" />
    <glyph glyph-name="gcommaaccent" unicode="&#x123;" horiz-adv-x="461" 
d="M153 612q0 103 86 164l50 -41q-19 -8 -40.5 -29t-24.5 -40q3 1 7 1q27 0 48 -19.5t21 -48.5t-21 -50.5t-52 -21.5q-28 0 -51 20t-23 65zM209 -196q-109 0 -169 55l48 123q50 -45 103 -45q35 0 56.5 23.5t21.5 71.5v49q-33 -67 -98 -67q-155 0 -155 240q0 118 40 179.5
t115 61.5q30 0 57 -16.5t41 -49.5v54h157v-451q0 -65 -18.5 -111.5t-51 -71t-68.5 -35t-79 -10.5zM227 153q27 0 42 34v135q-15 34 -42 34q-28 0 -39 -24.5t-11 -77.5t11 -77t39 -24z" />
    <glyph glyph-name="Hcircumflex" unicode="&#x124;" horiz-adv-x="532" 
d="M396 723h-84l-48 79l-44 -79h-84l59 144h138zM490 0h-176v266h-96v-266h-177v667h177v-247h96v247h176v-667z" />
    <glyph glyph-name="hcircumflex" unicode="&#x125;" 
d="M361 723h-84l-48 79l-44 -79h-84l59 144h138zM427 0h-158v319q0 37 -29 37q-30 0 -47 -47v-309h-158v667h158v-242q14 27 50 48.5t70 21.5q114 0 114 -113v-382z" />
    <glyph glyph-name="Hbar" unicode="&#x126;" horiz-adv-x="551" 
d="M501 0h-176v266h-96v-266h-177v501h-41v87h41v79h177v-79h96v79h176v-79h38v-87h-38v-501zM229 420h96v81h-96v-81z" />
    <glyph glyph-name="hbar" unicode="&#x127;" horiz-adv-x="471" 
d="M319 524h-117v-99q14 27 50 48.5t70 21.5q114 0 114 -113v-382h-158v319q0 37 -29 37q-30 0 -47 -47v-309h-158v524h-33v87h33v56h158v-56h117v-87z" />
    <glyph glyph-name="Itilde" unicode="&#x128;" horiz-adv-x="259" 
d="M218 0h-177v667h177v-667zM179 721q-22 0 -39 13.5t-29.5 26.5t-22.5 13q-24 0 -24 -47h-74q0 61 26 97.5t71 36.5q21 0 38.5 -13.5t30 -27t22.5 -13.5q24 0 24 48h74q0 -61 -26 -97.5t-71 -36.5z" />
    <glyph glyph-name="itilde" unicode="&#x129;" horiz-adv-x="228" 
d="M193 0h-158v483h158v-483zM161 554q-22 0 -39 13t-29.5 26.5t-22.5 13.5q-24 0 -24 -47h-74q0 61 26 97.5t71 36.5q21 0 38.5 -13.5t30 -27t22.5 -13.5q24 0 24 48h74q0 -61 -26 -97.5t-71 -36.5z" />
    <glyph glyph-name="Imacron" unicode="&#x12a;" horiz-adv-x="259" 
d="M218 0h-177v667h177v-667zM263 722h-268v87h268v-87z" />
    <glyph glyph-name="imacron" unicode="&#x12b;" horiz-adv-x="228" 
d="M193 0h-158v483h158v-483zM248 555h-268v87h268v-87z" />
    <glyph glyph-name="Ibreve" unicode="&#x12c;" horiz-adv-x="259" 
d="M218 0h-177v667h177v-667zM260 770q-46 -65 -129 -65q-81 0 -129 65l70 52q21 -31 59 -31t59 31z" />
    <glyph glyph-name="ibreve" unicode="&#x12d;" horiz-adv-x="228" 
d="M193 0h-158v483h158v-483zM243 603q-46 -65 -129 -65q-81 0 -129 65l70 52q21 -31 59 -31t59 31z" />
    <glyph glyph-name="Iogonek" unicode="&#x12e;" horiz-adv-x="259" 
d="M209 -101l59 -32q-25 -53 -81 -53q-42 0 -66.5 22t-24.5 66q0 54 36 98h-91v667h177v-667q-49 -37 -49 -92q0 -32 19 -32q14 0 21 23z" />
    <glyph glyph-name="iogonek" unicode="&#x12f;" horiz-adv-x="228" 
d="M184 -101l59 -32q-25 -53 -81 -53q-42 0 -66.5 22t-24.5 66q0 54 36 98h-72v483h158v-483q-49 -37 -49 -92q0 -32 19 -32q14 0 21 23zM114 525q-38 0 -64 26.5t-26 63.5q0 38 26.5 64.5t63.5 26.5t63.5 -26.5t26.5 -64.5q0 -37 -26 -63.5t-64 -26.5z" />
    <glyph glyph-name="Idotaccent" unicode="&#x130;" horiz-adv-x="259" 
d="M218 0h-177v667h177v-667zM130 703q-33 0 -56.5 23t-23.5 56t24 56.5t56 23.5q33 0 56.5 -23.5t23.5 -56.5t-23.5 -56t-56.5 -23z" />
    <glyph glyph-name="dotlessi" unicode="&#x131;" horiz-adv-x="228" 
d="M193 0h-158v483h158v-483z" />
    <glyph glyph-name="IJ" unicode="&#x132;" horiz-adv-x="635" 
d="M218 0h-177v667h177v-667zM380 -12q-71 0 -112 27l40 145q19 -16 50 -16q27 0 43.5 14.5t16.5 42.5v466h177v-475q0 -103 -57.5 -153.5t-157.5 -50.5z" />
    <glyph glyph-name="ij" unicode="&#x133;" horiz-adv-x="456" 
d="M114 525q-38 0 -64 26.5t-26 63.5q0 38 26.5 64.5t63.5 26.5t63.5 -26.5t26.5 -64.5q0 -37 -26 -63.5t-64 -26.5zM193 0h-158v483h158v-483zM342 525q-38 0 -64 26.5t-26 63.5q0 38 26.5 64.5t63.5 26.5t63.5 -26.5t26.5 -64.5q0 -37 -26 -63.5t-64 -26.5zM257 -196
q-43 0 -74 16l26 124q9 -7 23 -7q31 0 31 50v496h158v-496q0 -183 -164 -183z" />
    <glyph glyph-name="Jcircumflex" unicode="&#x134;" horiz-adv-x="375" 
d="M379 723h-84l-48 79l-44 -79h-84l59 144h138zM121 -12q-71 0 -112 27l40 145q19 -16 50 -16q27 0 43.5 14.5t16.5 42.5v466h177v-475q0 -103 -57.5 -153.5t-157.5 -50.5z" />
    <glyph glyph-name="jcircumflex" unicode="&#x135;" horiz-adv-x="228" 
d="M246 556h-84l-48 79l-44 -79h-84l59 144h138zM17 -196q-39 0 -62 16l26 130q9 -7 23 -7q31 0 31 44v496h158v-496q0 -90 -40.5 -136.5t-135.5 -46.5z" />
    <glyph glyph-name="Kcommaaccent" unicode="&#x136;" horiz-adv-x="524" 
d="M341 -139q0 -95 -89 -158l-50 40q20 10 40 32.5t26 43.5q-4 -3 -17 -3q-26 0 -43.5 17.5t-17.5 46.5q0 30 21.5 51t50.5 21q32 0 55.5 -25t23.5 -66zM529 0h-198l-75 220l-38 -83v-137h-177v667h177v-270l108 270h192l-156 -311z" />
    <glyph glyph-name="kcommaaccent" unicode="&#x137;" horiz-adv-x="445" 
d="M303 -139q0 -95 -89 -158l-50 40q20 10 40 32.5t26 43.5q-4 -3 -17 -3q-26 0 -43.5 17.5t-17.5 46.5q0 30 21.5 51t50.5 21q32 0 55.5 -25t23.5 -66zM450 0h-173l-51 166l-33 -64v-102h-158v667h158v-362l74 178h174l-108 -213z" />
    <glyph glyph-name="kgreenlandic" unicode="&#x138;" horiz-adv-x="445" 
d="M450 0h-173l-51 166l-33 -64v-102h-158v483h158v-178l74 178h174l-108 -213z" />
    <glyph glyph-name="Lacute" unicode="&#x139;" horiz-adv-x="396" 
d="M366 867l-112 -144h-97l80 144h129zM377 0h-336v667h177v-513h159v-154z" />
    <glyph glyph-name="lacute" unicode="&#x13a;" horiz-adv-x="228" 
d="M271 867l-112 -144h-97l80 144h129zM193 0h-158v667h158v-667z" />
    <glyph glyph-name="Lcommaaccent" unicode="&#x13b;" horiz-adv-x="396" 
d="M277 -139q0 -95 -89 -158l-50 40q20 10 40 32.5t26 43.5q-4 -3 -17 -3q-26 0 -43.5 17.5t-17.5 46.5q0 30 21.5 51t50.5 21q32 0 55.5 -25t23.5 -66zM377 0h-336v667h177v-513h159v-154z" />
    <glyph glyph-name="lcommaaccent" unicode="&#x13c;" horiz-adv-x="228" 
d="M193 -139q0 -95 -89 -158l-50 40q20 10 40 32.5t26 43.5q-4 -3 -17 -3q-26 0 -43.5 17.5t-17.5 46.5q0 30 21.5 51t50.5 21q32 0 55.5 -25t23.5 -66zM193 0h-158v667h158v-667z" />
    <glyph glyph-name="Lcaron" unicode="&#x13d;" horiz-adv-x="396" 
d="M409 590q0 -95 -89 -158l-50 40q20 10 40 32.5t26 43.5q-4 -3 -17 -3q-26 0 -43.5 17.5t-17.5 46.5q0 30 21.5 51t50.5 21q32 0 55.5 -25t23.5 -66zM377 0h-336v667h177v-513h159v-154z" />
    <glyph glyph-name="lcaron" unicode="&#x13e;" horiz-adv-x="371" 
d="M388 590q0 -95 -89 -158l-50 40q20 10 40 32.5t26 43.5q-5 -3 -17 -3q-26 0 -43.5 17.5t-17.5 46.5q0 30 21.5 51t50.5 21q32 0 55.5 -25t23.5 -66zM193 0h-158v667h158v-667z" />
    <glyph glyph-name="Ldot" unicode="&#x13f;" horiz-adv-x="495" 
d="M377 0h-336v667h177v-513h159v-154zM474 342q0 -39 -28.5 -67.5t-67.5 -28.5t-67.5 28.5t-28.5 67.5q0 40 28.5 68.5t67.5 28.5t67.5 -28.5t28.5 -68.5z" />
    <glyph glyph-name="ldot" unicode="&#x140;" horiz-adv-x="426" 
d="M193 0h-158v667h158v-667zM423 244q0 -39 -28.5 -67.5t-67.5 -28.5t-67.5 28.5t-28.5 67.5q0 40 28.5 68.5t67.5 28.5t67.5 -28.5t28.5 -68.5z" />
    <glyph glyph-name="Lslash" unicode="&#x141;" horiz-adv-x="402" 
d="M11 190v141l36 21v315h177v-212l57 33v-142l-57 -33v-159h159v-154h-336v211z" />
    <glyph glyph-name="lslash" unicode="&#x142;" horiz-adv-x="260" 
d="M11 207v112l40 23v325h158v-235l41 24v-112l-41 -24v-320h-158v230z" />
    <glyph glyph-name="Nacute" unicode="&#x143;" horiz-adv-x="532" 
d="M422 867l-112 -144h-97l80 144h129zM490 0h-164l-108 277v-277h-177v667h177l96 -260v260h176v-667z" />
    <glyph glyph-name="nacute" unicode="&#x144;" 
d="M388 700l-112 -144h-97l80 144h129zM427 0h-158v317q0 39 -29 39q-30 0 -47 -47v-309h-158v483h158v-58q14 27 50 48.5t70 21.5q59 0 86.5 -31t27.5 -84v-380z" />
    <glyph glyph-name="Ncommaaccent" unicode="&#x145;" horiz-adv-x="532" 
d="M344 -139q0 -95 -89 -158l-50 40q20 10 40 32.5t26 43.5q-4 -3 -17 -3q-26 0 -43.5 17.5t-17.5 46.5q0 30 21.5 51t50.5 21q32 0 55.5 -25t23.5 -66zM490 0h-164l-108 277v-277h-177v667h177l96 -260v260h176v-667z" />
    <glyph glyph-name="ncommaaccent" unicode="&#x146;" 
d="M310 -139q0 -95 -89 -158l-50 40q20 10 40 32.5t26 43.5q-5 -3 -17 -3q-26 0 -43.5 17.5t-17.5 46.5q0 30 21.5 51t50.5 21q32 0 55.5 -25t23.5 -66zM427 0h-158v317q0 39 -29 39q-30 0 -47 -47v-309h-158v483h158v-58q14 27 50 48.5t70 21.5q59 0 86.5 -31t27.5 -84
v-380z" />
    <glyph glyph-name="Ncaron" unicode="&#x147;" horiz-adv-x="532" 
d="M335 723h-138l-62 144h84l47 -79l45 79h84zM490 0h-164l-108 277v-277h-177v667h177l96 -260v260h176v-667z" />
    <glyph glyph-name="ncaron" unicode="&#x148;" 
d="M301 556h-138l-62 144h84l47 -79l45 79h84zM427 0h-158v317q0 39 -29 39q-30 0 -47 -47v-309h-158v483h158v-58q14 27 50 48.5t70 21.5q59 0 86.5 -31t27.5 -84v-380z" />
    <glyph glyph-name="napostrophe" unicode="&#x149;" 
d="M172 685q0 -95 -89 -158l-50 40q20 10 40 32.5t26 43.5q-5 -3 -17 -3q-26 0 -43.5 17.5t-17.5 46.5q0 30 21.5 51t50.5 21q32 0 55.5 -25t23.5 -66zM427 0h-158v317q0 39 -29 39q-30 0 -47 -47v-309h-158v483h158v-58q14 27 50 48.5t70 21.5q59 0 86.5 -31t27.5 -84v-380
z" />
    <glyph glyph-name="Eng" unicode="&#x14a;" horiz-adv-x="532" 
d="M276 -196q-71 0 -113 27l40 142q22 -17 51 -17q26 0 43 15t17 42v18l-96 246v-277h-177v667h177l96 -260v260h176v-659q0 -103 -57 -153.5t-157 -50.5z" />
    <glyph glyph-name="eng" unicode="&#x14b;" 
d="M427 380v-393q0 -91 -41 -137t-136 -46q-38 0 -61 16l25 130q10 -7 24 -7q31 0 31 44v330q0 39 -29 39q-30 0 -47 -47v-309h-158v483h158v-58q14 27 50 48.5t70 21.5q59 0 86.5 -31t27.5 -84z" />
    <glyph glyph-name="Omacron" unicode="&#x14c;" horiz-adv-x="522" 
d="M394 722h-268v87h268v-87zM261 -12q-120 0 -181.5 93.5t-61.5 251.5t61.5 251.5t181.5 93.5t181.5 -93.5t61.5 -251.5t-61.5 -251.5t-181.5 -93.5zM261 144q63 0 63 189t-63 189t-63 -189t63 -189z" />
    <glyph glyph-name="omacron" unicode="&#x14d;" horiz-adv-x="451" 
d="M360 555h-268v87h268v-87zM225 -12q-101 0 -155 73t-54 181t54 180.5t155 72.5q102 0 156.5 -72.5t54.5 -180.5t-54.5 -181t-156.5 -73zM225 127q49 0 49 115q0 114 -49 114q-47 0 -47 -114q0 -115 47 -115z" />
    <glyph glyph-name="Obreve" unicode="&#x14e;" horiz-adv-x="522" 
d="M261 -12q-120 0 -181.5 93.5t-61.5 251.5t61.5 251.5t181.5 93.5t181.5 -93.5t61.5 -251.5t-61.5 -251.5t-181.5 -93.5zM261 144q63 0 63 189t-63 189t-63 -189t63 -189zM392 770q-46 -65 -129 -65q-81 0 -129 65l70 52q21 -31 59 -31t59 31z" />
    <glyph glyph-name="obreve" unicode="&#x14f;" horiz-adv-x="451" 
d="M225 -12q-101 0 -155 73t-54 181t54 180.5t155 72.5q102 0 156.5 -72.5t54.5 -180.5t-54.5 -181t-156.5 -73zM225 127q49 0 49 115q0 114 -49 114q-47 0 -47 -114q0 -115 47 -115zM355 603q-46 -65 -129 -65q-81 0 -129 65l70 52q21 -31 59 -31t59 31z" />
    <glyph glyph-name="Ohungarumlaut" unicode="&#x150;" horiz-adv-x="522" 
d="M302 867l-84 -144h-79l51 144h112zM442 867l-84 -144h-79l51 144h112zM261 -12q-120 0 -181.5 93.5t-61.5 251.5t61.5 251.5t181.5 93.5t181.5 -93.5t61.5 -251.5t-61.5 -251.5t-181.5 -93.5zM261 144q63 0 63 189t-63 189t-63 -189t63 -189z" />
    <glyph glyph-name="ohungarumlaut" unicode="&#x151;" horiz-adv-x="451" 
d="M267 700l-84 -144h-79l51 144h112zM407 700l-84 -144h-79l51 144h112zM225 -12q-101 0 -155 73t-54 181t54 180.5t155 72.5q102 0 156.5 -72.5t54.5 -180.5t-54.5 -181t-156.5 -73zM225 127q49 0 49 115q0 114 -49 114q-47 0 -47 -114q0 -115 47 -115z" />
    <glyph glyph-name="OE" unicode="&#x152;" horiz-adv-x="671" 
d="M652 0h-335v34q-14 -20 -41.5 -33t-53.5 -13q-101 0 -152.5 93.5t-51.5 251.5t51.5 251t152.5 93q26 0 53.5 -12t41.5 -32v34h335v-154h-159v-98h152v-154h-152v-107h159v-154zM317 204v259q-17 58 -55 58q-64 0 -64 -188q0 -189 64 -189q38 0 55 60z" />
    <glyph glyph-name="oe" unicode="&#x153;" horiz-adv-x="693" 
d="M680 189h-255q2 -32 22.5 -53t61.5 -21q42 0 81 37l69 -90q-32 -36 -77 -55t-91 -19q-86 0 -136 67q-48 -67 -130 -67q-101 0 -155 73t-54 181t54 180.5t155 72.5q82 0 130 -66q48 66 128 66q98 0 147.5 -68.5t49.5 -184.5v-53zM425 297h106q0 71 -53 71t-53 -71z
M274 242q0 114 -49 114q-47 0 -47 -114q0 -115 47 -115q49 0 49 115z" />
    <glyph glyph-name="Racute" unicode="&#x154;" horiz-adv-x="510" 
d="M418 867l-112 -144h-97l80 144h129zM487 0h-189l-57 222h-23v-222h-177v667h232q90 0 149 -62t59 -154q0 -128 -79 -186zM244 376q27 0 42.5 18t15.5 50q0 33 -15.5 51t-42.5 18h-26v-137h26z" />
    <glyph glyph-name="racute" unicode="&#x155;" horiz-adv-x="309" 
d="M323 700l-112 -144h-97l80 144h129zM193 0h-158v483h158v-58q12 28 45 49.5t60 21.5v-151q-16 4 -26 4q-20 0 -42.5 -12t-36.5 -31v-306z" />
    <glyph glyph-name="Rcommaaccent" unicode="&#x156;" horiz-adv-x="510" 
d="M333 -139q0 -95 -89 -158l-50 40q20 10 40 32.5t26 43.5q-4 -3 -17 -3q-26 0 -43.5 17.5t-17.5 46.5q0 30 21.5 51t50.5 21q32 0 55.5 -25t23.5 -66zM487 0h-189l-57 222h-23v-222h-177v667h232q90 0 149 -62t59 -154q0 -128 -79 -186zM244 376q27 0 42.5 18t15.5 50
q0 33 -15.5 51t-42.5 18h-26v-137h26z" />
    <glyph glyph-name="rcommaaccent" unicode="&#x157;" horiz-adv-x="309" 
d="M233 -139q0 -95 -89 -158l-50 40q20 10 40 32.5t26 43.5q-4 -3 -17 -3q-26 0 -43.5 17.5t-17.5 46.5q0 30 21.5 51t50.5 21q32 0 55.5 -25t23.5 -66zM193 0h-158v483h158v-58q12 28 45 49.5t60 21.5v-151q-16 4 -26 4q-20 0 -42.5 -12t-36.5 -31v-306z" />
    <glyph glyph-name="Rcaron" unicode="&#x158;" horiz-adv-x="510" 
d="M324 723h-138l-62 144h84l47 -79l45 79h84zM487 0h-189l-57 222h-23v-222h-177v667h232q90 0 149 -62t59 -154q0 -128 -79 -186zM244 376q27 0 42.5 18t15.5 50q0 33 -15.5 51t-42.5 18h-26v-137h26z" />
    <glyph glyph-name="rcaron" unicode="&#x159;" horiz-adv-x="309" 
d="M236 556h-138l-62 144h84l47 -79l45 79h84zM193 0h-158v483h158v-58q12 28 45 49.5t60 21.5v-151q-16 4 -26 4q-20 0 -42.5 -12t-36.5 -31v-306z" />
    <glyph glyph-name="Sacute" unicode="&#x15a;" horiz-adv-x="437" 
d="M380 867l-112 -144h-97l80 144h129zM205 -12q-125 0 -201 71l71 138q46 -53 118 -53q22 0 34.5 12t12.5 31q0 22 -22.5 40.5t-54 35.5t-63.5 40t-54.5 66t-22.5 102q0 84 57.5 145.5t160.5 61.5q105 0 171 -61l-64 -136q-41 41 -100 41q-21 0 -33 -11.5t-12 -29.5t16 -34
t40 -28.5t52 -31.5t52 -41.5t40 -60.5t16 -85q0 -95 -58.5 -153.5t-155.5 -58.5z" />
    <glyph glyph-name="sacute" unicode="&#x15b;" horiz-adv-x="382" 
d="M350 700l-112 -144h-97l80 144h129zM186 -12q-121 0 -182 65l60 108q52 -50 107 -50q50 0 50 31q0 13 -20.5 22t-50 18t-58.5 24.5t-49.5 50t-20.5 84.5q0 65 47 109.5t134 44.5q93 0 167 -60l-60 -106q-16 16 -44.5 29.5t-59.5 13.5q-17 0 -28 -7.5t-11 -18.5
q0 -12 21 -20.5t51 -18.5t60 -26t51 -50.5t21 -83.5q0 -70 -51 -114.5t-134 -44.5z" />
    <glyph glyph-name="Scircumflex" unicode="&#x15c;" horiz-adv-x="437" 
d="M372 723h-84l-48 79l-44 -79h-84l59 144h138zM205 -12q-125 0 -201 71l71 138q46 -53 118 -53q22 0 34.5 12t12.5 31q0 22 -22.5 40.5t-54 35.5t-63.5 40t-54.5 66t-22.5 102q0 84 57.5 145.5t160.5 61.5q105 0 171 -61l-64 -136q-41 41 -100 41q-21 0 -33 -11.5
t-12 -29.5t16 -34t40 -28.5t52 -31.5t52 -41.5t40 -60.5t16 -85q0 -95 -58.5 -153.5t-155.5 -58.5z" />
    <glyph glyph-name="scircumflex" unicode="&#x15d;" horiz-adv-x="382" 
d="M325 556h-84l-48 79l-44 -79h-84l59 144h138zM186 -12q-121 0 -182 65l60 108q52 -50 107 -50q50 0 50 31q0 13 -20.5 22t-50 18t-58.5 24.5t-49.5 50t-20.5 84.5q0 65 47 109.5t134 44.5q93 0 167 -60l-60 -106q-16 16 -44.5 29.5t-59.5 13.5q-17 0 -28 -7.5t-11 -18.5
q0 -12 21 -20.5t51 -18.5t60 -26t51 -50.5t21 -83.5q0 -70 -51 -114.5t-134 -44.5z" />
    <glyph glyph-name="Scedilla" unicode="&#x15e;" horiz-adv-x="437" 
d="M202 -198q-55 0 -95 33l27 57q33 -28 63 -28q35 0 35 28q0 20 -18 20q-13 0 -23 -12l-53 30l22 60q-94 10 -156 69l71 138q46 -53 118 -53q22 0 34.5 12t12.5 31q0 22 -22.5 40.5t-54 35.5t-63.5 40t-54.5 66t-22.5 102q0 84 57.5 145.5t160.5 61.5q105 0 171 -61
l-64 -136q-41 41 -100 41q-21 0 -33 -11.5t-12 -29.5t16 -34t40 -28.5t52 -31.5t52 -41.5t40 -60.5t16 -85q0 -88 -50.5 -145.5t-137.5 -64.5l-16 -39q15 9 29 9q27 0 44.5 -20t17.5 -51q0 -41 -28.5 -64t-75.5 -23z" />
    <glyph glyph-name="scedilla" unicode="&#x15f;" horiz-adv-x="382" 
d="M181 -198q-55 0 -95 33l27 57q33 -28 63 -28q35 0 35 28q0 20 -18 20q-13 0 -23 -12l-53 30l22 61q-91 13 -135 62l60 108q52 -50 107 -50q50 0 50 31q0 13 -20.5 22t-50 18t-58.5 24.5t-49.5 50t-20.5 84.5q0 65 47 109.5t134 44.5q93 0 167 -60l-60 -106
q-16 16 -44.5 29.5t-59.5 13.5q-17 0 -28 -7.5t-11 -18.5q0 -12 21 -20.5t51 -18.5t60 -26t51 -50.5t21 -83.5q0 -65 -44 -108t-117 -50l-16 -38q15 9 29 9q27 0 44.5 -20t17.5 -51q0 -41 -28.5 -64t-75.5 -23z" />
    <glyph glyph-name="Scaron" unicode="&#x160;" horiz-adv-x="437" 
d="M312 723h-138l-62 144h84l47 -79l45 79h84zM205 -12q-125 0 -201 71l71 138q46 -53 118 -53q22 0 34.5 12t12.5 31q0 22 -22.5 40.5t-54 35.5t-63.5 40t-54.5 66t-22.5 102q0 84 57.5 145.5t160.5 61.5q105 0 171 -61l-64 -136q-41 41 -100 41q-21 0 -33 -11.5t-12 -29.5
t16 -34t40 -28.5t52 -31.5t52 -41.5t40 -60.5t16 -85q0 -95 -58.5 -153.5t-155.5 -58.5z" />
    <glyph glyph-name="scaron" unicode="&#x161;" horiz-adv-x="382" 
d="M265 556h-138l-62 144h84l47 -79l45 79h84zM186 -12q-121 0 -182 65l60 108q52 -50 107 -50q50 0 50 31q0 13 -20.5 22t-50 18t-58.5 24.5t-49.5 50t-20.5 84.5q0 65 47 109.5t134 44.5q93 0 167 -60l-60 -106q-16 16 -44.5 29.5t-59.5 13.5q-17 0 -28 -7.5t-11 -18.5
q0 -12 21 -20.5t51 -18.5t60 -26t51 -50.5t21 -83.5q0 -70 -51 -114.5t-134 -44.5z" />
    <glyph glyph-name="Tcommaaccent" unicode="&#x162;" horiz-adv-x="406" 
d="M282 -139q0 -95 -89 -158l-50 40q20 10 40 32.5t26 43.5q-4 -3 -17 -3q-26 0 -43.5 17.5t-17.5 46.5q0 30 21.5 51t50.5 21q32 0 55.5 -25t23.5 -66zM292 0h-177v513h-97v154h370v-154h-96v-513z" />
    <glyph glyph-name="tcommaaccent" unicode="&#x163;" horiz-adv-x="282" 
d="M219 -139q0 -95 -89 -158l-50 40q20 10 40 32.5t26 43.5q-4 -3 -17 -3q-26 0 -43.5 17.5t-17.5 46.5q0 30 21.5 51t50.5 21q32 0 55.5 -25t23.5 -66zM187 -12q-72 0 -103.5 34.5t-31.5 107.5v216h-41v137h41v132h158v-132h56v-137h-56v-182q0 -37 22 -37q17 0 23 8
l25 -126q-33 -21 -93 -21z" />
    <glyph glyph-name="Tcaron" unicode="&#x164;" horiz-adv-x="406" 
d="M273 723h-138l-62 144h84l47 -79l45 79h84zM292 0h-177v513h-97v154h370v-154h-96v-513z" />
    <glyph glyph-name="tcaron" unicode="&#x165;" horiz-adv-x="282" 
d="M380 685q0 -95 -89 -158l-50 40q20 10 40 32.5t26 43.5q-4 -3 -17 -3q-26 0 -43.5 17.5t-17.5 46.5q0 30 21.5 51t50.5 21q32 0 55.5 -25t23.5 -66zM187 -12q-72 0 -103.5 34.5t-31.5 107.5v216h-41v137h41v132h158v-132h56v-137h-56v-182q0 -37 22 -37q17 0 23 8
l25 -126q-33 -21 -93 -21z" />
    <glyph glyph-name="Tbar" unicode="&#x166;" horiz-adv-x="406" 
d="M292 0h-177v245h-65v87h65v181h-97v154h370v-154h-96v-181h64v-87h-64v-245z" />
    <glyph glyph-name="tbar" unicode="&#x167;" horiz-adv-x="282" 
d="M187 -12q-72 0 -103.5 34.5t-31.5 107.5v69h-41v87h41v60h-41v137h41v132h158v-132h56v-137h-56v-60h33v-87h-33v-35q0 -37 22 -37q17 0 23 8l25 -126q-33 -21 -93 -21z" />
    <glyph glyph-name="Utilde" unicode="&#x168;" horiz-adv-x="532" 
d="M266 -12q-92 0 -158.5 57.5t-66.5 167.5v454h177v-463q0 -62 48 -62t48 62v463h177v-453q0 -75 -34 -128t-83.5 -75.5t-107.5 -22.5zM314 721q-22 0 -39 13.5t-29.5 26.5t-22.5 13q-24 0 -24 -47h-74q0 61 26 97.5t71 36.5q22 0 39 -13.5t29.5 -27t22.5 -13.5q24 0 24 48
h74q0 -61 -26 -97.5t-71 -36.5z" />
    <glyph glyph-name="utilde" unicode="&#x169;" 
d="M427 0h-158v56q-15 -27 -50 -47.5t-70 -20.5q-114 0 -114 113v382h158v-319q0 -37 29 -37q15 0 27.5 13t19.5 32v311h158v-483zM277 554q-22 0 -39 13t-29.5 26.5t-22.5 13.5q-24 0 -24 -47h-74q0 61 26 97.5t71 36.5q21 0 38.5 -13.5t30 -27t22.5 -13.5q24 0 24 48h74
q0 -61 -26 -97.5t-71 -36.5z" />
    <glyph glyph-name="Umacron" unicode="&#x16a;" horiz-adv-x="532" 
d="M266 -12q-92 0 -158.5 57.5t-66.5 167.5v454h177v-463q0 -62 48 -62t48 62v463h177v-453q0 -75 -34 -128t-83.5 -75.5t-107.5 -22.5zM400 722h-268v87h268v-87z" />
    <glyph glyph-name="umacron" unicode="&#x16b;" 
d="M427 0h-158v56q-15 -27 -50 -47.5t-70 -20.5q-114 0 -114 113v382h158v-319q0 -37 29 -37q15 0 27.5 13t19.5 32v311h158v-483zM365 555h-268v87h268v-87z" />
    <glyph glyph-name="Ubreve" unicode="&#x16c;" horiz-adv-x="532" 
d="M266 -12q-92 0 -158.5 57.5t-66.5 167.5v454h177v-463q0 -62 48 -62t48 62v463h177v-453q0 -75 -34 -128t-83.5 -75.5t-107.5 -22.5zM396 770q-46 -65 -129 -65q-81 0 -129 65l70 52q21 -31 59 -31t59 31z" />
    <glyph glyph-name="ubreve" unicode="&#x16d;" 
d="M427 0h-158v56q-15 -27 -50 -47.5t-70 -20.5q-114 0 -114 113v382h158v-319q0 -37 29 -37q15 0 27.5 13t19.5 32v311h158v-483zM361 603q-46 -65 -129 -65q-81 0 -129 65l70 52q21 -31 59 -31t59 31z" />
    <glyph glyph-name="Uring" unicode="&#x16e;" horiz-adv-x="532" 
d="M267 687q-39 0 -67 28t-28 67q0 40 28 67.5t67 27.5t66 -27.5t27 -67.5q0 -39 -27 -67t-66 -28zM267 751q13 0 21.5 9t8.5 22q0 14 -8.5 23t-21.5 9t-22 -9.5t-9 -22.5t9 -22t22 -9zM266 -12q-92 0 -158.5 57.5t-66.5 167.5v454h177v-463q0 -62 48 -62t48 62v463h177
v-453q0 -75 -34 -128t-83.5 -75.5t-107.5 -22.5z" />
    <glyph glyph-name="uring" unicode="&#x16f;" 
d="M231 527q-39 0 -67 28t-28 67q0 40 28 67.5t67 27.5t66 -27.5t27 -67.5q0 -39 -27 -67t-66 -28zM231 591q13 0 21.5 9t8.5 22q0 14 -8.5 23t-21.5 9t-22 -9.5t-9 -22.5t9 -22t22 -9zM427 0h-158v56q-15 -27 -50 -47.5t-70 -20.5q-114 0 -114 113v382h158v-319
q0 -37 29 -37q15 0 27.5 13t19.5 32v311h158v-483z" />
    <glyph glyph-name="Uhungarumlaut" unicode="&#x170;" horiz-adv-x="532" 
d="M266 -12q-92 0 -158.5 57.5t-66.5 167.5v454h177v-463q0 -62 48 -62t48 62v463h177v-453q0 -75 -34 -128t-83.5 -75.5t-107.5 -22.5zM307 867l-84 -144h-79l51 144h112zM447 867l-84 -144h-79l51 144h112z" />
    <glyph glyph-name="uhungarumlaut" unicode="&#x171;" 
d="M427 0h-158v56q-15 -27 -50 -47.5t-70 -20.5q-114 0 -114 113v382h158v-319q0 -37 29 -37q15 0 27.5 13t19.5 32v311h158v-483zM272 700l-84 -144h-79l51 144h112zM412 700l-84 -144h-79l51 144h112z" />
    <glyph glyph-name="Uogonek" unicode="&#x172;" horiz-adv-x="532" 
d="M335 -101l59 -32q-25 -53 -81 -53q-42 0 -66.5 22t-24.5 66q0 47 27 87q-87 5 -147.5 62t-60.5 162v454h177v-463q0 -62 48 -62t48 62v463h177v-453q0 -85 -41 -139.5t-106 -74.5q-49 -37 -49 -92q0 -32 19 -32q14 0 21 23z" />
    <glyph glyph-name="uogonek" unicode="&#x173;" 
d="M427 0q-49 -37 -49 -92q0 -32 19 -32q14 0 21 23l59 -32q-25 -53 -81 -53q-42 0 -66.5 22t-24.5 66q0 54 36 98h-72v56q-15 -27 -50 -47.5t-70 -20.5q-114 0 -114 113v382h158v-319q0 -37 29 -37q15 0 27.5 13t19.5 32v311h158v-483z" />
    <glyph glyph-name="Wcircumflex" unicode="&#x174;" horiz-adv-x="684" 
d="M472 723h-84l-48 79l-44 -79h-84l59 144h138zM558 0h-176l-40 346l-41 -346h-175l-122 667h178l40 -362l53 362h134l54 -362l39 362h178z" />
    <glyph glyph-name="wcircumflex" unicode="&#x175;" horiz-adv-x="674" 
d="M468 556h-84l-48 79l-44 -79h-84l59 144h138zM560 0h-166l-57 269l-57 -269h-166l-117 483h162l51 -273l49 273h146l59 -273l50 273h163z" />
    <glyph glyph-name="Ycircumflex" unicode="&#x176;" horiz-adv-x="489" 
d="M375 723h-84l-48 79l-44 -79h-84l59 144h138zM333 0h-177v269l-163 398h186l65 -232l66 232h186l-163 -398v-269z" />
    <glyph glyph-name="ycircumflex" unicode="&#x177;" horiz-adv-x="435" 
d="M47 -188l22 136q8 -5 20 -5q32 0 39 24l8 24l-142 492h166l57 -284l58 284h166l-159 -547q-22 -76 -60.5 -104t-108.5 -28q-45 0 -66 8zM348 556h-84l-48 79l-44 -79h-84l59 144h138z" />
    <glyph glyph-name="Ydieresis" unicode="&#x178;" horiz-adv-x="489" 
d="M418 782q0 -34 -23.5 -57t-57.5 -23q-33 0 -56.5 23t-23.5 57t23.5 57t56.5 23q34 0 57.5 -23t23.5 -57zM232 782q0 -33 -23 -56.5t-57 -23.5q-33 0 -56.5 23.5t-23.5 56.5t23.5 56.5t56.5 23.5q34 0 57 -23.5t23 -56.5zM333 0h-177v269l-163 398h186l65 -232l66 232h186
l-163 -398v-269z" />
    <glyph glyph-name="Zacute" unicode="&#x179;" horiz-adv-x="412" 
d="M363 867l-112 -144h-97l80 144h129zM386 0h-360v147l153 366h-153v154h353v-141l-157 -372h164v-154z" />
    <glyph glyph-name="zacute" unicode="&#x17a;" horiz-adv-x="368" 
d="M341 700l-112 -144h-97l80 144h129zM349 0h-330v116l135 230h-135v137h326v-111l-137 -235h141v-137z" />
    <glyph glyph-name="Zdotaccent" unicode="&#x17b;" horiz-adv-x="412" 
d="M386 0h-360v147l153 366h-153v154h353v-141l-157 -372h164v-154zM204 703q-33 0 -56.5 23t-23.5 56t24 56.5t56 23.5q33 0 56.5 -23.5t23.5 -56.5t-23.5 -56t-56.5 -23z" />
    <glyph glyph-name="zdotaccent" unicode="&#x17c;" horiz-adv-x="368" 
d="M349 0h-330v116l135 230h-135v137h326v-111l-137 -235h141v-137zM182 536q-33 0 -56.5 23t-23.5 56t24 56.5t56 23.5q33 0 56.5 -23.5t23.5 -56.5t-23.5 -56t-56.5 -23z" />
    <glyph glyph-name="Zcaron" unicode="&#x17d;" horiz-adv-x="412" 
d="M276 723h-138l-62 144h84l47 -79l45 79h84zM386 0h-360v147l153 366h-153v154h353v-141l-157 -372h164v-154z" />
    <glyph glyph-name="zcaron" unicode="&#x17e;" horiz-adv-x="368" 
d="M251 556h-138l-62 144h84l47 -79l45 79h84zM349 0h-330v116l135 230h-135v137h326v-111l-137 -235h141v-137z" />
    <glyph glyph-name="longs" unicode="&#x17f;" horiz-adv-x="275" 
d="M210 0h-158v346h-41v137h41v19q0 175 157 175q63 0 99 -26l-33 -120q-13 13 -31 13q-34 0 -34 -42v-502z" />
    <glyph glyph-name="florin" unicode="&#x192;" horiz-adv-x="431" 
d="M184 -161h-179l85 391h-37v137h68l34 158q15 68 69.5 110t120.5 42q62 0 96 -22l-42 -142q-11 10 -28 10q-35 0 -45 -46l-24 -110h67v-137h-98z" />
    <glyph glyph-name="Ohorn" unicode="&#x1a0;" horiz-adv-x="522" 
d="M261 -12q-120 0 -181.5 93.5t-61.5 251.5t61.5 251.5t181.5 93.5q118 0 182 -94q24 22 30 46q-3 -3 -15 -3q-23 0 -38 16t-15 41q0 26 18 44.5t44 18.5q29 0 50 -22t21 -58q0 -77 -69 -133q35 -80 35 -201q0 -158 -61.5 -251.5t-181.5 -93.5zM261 144q63 0 63 189
t-63 189t-63 -189t63 -189z" />
    <glyph glyph-name="ohorn" unicode="&#x1a1;" horiz-adv-x="451" 
d="M449 533q0 -70 -59 -124q46 -67 46 -167q0 -108 -54.5 -181t-156.5 -73q-101 0 -155 73t-54 181t54 180.5t155 72.5q76 0 129 -45q25 25 30 46q-3 -3 -15 -3q-23 0 -38 16t-15 41q0 26 18 44.5t44 18.5q29 0 50 -22t21 -58zM225 127q49 0 49 115q0 114 -49 114
q-47 0 -47 -114q0 -115 47 -115z" />
    <glyph glyph-name="Uhorn" unicode="&#x1af;" horiz-adv-x="532" 
d="M588 726q0 -43 -24.5 -83.5t-72.5 -68.5v-360q0 -75 -34 -128t-83.5 -75.5t-107.5 -22.5q-92 0 -158.5 57.5t-66.5 167.5v454h177v-463q0 -62 48 -62t48 62v463h177v-27q24 22 32 48q-4 -2 -15 -2q-23 0 -38 15.5t-15 40.5q0 26 18.5 45t43.5 19q29 0 50 -22t21 -58z" />
    <glyph glyph-name="uhorn" unicode="&#x1b0;" 
d="M427 0h-158v56q-15 -27 -50 -47.5t-70 -20.5q-114 0 -114 113v382h158v-319q0 -37 29 -37q15 0 27.5 13t19.5 32v311h136q12 18 16 30q-4 -3 -16 -3q-23 0 -38 16t-15 41q0 26 18 44.5t44 18.5q30 0 50.5 -22t20.5 -58q0 -69 -58 -123v-427z" />
    <glyph glyph-name="AEacute" unicode="&#x1fc;" horiz-adv-x="659" 
d="M554 867l-112 -144h-97l80 144h129zM640 0h-335v93h-103l-26 -93h-180l232 667h412v-154h-159v-98h152v-154h-152v-107h159v-154zM305 247v228l-62 -228h62z" />
    <glyph glyph-name="aeacute" unicode="&#x1fd;" horiz-adv-x="680" 
d="M493 700l-112 -144h-97l80 144h129zM667 189h-256q2 -33 23 -53.5t61 -20.5q44 0 81 37l70 -90q-67 -74 -168 -74q-87 0 -139 69q-32 -34 -67 -51.5t-91 -17.5q-72 0 -119 41.5t-47 115.5t39 116t99 42q31 0 62.5 -14.5t45.5 -39.5v42q0 32 -19 51.5t-52 19.5
q-48 0 -101 -45l-54 110q32 34 84.5 51t94.5 17q91 0 127 -54q49 54 135 54q94 0 142.5 -69t48.5 -184v-53zM411 297h106q0 71 -52 71q-54 0 -54 -71zM261 159v9q-13 32 -50 32q-21 0 -33.5 -13t-12.5 -33q0 -46 46 -46q21 0 35.5 15.5t14.5 35.5z" />
    <glyph glyph-name="Oslashacute" unicode="&#x1fe;" horiz-adv-x="522" 
d="M418 867l-112 -144h-97l80 144h129zM261 -12q-71 0 -122 34l-12 -22h-95l46 84q-60 89 -60 249q0 158 61.5 251.5t181.5 93.5q71 0 122 -34l13 23h95l-47 -85q60 -89 60 -249q0 -158 -61.5 -251.5t-181.5 -93.5zM198 333v-28l103 188q-15 29 -40 29q-63 0 -63 -189z
M261 144q63 0 63 189q0 5 -0.5 14t-0.5 13l-102 -188q14 -28 40 -28z" />
    <glyph glyph-name="oslashacute" unicode="&#x1ff;" horiz-adv-x="451" 
d="M382 700l-112 -144h-97l80 144h129zM103 0h-82l45 66q-50 68 -50 176t54 180.5t155 72.5q62 0 111 -31l13 19h81l-45 -66q51 -69 51 -175q0 -108 -54.5 -181t-156.5 -73q-63 0 -110 30zM225 127q49 0 49 115v10l-76 -112q10 -13 27 -13zM178 242v-11l75 111
q-11 14 -28 14q-47 0 -47 -114z" />
    <glyph glyph-name="Scommaaccent" unicode="&#x218;" horiz-adv-x="437" 
d="M296 -139q0 -95 -89 -158l-50 40q20 10 40 32.5t26 43.5q-4 -3 -17 -3q-26 0 -43.5 17.5t-17.5 46.5q0 30 21.5 51t50.5 21q32 0 55.5 -25t23.5 -66zM205 -12q-125 0 -201 71l71 138q46 -53 118 -53q22 0 34.5 12t12.5 31q0 22 -22.5 40.5t-54 35.5t-63.5 40t-54.5 66
t-22.5 102q0 84 57.5 145.5t160.5 61.5q105 0 171 -61l-64 -136q-41 41 -100 41q-21 0 -33 -11.5t-12 -29.5t16 -34t40 -28.5t52 -31.5t52 -41.5t40 -60.5t16 -85q0 -95 -58.5 -153.5t-155.5 -58.5z" />
    <glyph glyph-name="scommaaccent" unicode="&#x219;" horiz-adv-x="382" 
d="M273 -139q0 -95 -89 -158l-50 40q20 10 40 32.5t26 43.5q-4 -3 -17 -3q-26 0 -43.5 17.5t-17.5 46.5q0 30 21.5 51t50.5 21q32 0 55.5 -25t23.5 -66zM186 -12q-121 0 -182 65l60 108q52 -50 107 -50q50 0 50 31q0 13 -20.5 22t-50 18t-58.5 24.5t-49.5 50t-20.5 84.5
q0 65 47 109.5t134 44.5q93 0 167 -60l-60 -106q-16 16 -44.5 29.5t-59.5 13.5q-17 0 -28 -7.5t-11 -18.5q0 -12 21 -20.5t51 -18.5t60 -26t51 -50.5t21 -83.5q0 -70 -51 -114.5t-134 -44.5z" />
    <glyph glyph-name="uni021A" unicode="&#x21a;" horiz-adv-x="406" 
d="M282 -139q0 -95 -89 -158l-50 40q20 10 40 32.5t26 43.5q-4 -3 -17 -3q-26 0 -43.5 17.5t-17.5 46.5q0 30 21.5 51t50.5 21q32 0 55.5 -25t23.5 -66zM292 0h-177v513h-97v154h370v-154h-96v-513z" />
    <glyph glyph-name="uni021B" unicode="&#x21b;" horiz-adv-x="282" 
d="M219 -139q0 -95 -89 -158l-50 40q20 10 40 32.5t26 43.5q-4 -3 -17 -3q-26 0 -43.5 17.5t-17.5 46.5q0 30 21.5 51t50.5 21q32 0 55.5 -25t23.5 -66zM187 -12q-72 0 -103.5 34.5t-31.5 107.5v216h-41v137h41v132h158v-132h56v-137h-56v-182q0 -37 22 -37q17 0 23 8
l25 -126q-33 -21 -93 -21z" />
    <glyph glyph-name="uni0237" unicode="&#x237;" horiz-adv-x="228" 
d="M17 -196q-39 0 -62 16l26 130q9 -7 23 -7q31 0 31 44v496h158v-496q0 -90 -40.5 -136.5t-135.5 -46.5z" />
    <glyph glyph-name="hsuperior" unicode="&#x2b0;" horiz-adv-x="333" 
d="M304 326h-111v201q0 24 -22 24q-17 0 -31 -27v-198h-111v434h111v-156q11 17 35 30.5t49 13.5q80 0 80 -78v-244z" />
    <glyph glyph-name="uni02BC" unicode="&#x2bc;" horiz-adv-x="273" 
d="M237 559q0 -124 -116 -205l-65 53q25 13 51 41t34 54q-12 -3 -23 -3q-33 0 -55.5 23.5t-22.5 60.5q0 39 27.5 66.5t65.5 27.5q43 0 73.5 -32t30.5 -86z" />
    <glyph glyph-name="circumflex" unicode="&#x2c6;" horiz-adv-x="260" 
d="M260 556h-84l-48 79l-44 -79h-84l59 144h138z" />
    <glyph glyph-name="caron" unicode="&#x2c7;" horiz-adv-x="260" 
d="M200 556h-138l-62 144h84l47 -79l45 79h84z" />
    <glyph glyph-name="uni02C9" unicode="&#x2c9;" horiz-adv-x="268" 
d="M268 591h-268v86h268v-86z" />
    <glyph glyph-name="uni02CB" unicode="&#x2cb;" horiz-adv-x="209" 
d="M209 556h-97l-112 144h129z" />
    <glyph glyph-name="breve" unicode="&#x2d8;" horiz-adv-x="258" 
d="M258 603q-46 -65 -129 -65q-81 0 -129 65l70 52q21 -31 59 -31t59 31z" />
    <glyph glyph-name="dotaccent" unicode="&#x2d9;" horiz-adv-x="210" 
d="M105 536q-33 0 -56.5 23t-23.5 56t24 56.5t56 23.5q33 0 56.5 -23.5t23.5 -56.5t-23.5 -56t-56.5 -23z" />
    <glyph glyph-name="ring" unicode="&#x2da;" horiz-adv-x="188" 
d="M95 527q-39 0 -67 28t-28 67q0 40 28 67.5t67 27.5t66 -27.5t27 -67.5q0 -39 -27 -67t-66 -28zM95 591q13 0 21.5 9t8.5 22q0 14 -8.5 23t-21.5 9t-22 -9.5t-9 -22.5t9 -22t22 -9z" />
    <glyph glyph-name="ogonek" unicode="&#x2db;" horiz-adv-x="172" 
d="M113 -101l59 -32q-25 -53 -81 -53q-42 0 -66.5 22t-24.5 66q0 72 70 132l52 -34q-49 -37 -49 -92q0 -32 19 -32q14 0 21 23z" />
    <glyph glyph-name="tilde" unicode="&#x2dc;" horiz-adv-x="286" 
d="M189 554q-22 0 -39 13t-29.5 26.5t-22.5 13.5q-24 0 -24 -47h-74q0 61 26 97.5t71 36.5q21 0 38.5 -13.5t30 -27t22.5 -13.5q24 0 24 48h74q0 -61 -26 -97.5t-71 -36.5z" />
    <glyph glyph-name="hungarumlaut" unicode="&#x2dd;" horiz-adv-x="303" 
d="M163 700l-84 -144h-79l51 144h112zM303 700l-84 -144h-79l51 144h112z" />
    <glyph glyph-name="hookabovecomb" unicode="&#x309;" horiz-adv-x="172" 
d="M69 722l-55 9q6 28 25.5 43.5t47.5 15.5q30 0 48.5 -18t18.5 -53q0 -26 -12 -52h-56q14 22 14 48t-16 26q-12 0 -15 -19z" />
    <glyph glyph-name="uni037E" unicode="&#x37e;" horiz-adv-x="270" 
d="M134 298q-39 0 -67 29t-28 68t28 67t67 28t67.5 -28t28.5 -67t-28.5 -68t-67.5 -29zM236 62q0 -123 -116 -205l-65 53q25 13 51 41t34 55q-8 -4 -23 -4q-33 0 -55.5 23.5t-22.5 60.5q0 39 27.5 66.5t65.5 27.5q43 0 73.5 -32t30.5 -86z" />
    <glyph glyph-name="tonos" unicode="&#x384;" horiz-adv-x="241" 
d="M178 546h-67l22 219h121z" />
    <glyph glyph-name="dieresistonos" unicode="&#x385;" 
d="M245 546h-66l21 219h122zM467 615q0 -34 -23.5 -57t-57.5 -23q-33 0 -56.5 23t-23.5 57t23.5 57t56.5 23q34 0 57.5 -23t23.5 -57zM155 615q0 -33 -23 -56.5t-56 -23.5t-56.5 23.5t-23.5 56.5t23.5 56.5t56.5 23.5t56 -23.5t23 -56.5z" />
    <glyph glyph-name="Alphatonos" unicode="&#x386;" horiz-adv-x="484" 
d="M73 546h-67l22 219h121zM490 0h-181l-14 93h-107l-13 -93h-181l146 667h203zM275 247l-33 228l-33 -228h66z" />
    <glyph glyph-name="Epsilontonos" unicode="&#x388;" horiz-adv-x="483" 
d="M65 546h-67l22 219h121zM455 0h-336v667h336v-154h-159v-98h152v-154h-152v-107h159v-154z" />
    <glyph glyph-name="Etatonos" unicode="&#x389;" horiz-adv-x="610" 
d="M65 546h-67l22 219h121zM568 0h-176v266h-96v-266h-177v667h177v-247h96v247h176v-667z" />
    <glyph glyph-name="Iotatonos" unicode="&#x38a;" horiz-adv-x="337" 
d="M65 546h-67l22 219h121zM296 0h-177v667h177v-667z" />
    <glyph glyph-name="Omicrontonos" unicode="&#x38c;" horiz-adv-x="557" 
d="M69 546h-67l22 219h121zM297 -12q-120 0 -181.5 93.5t-61.5 251.5t61.5 251.5t181.5 93.5t181.5 -93.5t61.5 -251.5t-61.5 -251.5t-181.5 -93.5zM297 144q63 0 63 189t-63 189t-63 -189t63 -189z" />
    <glyph glyph-name="Upsilontonos" unicode="&#x38e;" horiz-adv-x="612" 
d="M64 546h-67l22 219h121zM456 0h-177v269l-163 398h186l65 -232l66 232h186l-163 -398v-269z" />
    <glyph glyph-name="Omegatonos" unicode="&#x38f;" horiz-adv-x="562" 
d="M69 546h-67l22 219h121zM71 154h80q-91 84 -91 221q0 138 61.5 220.5t180.5 82.5q120 0 181.5 -82t61.5 -221q0 -135 -93 -221h82v-154h-208v154q19 19 29.5 75t10.5 104q0 188 -64 188q-63 0 -63 -188q0 -49 10.5 -104.5t28.5 -74.5v-154h-207v154z" />
    <glyph glyph-name="iotadieresistonos" unicode="&#x390;" horiz-adv-x="243" 
d="M136 546h-66l21 219h122zM358 615q0 -34 -23.5 -57t-57.5 -23q-33 0 -56.5 23t-23.5 57t23.5 57t56.5 23q34 0 57.5 -23t23.5 -57zM46 615q0 -33 -23 -56.5t-56 -23.5t-56.5 23.5t-23.5 56.5t23.5 56.5t56.5 23.5t56 -23.5t23 -56.5zM170 -12q-72 0 -103.5 34.5
t-31.5 107.5v353h158v-329q0 -27 22 -27q6 0 14 2l11 -131q-30 -10 -70 -10z" />
    <glyph glyph-name="Alpha" unicode="&#x391;" horiz-adv-x="484" 
d="M490 0h-181l-14 93h-107l-13 -93h-181l146 667h203zM275 247l-33 228l-33 -228h66z" />
    <glyph glyph-name="Beta" unicode="&#x392;" horiz-adv-x="502" 
d="M308 0h-267v667h258q90 0 133 -50t43 -120q0 -61 -30 -101t-79 -52q52 -8 85 -54t33 -109q0 -79 -43 -130t-133 -51zM249 415q46 0 46 49t-46 49h-31v-98h31zM253 154q51 0 51 54q0 53 -51 53h-35v-107h35z" />
    <glyph glyph-name="Gamma" unicode="&#x393;" horiz-adv-x="400" 
d="M218 0h-177v667h336v-154h-159v-513z" />
    <glyph glyph-name="uni0394" unicode="&#x394;" horiz-adv-x="490" 
d="M496 0h-502l149 667h203zM292 154l-47 321l-48 -321h95z" />
    <glyph glyph-name="Epsilon" unicode="&#x395;" horiz-adv-x="405" 
d="M377 0h-336v667h336v-154h-159v-98h152v-154h-152v-107h159v-154z" />
    <glyph glyph-name="Zeta" unicode="&#x396;" horiz-adv-x="412" 
d="M386 0h-360v147l153 366h-153v154h353v-141l-157 -372h164v-154z" />
    <glyph glyph-name="Eta" unicode="&#x397;" horiz-adv-x="532" 
d="M490 0h-176v266h-96v-266h-177v667h177v-247h96v247h176v-667z" />
    <glyph glyph-name="Theta" unicode="&#x398;" horiz-adv-x="522" 
d="M305 261h-88v154h88v-154zM261 -12q-120 0 -181.5 93.5t-61.5 251.5t61.5 251.5t181.5 93.5t181.5 -93.5t61.5 -251.5t-61.5 -251.5t-181.5 -93.5zM261 144q63 0 63 189t-63 189t-63 -189t63 -189z" />
    <glyph glyph-name="Iota" unicode="&#x399;" horiz-adv-x="259" 
d="M218 0h-177v667h177v-667z" />
    <glyph glyph-name="Kappa" unicode="&#x39a;" horiz-adv-x="524" 
d="M529 0h-198l-75 220l-38 -83v-137h-177v667h177v-270l108 270h192l-156 -311z" />
    <glyph glyph-name="Lambda" unicode="&#x39b;" horiz-adv-x="484" 
d="M490 0h-181l-67 475l-67 -475h-181l146 667h203z" />
    <glyph glyph-name="Mu" unicode="&#x39c;" horiz-adv-x="675" 
d="M633 0h-174v321l-94 -321h-55l-92 321v-321h-177v667h219l77 -268l81 268h215v-667z" />
    <glyph glyph-name="Nu" unicode="&#x39d;" horiz-adv-x="532" 
d="M490 0h-164l-108 277v-277h-177v667h177l96 -260v260h176v-667z" />
    <glyph glyph-name="Xi" unicode="&#x39e;" horiz-adv-x="426" 
d="M398 513h-370v154h370v-154zM398 0h-370v154h370v-154zM391 261h-356v154h356v-154z" />
    <glyph glyph-name="Omicron" unicode="&#x39f;" horiz-adv-x="522" 
d="M261 -12q-120 0 -181.5 93.5t-61.5 251.5t61.5 251.5t181.5 93.5t181.5 -93.5t61.5 -251.5t-61.5 -251.5t-181.5 -93.5zM261 144q63 0 63 189t-63 189t-63 -189t63 -189z" />
    <glyph glyph-name="Pi" unicode="&#x3a0;" horiz-adv-x="532" 
d="M490 0h-176v513h-96v-513h-177v667h449v-667z" />
    <glyph glyph-name="Rho" unicode="&#x3a1;" horiz-adv-x="496" 
d="M218 0h-177v667h223q106 0 161.5 -64t55.5 -159q0 -94 -55.5 -158t-161.5 -64h-46v-222zM244 376q27 0 42.5 18t15.5 51q0 32 -15.5 50t-42.5 18h-26v-137h26z" />
    <glyph glyph-name="Sigma" unicode="&#x3a3;" horiz-adv-x="399" 
d="M212 513l107 -172l-113 -187h168v-154h-346v161l109 182l-109 170v154h346v-154h-162z" />
    <glyph glyph-name="Tau" unicode="&#x3a4;" horiz-adv-x="406" 
d="M292 0h-177v513h-97v154h370v-154h-96v-513z" />
    <glyph glyph-name="Upsilon" unicode="&#x3a5;" horiz-adv-x="489" 
d="M333 0h-177v269l-163 398h186l65 -232l66 232h186l-163 -398v-269z" />
    <glyph glyph-name="Phi" unicode="&#x3a6;" horiz-adv-x="726" 
d="M451 0h-176v70q-128 18 -192.5 88t-64.5 175t64.5 175t192.5 88v71h176v-71q128 -18 192.5 -88t64.5 -175t-64.5 -175t-192.5 -88v-70zM529 333q0 77 -78 102v-204q78 24 78 102zM198 333q0 -79 77 -102v204q-77 -25 -77 -102z" />
    <glyph glyph-name="Chi" unicode="&#x3a7;" horiz-adv-x="509" 
d="M515 0h-194l-67 191l-66 -191h-194l158 341l-150 326h194l58 -180l58 180h194l-150 -325z" />
    <glyph glyph-name="Psi" unicode="&#x3a8;" horiz-adv-x="766" 
d="M471 0h-176v131q-111 18 -182.5 78t-71.5 159v299h179v-297q0 -64 75 -83v380h176v-380q75 21 75 83v297h179v-298q0 -100 -72 -160t-182 -78v-131z" />
    <glyph glyph-name="uni03A9" unicode="&#x3a9;" horiz-adv-x="519" 
d="M28 154h80q-91 84 -91 221q0 138 61.5 220.5t180.5 82.5q120 0 181.5 -82t61.5 -221q0 -135 -93 -221h82v-154h-208v154q19 19 29.5 75t10.5 104q0 188 -64 188q-63 0 -63 -188q0 -49 10.5 -104.5t28.5 -74.5v-154h-207v154z" />
    <glyph glyph-name="Iotadieresis" unicode="&#x3aa;" horiz-adv-x="259" 
d="M218 0h-177v667h177v-667zM303 799q0 -34 -23.5 -57t-57.5 -23q-33 0 -56.5 23t-23.5 57t23.5 57t56.5 23q34 0 57.5 -23t23.5 -57zM117 799q0 -33 -23 -56.5t-57 -23.5q-33 0 -56.5 23.5t-23.5 56.5t23.5 56.5t56.5 23.5q34 0 57 -23.5t23 -56.5z" />
    <glyph glyph-name="Upsilondieresis" unicode="&#x3ab;" horiz-adv-x="489" 
d="M333 0h-177v269l-163 398h186l65 -232l66 232h186l-163 -398v-269zM417 799q0 -34 -23.5 -57t-57.5 -23q-33 0 -56.5 23t-23.5 57t23.5 57t56.5 23q34 0 57.5 -23t23.5 -57zM231 799q0 -33 -23 -56.5t-57 -23.5q-33 0 -56.5 23.5t-23.5 56.5t23.5 56.5t56.5 23.5
q34 0 57 -23.5t23 -56.5z" />
    <glyph glyph-name="alphatonos" unicode="&#x3ac;" horiz-adv-x="477" 
d="M258 546h-67l22 219h121zM462 129l12 -131q-30 -10 -71 -10q-60 0 -87.5 21t-39.5 59q-13 -35 -42 -57.5t-63 -22.5q-74 0 -114.5 66t-40.5 188q0 119 40.5 186t114.5 67q30 0 57 -16.5t41 -49.5v54h157v-329q0 -27 22 -27q8 0 14 2zM227 127q26 0 42 36v158
q-16 34 -42 34q-50 0 -50 -113q0 -115 50 -115z" />
    <glyph glyph-name="epsilontonos" unicode="&#x3ad;" horiz-adv-x="405" 
d="M221 546h-67l22 219h121zM208 -12q-85 0 -139 40t-54 106q0 43 29.5 75.5t78.5 39.5q-42 6 -71.5 39t-29.5 72q0 66 54.5 100.5t150.5 34.5q100 0 169 -70l-70 -95q-39 39 -99 39q-55 0 -55 -33q0 -30 55 -30h83v-125h-90q-18 0 -28 -1.5t-19 -8.5t-9 -21q0 -36 52 -36
q76 0 115 42l70 -94q-66 -74 -193 -74z" />
    <glyph glyph-name="etatonos" unicode="&#x3ae;" 
d="M250 546h-67l22 219h121zM427 -184h-158v501q0 39 -29 39q-30 0 -47 -47v-309h-158v483h158v-58q14 27 50 48.5t70 21.5q59 0 86.5 -31t27.5 -84v-564z" />
    <glyph glyph-name="iotatonos" unicode="&#x3af;" horiz-adv-x="243" 
d="M141 546h-67l22 219h121zM170 -12q-72 0 -103.5 34.5t-31.5 107.5v353h158v-329q0 -27 22 -27q6 0 14 2l11 -131q-30 -10 -70 -10z" />
    <glyph glyph-name="upsilondieresistonos" unicode="&#x3b0;" horiz-adv-x="457" 
d="M243 546h-66l21 219h122zM465 615q0 -34 -23.5 -57t-57.5 -23q-33 0 -56.5 23t-23.5 57t23.5 57t56.5 23q34 0 57.5 -23t23.5 -57zM153 615q0 -33 -23 -56.5t-56 -23.5t-56.5 23.5t-23.5 56.5t23.5 56.5t56.5 23.5t56 -23.5t23 -56.5zM230 -12q-78 0 -136.5 49t-58.5 140
v306h158v-304q0 -52 38 -52q28 0 38.5 32.5t10.5 105.5q0 93 -38 180l149 50q51 -106 51 -230t-54 -200.5t-158 -76.5z" />
    <glyph glyph-name="alpha" unicode="&#x3b1;" horiz-adv-x="477" 
d="M462 129l12 -131q-30 -10 -71 -10q-60 0 -87.5 21t-39.5 59q-13 -35 -42 -57.5t-63 -22.5q-74 0 -114.5 66t-40.5 188q0 119 40.5 186t114.5 67q30 0 57 -16.5t41 -49.5v54h157v-329q0 -27 22 -27q8 0 14 2zM227 127q26 0 42 36v158q-16 34 -42 34q-50 0 -50 -113
q0 -115 50 -115z" />
    <glyph glyph-name="beta" unicode="&#x3b2;" horiz-adv-x="461" 
d="M193 457v-294q14 -36 42 -36q23 0 34.5 21t11.5 49q0 36 -12 52.5t-29 16.5h-15v140h7q37 0 37 66q0 65 -34 65q-42 0 -42 -80zM193 54v-238h-158v641q0 114 57.5 167t145.5 53q87 0 140.5 -47.5t53.5 -135.5q0 -56 -22.5 -96.5t-70.5 -53.5q51 -13 79 -59t28 -119
q0 -68 -41 -123t-113 -55q-68 0 -99 66z" />
    <glyph glyph-name="gamma" unicode="&#x3b3;" horiz-adv-x="435" 
d="M296 -184h-158v93q0 162 -42 312t-112 262h171q34 -77 52.5 -136.5t23.5 -133.5q34 111 34 270h158q0 -114 -37 -242t-90 -226v-199z" />
    <glyph glyph-name="delta" unicode="&#x3b4;" horiz-adv-x="451" 
d="M233 -12q-106 0 -161.5 65.5t-55.5 162.5q0 116 82 200q-44 44 -44 109t46.5 109.5t134.5 44.5q94 0 166 -60l-59 -106q-16 16 -44.5 29.5t-59.5 13.5q-17 0 -28 -7.5t-11 -18.5q0 -12 24.5 -26.5l59.5 -35.5t69.5 -51t59 -85t24.5 -125q0 -89 -51 -154t-152 -65z
M291 207q0 78 -72 128q-41 -51 -41 -118q0 -90 57 -90q28 0 42 23.5t14 56.5z" />
    <glyph glyph-name="epsilon" unicode="&#x3b5;" horiz-adv-x="405" 
d="M208 -12q-85 0 -139 40t-54 106q0 43 29.5 75.5t78.5 39.5q-42 6 -71.5 39t-29.5 72q0 66 54.5 100.5t150.5 34.5q100 0 169 -70l-70 -95q-39 39 -99 39q-55 0 -55 -33q0 -30 55 -30h83v-125h-90q-18 0 -28 -1.5t-19 -8.5t-9 -21q0 -36 52 -36q76 0 115 42l70 -94
q-66 -74 -193 -74z" />
    <glyph glyph-name="zeta" unicode="&#x3b6;" horiz-adv-x="371" 
d="M224 -36q0 24 -21 24q-77 0 -132 58.5t-55 145.5q0 199 177 338h-172v137h328v-111q-76 -67 -124 -159.5t-48 -171.5q0 -98 82 -98q99 0 99 -112q0 -69 -42 -172h-132q40 85 40 121z" />
    <glyph glyph-name="eta" unicode="&#x3b7;" 
d="M427 -184h-158v501q0 39 -29 39q-30 0 -47 -47v-309h-158v483h158v-58q14 27 50 48.5t70 21.5q59 0 86.5 -31t27.5 -84v-564z" />
    <glyph glyph-name="theta" unicode="&#x3b8;" horiz-adv-x="451" 
d="M225 -12q-68 0 -116.5 48t-70.5 124.5t-22 173.5q0 150 53.5 247.5t155.5 97.5q103 0 157 -97t54 -248q0 -150 -54 -248t-157 -98zM225 127q24 0 34.5 30.5t13.5 109.5h-94q2 -79 12.5 -109.5t33.5 -30.5zM225 540q-23 0 -33.5 -30.5t-12.5 -106.5h94q-3 76 -14 106.5
t-34 30.5z" />
    <glyph glyph-name="iota" unicode="&#x3b9;" horiz-adv-x="243" 
d="M170 -12q-72 0 -103.5 34.5t-31.5 107.5v353h158v-329q0 -27 22 -27q6 0 14 2l11 -131q-30 -10 -70 -10z" />
    <glyph glyph-name="kappa" unicode="&#x3ba;" horiz-adv-x="445" 
d="M450 0h-173l-51 166l-33 -64v-102h-158v483h158v-178l74 178h174l-108 -213z" />
    <glyph glyph-name="lambda" unicode="&#x3bb;" horiz-adv-x="435" 
d="M69 534l-22 137q21 8 66 8q70 0 108.5 -28t60.5 -104l159 -547h-166l-58 284l-57 -284h-166l142 492l-8 24q-7 24 -39 24q-13 0 -20 -6z" />
    <glyph glyph-name="uni03BC" unicode="&#x3bc;" horiz-adv-x="477" 
d="M193 -6v-178h-158v667h158v-319q0 -37 30 -37q15 0 27 13.5t19 31.5v311h158v-329q0 -27 22 -27q6 0 14 2l11 -131q-30 -10 -70 -10q-109 0 -129 88q-8 -39 -26 -63.5t-38 -24.5q-10 0 -18 6z" />
    <glyph glyph-name="nu" unicode="&#x3bd;" horiz-adv-x="435" 
d="M288 0h-154l-140 483h166l61 -306q44 131 44 306h158q0 -118 -39.5 -251.5t-95.5 -231.5z" />
    <glyph glyph-name="xi" unicode="&#x3be;" horiz-adv-x="371" 
d="M203 -12q-79 0 -133 47.5t-54 127.5q0 49 27 87.5t76 58.5q-47 8 -70.5 38t-23.5 68q0 33 21 65.5t58 49.5h-69v137h311v-137h-134q-34 -17 -34 -58q0 -67 70 -67h91v-137h-91q-28 0 -49.5 -18t-21.5 -54q0 -30 20 -49.5t62 -19.5q99 0 99 -112q0 -69 -42 -172h-132
q40 85 40 121q0 24 -21 24z" />
    <glyph glyph-name="omicron" unicode="&#x3bf;" horiz-adv-x="451" 
d="M225 -12q-101 0 -155 73t-54 181t54 180.5t155 72.5q102 0 156.5 -72.5t54.5 -180.5t-54.5 -181t-156.5 -73zM225 127q49 0 49 115q0 114 -49 114q-47 0 -47 -114q0 -115 47 -115z" />
    <glyph glyph-name="pi" unicode="&#x3c0;" horiz-adv-x="496" 
d="M444 0h-158v346h-76v-346h-158v346h-41v137h475v-137h-42v-346z" />
    <glyph glyph-name="rho" unicode="&#x3c1;" horiz-adv-x="461" 
d="M291 -12q-30 0 -57 16t-41 50v-238h-158v426q0 108 53 180.5t152 72.5t152.5 -72.5t53.5 -181.5q0 -118 -41 -185.5t-114 -67.5zM234 127q51 0 51 114q0 115 -47 115q-45 0 -45 -114v-81q14 -34 41 -34z" />
    <glyph glyph-name="sigma1" unicode="&#x3c2;" horiz-adv-x="370" 
d="M205 -12q-75 0 -132 72t-57 182q0 114 57 183.5t153 69.5q43 0 79.5 -12.5t55.5 -29.5l-45 -123q-31 26 -58 26q-37 0 -59 -31t-22 -83t22 -83.5t59 -31.5q99 0 99 -112q0 -69 -42 -172h-131q40 85 40 121q0 24 -19 24z" />
    <glyph glyph-name="sigma" unicode="&#x3c3;" horiz-adv-x="451" 
d="M427 209q0 -87 -51.5 -154t-150.5 -67q-96 0 -152.5 71t-56.5 183q0 102 56.5 171.5t166.5 69.5h197v-139h-55q46 -54 46 -135zM274 226q0 90 -24 118h-10q-36 0 -49 -26t-13 -76q0 -115 47 -115q49 0 49 99z" />
    <glyph glyph-name="tau" unicode="&#x3c4;" horiz-adv-x="342" 
d="M227 -12q-71 0 -102.5 34.5t-31.5 107.5v216h-78v137h312v-137h-77v-182q0 -37 22 -37q16 0 24 8l24 -126q-32 -21 -93 -21z" />
    <glyph glyph-name="upsilon" unicode="&#x3c5;" horiz-adv-x="457" 
d="M230 -12q-78 0 -136.5 49t-58.5 140v306h158v-304q0 -52 38 -52q28 0 38.5 32.5t10.5 105.5q0 93 -38 180l149 50q51 -106 51 -230t-54 -200.5t-158 -76.5z" />
    <glyph glyph-name="phi" unicode="&#x3c6;" horiz-adv-x="687" 
d="M672 242q0 -93 -64.5 -162t-184.5 -86v-178h-158v178q-122 17 -185.5 87t-63.5 167q0 162 161 247l72 -123q-71 -43 -71 -124q0 -91 87 -113v360h77q159 0 244.5 -72.5t85.5 -180.5zM510 242q0 44 -23 71t-64 35v-213q87 23 87 107z" />
    <glyph glyph-name="chi" unicode="&#x3c7;" horiz-adv-x="418" 
d="M423 -184h-167l-47 178l-49 -178h-166l116 335l-111 332h165l44 -177l45 177h165l-111 -332z" />
    <glyph glyph-name="psi" unicode="&#x3c8;" horiz-adv-x="688" 
d="M423 -184h-158v179q-100 16 -165 75.5t-65 158.5v254h157v-254q0 -73 73 -93v531h158v-531q72 22 72 93v254h157v-254q0 -99 -64.5 -158t-164.5 -76v-179z" />
    <glyph glyph-name="omega" unicode="&#x3c9;" horiz-adv-x="696" 
d="M681 242q0 -109 -49 -181.5t-135 -72.5q-56 0 -97 31.5t-51 90.5q-11 -58 -52.5 -90t-97.5 -32q-86 0 -134.5 72.5t-48.5 181.5q0 80 26 147.5t71 105.5l121 -82q-27 -25 -41.5 -75t-14.5 -99q0 -112 45 -112q46 0 46 115v121h158v-121q0 -115 46 -115t46 115
q0 46 -14.5 96t-41.5 75l121 82q45 -38 71 -105.5t26 -147.5z" />
    <glyph glyph-name="iotadieresis" unicode="&#x3ca;" horiz-adv-x="243" 
d="M295 615q0 -34 -23.5 -57t-57.5 -23q-33 0 -56.5 23t-23.5 57t23.5 57t56.5 23q34 0 57.5 -23t23.5 -57zM109 615q0 -33 -23 -56.5t-57 -23.5q-33 0 -56.5 23.5t-23.5 56.5t23.5 56.5t56.5 23.5q34 0 57 -23.5t23 -56.5zM170 -12q-72 0 -103.5 34.5t-31.5 107.5v353h158
v-329q0 -27 22 -27q6 0 14 2l11 -131q-30 -10 -70 -10z" />
    <glyph glyph-name="upsilondieresis" unicode="&#x3cb;" horiz-adv-x="457" 
d="M402 615q0 -34 -23.5 -57t-57.5 -23q-33 0 -56.5 23t-23.5 57t23.5 57t56.5 23q34 0 57.5 -23t23.5 -57zM216 615q0 -33 -23 -56.5t-57 -23.5q-33 0 -56.5 23.5t-23.5 56.5t23.5 56.5t56.5 23.5q34 0 57 -23.5t23 -56.5zM230 -12q-78 0 -136.5 49t-58.5 140v306h158v-304
q0 -52 38 -52q28 0 38.5 32.5t10.5 105.5q0 93 -38 180l149 50q51 -106 51 -230t-54 -200.5t-158 -76.5z" />
    <glyph glyph-name="omicrontonos" unicode="&#x3cc;" horiz-adv-x="451" 
d="M245 546h-67l22 219h121zM225 -12q-101 0 -155 73t-54 181t54 180.5t155 72.5q102 0 156.5 -72.5t54.5 -180.5t-54.5 -181t-156.5 -73zM225 127q49 0 49 115q0 114 -49 114q-47 0 -47 -114q0 -115 47 -115z" />
    <glyph glyph-name="upsilontonos" unicode="&#x3cd;" horiz-adv-x="457" 
d="M248 546h-67l22 219h121zM230 -12q-78 0 -136.5 49t-58.5 140v306h158v-304q0 -52 38 -52q28 0 38.5 32.5t10.5 105.5q0 93 -38 180l149 50q51 -106 51 -230t-54 -200.5t-158 -76.5z" />
    <glyph glyph-name="omegatonos" unicode="&#x3ce;" horiz-adv-x="696" 
d="M367 546h-67l22 219h121zM681 242q0 -109 -49 -181.5t-135 -72.5q-56 0 -97 31.5t-51 90.5q-11 -58 -52.5 -90t-97.5 -32q-86 0 -134.5 72.5t-48.5 181.5q0 80 26 147.5t71 105.5l121 -82q-27 -25 -41.5 -75t-14.5 -99q0 -112 45 -112q46 0 46 115v121h158v-121
q0 -115 46 -115t46 115q0 46 -14.5 96t-41.5 75l121 82q45 -38 71 -105.5t26 -147.5z" />
    <glyph glyph-name="afii10023" unicode="&#x401;" horiz-adv-x="405" 
d="M382 782q0 -34 -23.5 -57t-57.5 -23q-33 0 -56.5 23t-23.5 57t23.5 57t56.5 23q34 0 57.5 -23t23.5 -57zM196 782q0 -33 -23 -56.5t-57 -23.5q-33 0 -56.5 23.5t-23.5 56.5t23.5 56.5t56.5 23.5q34 0 57 -23.5t23 -56.5zM377 0h-336v667h336v-154h-159v-98h152v-154h-152
v-107h159v-154z" />
    <glyph glyph-name="afii10051" unicode="&#x402;" horiz-adv-x="520" 
d="M265 -12v156q25 0 36.5 15t11.5 50v13q0 33 -15.5 51t-42.5 18q-17 0 -37 -5v-286h-177v513h-97v154h370v-154h-96v-78q30 10 71 10q95 0 148 -64.5t53 -157.5v-14q0 -114 -61.5 -167.5t-163.5 -53.5z" />
    <glyph glyph-name="afii10052" unicode="&#x403;" horiz-adv-x="400" 
d="M366 867l-112 -144h-97l80 144h129zM218 0h-177v667h336v-154h-159v-513z" />
    <glyph glyph-name="afii10053" unicode="&#x404;" horiz-adv-x="467" 
d="M262 -12q-121 0 -182.5 93t-61.5 252t61.5 252t182.5 93q47 0 82.5 -16.5t57.5 -47.5t34 -58t23 -64l-139 -51q-8 41 -21 61t-37 20q-50 0 -61 -107h169v-154h-170q10 -117 62 -117q48 0 59 93l138 -50q-47 -199 -197 -199z" />
    <glyph glyph-name="afii10054" unicode="&#x405;" horiz-adv-x="437" 
d="M205 -12q-125 0 -201 71l71 138q46 -53 118 -53q22 0 34.5 12t12.5 31q0 22 -22.5 40.5t-54 35.5t-63.5 40t-54.5 66t-22.5 102q0 84 57.5 145.5t160.5 61.5q105 0 171 -61l-64 -136q-41 41 -100 41q-21 0 -33 -11.5t-12 -29.5t16 -34t40 -28.5t52 -31.5t52 -41.5
t40 -60.5t16 -85q0 -95 -58.5 -153.5t-155.5 -58.5z" />
    <glyph glyph-name="afii10055" unicode="&#x406;" horiz-adv-x="259" 
d="M218 0h-177v667h177v-667z" />
    <glyph glyph-name="afii10056" unicode="&#x407;" horiz-adv-x="259" 
d="M218 0h-177v667h177v-667zM303 782q0 -34 -23.5 -57t-57.5 -23q-33 0 -56.5 23t-23.5 57t23.5 57t56.5 23q34 0 57.5 -23t23.5 -57zM117 782q0 -33 -23 -56.5t-57 -23.5q-33 0 -56.5 23.5t-23.5 56.5t23.5 56.5t56.5 23.5q34 0 57 -23.5t23 -56.5z" />
    <glyph glyph-name="afii10057" unicode="&#x408;" horiz-adv-x="375" 
d="M121 -12q-71 0 -112 27l40 145q19 -16 50 -16q27 0 43.5 14.5t16.5 42.5v466h177v-475q0 -103 -57.5 -153.5t-157.5 -50.5z" />
    <glyph glyph-name="afii10058" unicode="&#x409;" horiz-adv-x="768" 
d="M11 -12v156q19 0 30.5 9t21.5 45t15 105l25 364h387v-222h46q106 0 161.5 -64t55.5 -158q0 -95 -55.5 -159t-161.5 -64h-223v513h-48l-11 -210q-4 -79 -19 -136.5t-36 -91.5t-52 -54t-62.5 -26.5t-73.5 -6.5zM516 291h-26v-137h26q27 0 42.5 18t15.5 50q0 33 -15.5 51
t-42.5 18z" />
    <glyph glyph-name="afii10059" unicode="&#x40a;" horiz-adv-x="768" 
d="M41 0v667h177v-247h95v247h177v-247h46q106 0 161.5 -60t55.5 -149q0 -90 -55.5 -150.5t-161.5 -60.5h-223v266h-95v-266h-177zM490 154h26q27 0 42.5 14.5t15.5 41.5t-15.5 41.5t-42.5 14.5h-26v-112z" />
    <glyph glyph-name="afii10060" unicode="&#x40b;" horiz-adv-x="520" 
d="M313 0v222q0 33 -15.5 51t-42.5 18q-17 0 -37 -5v-286h-177v513h-97v154h370v-154h-96v-78q30 10 71 10q95 0 148 -64.5t53 -157.5v-223h-177z" />
    <glyph glyph-name="afii10061" unicode="&#x40c;" horiz-adv-x="524" 
d="M422 867l-112 -144h-97l80 144h129zM529 0h-198l-75 220l-38 -83v-137h-177v667h177v-270l108 270h192l-156 -311z" />
    <glyph glyph-name="afii10062" unicode="&#x40e;" horiz-adv-x="489" 
d="M105 -12q-71 0 -112 27l40 145q19 -16 46 -16q34 0 55 54l16 43l-157 426h186l65 -227l64 228l188 -1l-176 -475q-42 -113 -84 -158.5t-131 -45.5zM373 770q-46 -65 -129 -65q-81 0 -129 65l70 52q21 -31 59 -31t59 31z" />
    <glyph glyph-name="afii10145" unicode="&#x40f;" horiz-adv-x="532" 
d="M41 0v667h177v-513h95v513h177v-667h-136v-128h-177v128h-136z" />
    <glyph glyph-name="afii10017" unicode="&#x410;" horiz-adv-x="484" 
d="M490 0h-181l-14 93h-107l-13 -93h-181l146 667h203zM275 247l-33 228l-33 -228h66z" />
    <glyph glyph-name="afii10018" unicode="&#x411;" horiz-adv-x="496" 
d="M41 667h401v-154h-224v-68h46q106 0 161.5 -64t55.5 -158q0 -95 -55.5 -159t-161.5 -64h-223v667zM244 291h-26v-137h26q27 0 42.5 18t15.5 50q0 33 -15.5 51t-42.5 18z" />
    <glyph glyph-name="afii10019" unicode="&#x412;" horiz-adv-x="502" 
d="M308 0h-267v667h258q90 0 133 -50t43 -120q0 -61 -30 -101t-79 -52q52 -8 85 -54t33 -109q0 -79 -43 -130t-133 -51zM249 415q46 0 46 49t-46 49h-31v-98h31zM253 154q51 0 51 54q0 53 -51 53h-35v-107h35z" />
    <glyph glyph-name="afii10020" unicode="&#x413;" horiz-adv-x="400" 
d="M218 0h-177v667h336v-154h-159v-513z" />
    <glyph glyph-name="afii10021" unicode="&#x414;" horiz-adv-x="543" 
d="M11 -123v267q20 3 31 11.5t21 43.5t15 104l25 364h387v-513h42v-277h-177v123h-167v-123h-177zM256 344q-7 -126 -52 -190h109v359h-48z" />
    <glyph glyph-name="afii10022" unicode="&#x415;" horiz-adv-x="405" 
d="M377 0h-336v667h336v-154h-159v-98h152v-154h-152v-107h159v-154z" />
    <glyph glyph-name="afii10024" unicode="&#x416;" horiz-adv-x="735" 
d="M193 0h-198l167 356l-156 311h192l81 -203v203h177v-203l81 203h192l-156 -311l167 -356h-198l-75 220l-11 -24v-196h-177v196l-11 24z" />
    <glyph glyph-name="afii10025" unicode="&#x417;" horiz-adv-x="490" 
d="M241 -12q-75 0 -135.5 29t-93.5 77l114 106q43 -56 103 -56q35 0 51 16.5t16 40.5q0 30 -21.5 44t-51.5 14h-80v155h70q74 0 74 54q0 53 -63 53q-64 0 -95 -50l-109 96q78 110 221 110q101 0 163 -46.5t62 -136.5q0 -53 -34.5 -97t-84.5 -53q58 -10 93.5 -54.5
t35.5 -103.5q0 -89 -66 -143.5t-169 -54.5z" />
    <glyph glyph-name="afii10026" unicode="&#x418;" horiz-adv-x="532" 
d="M205 0h-164v667h176v-260l96 260h177v-667h-177v277z" />
    <glyph glyph-name="afii10027" unicode="&#x419;" horiz-adv-x="532" 
d="M205 0h-164v667h176v-260l96 260h177v-667h-177v277zM395 770q-46 -65 -129 -65q-81 0 -129 65l70 52q21 -31 59 -31t59 31z" />
    <glyph glyph-name="afii10028" unicode="&#x41a;" horiz-adv-x="524" 
d="M529 0h-198l-75 220l-38 -83v-137h-177v667h177v-270l108 270h192l-156 -311z" />
    <glyph glyph-name="afii10029" unicode="&#x41b;" horiz-adv-x="532" 
d="M11 -12v156q19 0 30.5 9t21.5 45t15 105l25 364h387v-667h-177v513h-48l-11 -210q-4 -79 -19 -136.5t-36 -91.5t-52 -54t-62.5 -26.5t-73.5 -6.5z" />
    <glyph glyph-name="afii10030" unicode="&#x41c;" horiz-adv-x="675" 
d="M633 0h-174v321l-94 -321h-55l-92 321v-321h-177v667h219l77 -268l81 268h215v-667z" />
    <glyph glyph-name="afii10031" unicode="&#x41d;" horiz-adv-x="532" 
d="M490 0h-176v266h-96v-266h-177v667h177v-247h96v247h176v-667z" />
    <glyph glyph-name="afii10032" unicode="&#x41e;" horiz-adv-x="522" 
d="M261 -12q-120 0 -181.5 93.5t-61.5 251.5t61.5 251.5t181.5 93.5t181.5 -93.5t61.5 -251.5t-61.5 -251.5t-181.5 -93.5zM261 144q63 0 63 189t-63 189t-63 -189t63 -189z" />
    <glyph glyph-name="afii10033" unicode="&#x41f;" horiz-adv-x="532" 
d="M490 0h-176v513h-96v-513h-177v667h449v-667z" />
    <glyph glyph-name="afii10034" unicode="&#x420;" horiz-adv-x="496" 
d="M218 0h-177v667h223q106 0 161.5 -64t55.5 -159q0 -94 -55.5 -158t-161.5 -64h-46v-222zM244 376q27 0 42.5 18t15.5 51q0 32 -15.5 50t-42.5 18h-26v-137h26z" />
    <glyph glyph-name="afii10035" unicode="&#x421;" horiz-adv-x="467" 
d="M262 -12q-121 0 -182.5 93t-61.5 252t61.5 252t182.5 93q47 0 82.5 -16.5t57.5 -47.5t34 -58t23 -64l-139 -51q-8 41 -21 61t-37 20q-64 0 -64 -189t64 -189q48 0 59 93l138 -50q-47 -199 -197 -199z" />
    <glyph glyph-name="afii10036" unicode="&#x422;" horiz-adv-x="406" 
d="M292 0h-177v513h-97v154h370v-154h-96v-513z" />
    <glyph glyph-name="afii10037" unicode="&#x423;" horiz-adv-x="489" 
d="M105 -12q-71 0 -112 27l40 145q19 -16 46 -16q34 0 55 54l16 43l-157 426h186l65 -227l64 228l188 -1l-176 -475q-42 -113 -84 -158.5t-131 -45.5z" />
    <glyph glyph-name="afii10038" unicode="&#x424;" horiz-adv-x="726" 
d="M451 0h-176v70q-128 18 -192.5 88t-64.5 175t64.5 175t192.5 88v71h176v-71q128 -18 192.5 -88t64.5 -175t-64.5 -175t-192.5 -88v-70zM529 333q0 77 -78 102v-204q78 24 78 102zM198 333q0 -79 77 -102v204q-77 -25 -77 -102z" />
    <glyph glyph-name="afii10039" unicode="&#x425;" horiz-adv-x="509" 
d="M515 0h-194l-67 191l-66 -191h-194l158 341l-150 326h194l58 -180l58 180h194l-150 -325z" />
    <glyph glyph-name="afii10040" unicode="&#x426;" horiz-adv-x="543" 
d="M355 -123v123h-314v667h177v-513h95v513h177v-513h42v-277h-177z" />
    <glyph glyph-name="afii10041" unicode="&#x427;" horiz-adv-x="520" 
d="M207 667v-222q0 -33 15.5 -51t42.5 -18q17 0 37 5v286h177v-667h-177v232q-30 -10 -71 -10q-95 0 -148 64.5t-53 157.5v223h177z" />
    <glyph glyph-name="afii10042" unicode="&#x428;" horiz-adv-x="775" 
d="M556 667h177v-667h-691v667h177v-513h80v513h177v-513h80v513z" />
    <glyph glyph-name="afii10043" unicode="&#x429;" horiz-adv-x="785" 
d="M556 667h177v-513h41v-277h-177v123h-555v667h177v-513h80v513h177v-513h80v513z" />
    <glyph glyph-name="afii10044" unicode="&#x42a;" horiz-adv-x="570" 
d="M338 0h-223v513h-97v154h274v-222h46q106 0 161.5 -64t55.5 -158q0 -95 -55.5 -159t-161.5 -64zM318 291h-26v-137h26q27 0 42.5 18t15.5 50q0 33 -15.5 51t-42.5 18z" />
    <glyph glyph-name="afii10045" unicode="&#x42b;" horiz-adv-x="730" 
d="M41 667h177v-222h46q106 0 161.5 -64t55.5 -158q0 -95 -55.5 -159t-161.5 -64h-223v667zM244 291h-26v-137h26q27 0 42.5 18t15.5 50q0 33 -15.5 51t-42.5 18zM689 0h-177v667h177v-667z" />
    <glyph glyph-name="afii10046" unicode="&#x42c;" horiz-adv-x="496" 
d="M41 667h177v-222h46q106 0 161.5 -64t55.5 -158q0 -95 -55.5 -159t-161.5 -64h-223v667zM244 291h-26v-137h26q27 0 42.5 18t15.5 50q0 33 -15.5 51t-42.5 18z" />
    <glyph glyph-name="afii10047" unicode="&#x42d;" horiz-adv-x="467" 
d="M205 -12q-150 0 -197 199l138 50q11 -93 59 -93q51 0 61 117h-169v154h168q-11 107 -60 107q-24 0 -37 -20t-21 -61l-139 51q11 37 23 64t34 58t57.5 47.5t82.5 16.5q121 0 182.5 -93t61.5 -252t-61.5 -252t-182.5 -93z" />
    <glyph glyph-name="afii10048" unicode="&#x42e;" horiz-adv-x="779" 
d="M518 -12q-107 0 -167.5 74.5t-72.5 203.5h-59v-266h-178v667h178v-247h61q16 121 75.5 189.5t162.5 68.5q120 0 181.5 -93.5t61.5 -251.5t-61.5 -251.5t-181.5 -93.5zM518 144q63 0 63 189t-63 189t-63 -189t63 -189z" />
    <glyph glyph-name="afii10049" unicode="&#x42f;" horiz-adv-x="510" 
d="M212 0h-189l85 265q-79 58 -79 186q0 92 59 154t149 62h232v-667h-177v222h-23zM266 376h26v137h-26q-27 0 -42.5 -18t-15.5 -51q0 -32 15.5 -50t42.5 -18z" />
    <glyph glyph-name="afii10065" unicode="&#x430;" horiz-adv-x="453" 
d="M418 0h-157v47q-14 -26 -46 -42.5t-62 -16.5q-60 0 -99 43t-39 117t39 114.5t99 40.5q31 0 63 -14.5t45 -39.5v42q0 33 -19 52t-52 19q-48 0 -101 -45l-54 110q32 34 86.5 51t104.5 17q86 0 139 -41.5t53 -122.5v-331zM214 91q35 0 47 31v46q-13 32 -47 32q-43 0 -43 -54
q0 -55 43 -55z" />
    <glyph glyph-name="afii10066" unicode="&#x431;" horiz-adv-x="450" 
d="M224 127q49 0 49 116q0 113 -49 113q-47 0 -47 -113q0 -116 47 -116zM225 -12q-107 0 -158.5 74.5t-51.5 201.5q0 183 44.5 265.5t162.5 106.5q44 9 44 31h154q0 -105 -147 -135q-61 -13 -88.5 -31.5t-40.5 -52.5q46 47 116 47q87 0 131 -72t44 -180q0 -109 -53 -182
t-157 -73z" />
    <glyph glyph-name="afii10067" unicode="&#x432;" horiz-adv-x="454" 
d="M288 0h-253v483h245q78 0 115 -36t37 -88q0 -41 -24 -70t-63 -40q43 -8 68.5 -40.5t25.5 -76.5q0 -58 -36.5 -95t-114.5 -37zM249 124q30 0 30 29q0 13 -8.5 21.5t-21.5 8.5h-56v-59h56zM245 307q27 0 27 26t-27 26h-52v-52h52z" />
    <glyph glyph-name="afii10068" unicode="&#x433;" horiz-adv-x="338" 
d="M327 483v-137h-134v-346h-158v483h292z" />
    <glyph glyph-name="afii10069" unicode="&#x434;" horiz-adv-x="478" 
d="M14 -123v244q43 11 52 123l19 239h342v-346h42v-260h-158v123h-139v-123h-158zM232 346l-7 -90q-7 -81 -35 -119h79v209h-37z" />
    <glyph glyph-name="afii10070" unicode="&#x435;" horiz-adv-x="435" 
d="M233 -12q-101 0 -159 69t-58 185q0 110 55.5 181.5t153.5 71.5t147.5 -67.5t49.5 -182.5v-55h-255q1 -32 22 -53.5t62 -21.5q44 0 81 37l69 -90q-32 -36 -77 -55t-91 -19zM273 297q0 71 -53 71t-53 -71h106z" />
    <glyph glyph-name="afii10072" unicode="&#x436;" horiz-adv-x="612" 
d="M168 0h-173l117 270l-108 213h174l49 -118v118h158v-118l49 118h174l-108 -213l117 -270h-173l-51 166l-8 -16v-150h-158v150l-8 16z" />
    <glyph glyph-name="afii10073" unicode="&#x437;" horiz-adv-x="405" 
d="M197 -12q-127 0 -193 74l70 94q39 -42 115 -42q52 0 52 36q0 20 -14 25.5t-42 5.5h-90v125h83q55 0 55 30q0 33 -55 33q-60 0 -99 -39l-70 95q69 70 169 70q96 0 150.5 -34.5t54.5 -100.5q0 -39 -29.5 -72t-71.5 -39q49 -7 78.5 -39.5t29.5 -75.5q0 -66 -54 -106
t-139 -40z" />
    <glyph glyph-name="afii10074" unicode="&#x438;" 
d="M185 0h-150v483h158v-182l72 182h161v-483h-158v198z" />
    <glyph glyph-name="afii10075" unicode="&#x439;" 
d="M185 0h-150v483h158v-182l72 182h161v-483h-158v198zM360 603q-46 -65 -129 -65q-81 0 -129 65l70 52q21 -31 59 -31t59 31z" />
    <glyph glyph-name="afii10076" unicode="&#x43a;" horiz-adv-x="445" 
d="M450 0h-173l-51 166l-33 -64v-102h-158v483h158v-178l74 178h174l-108 -213z" />
    <glyph glyph-name="afii10077" unicode="&#x43b;" 
d="M14 -12v133q12 0 20.5 6.5t18 35.5t13.5 81l19 239h342v-483h-158v346h-37l-9 -118q-11 -138 -56.5 -189t-152.5 -51z" />
    <glyph glyph-name="afii10078" unicode="&#x43c;" horiz-adv-x="581" 
d="M546 0h-155v219l-72 -219h-56l-70 219v-219h-158v483h191l65 -203l69 203h186v-483z" />
    <glyph glyph-name="afii10079" unicode="&#x43d;" 
d="M193 0h-158v483h158v-162h76v162h158v-483h-158v184h-76v-184z" />
    <glyph glyph-name="afii10080" unicode="&#x43e;" horiz-adv-x="451" 
d="M225 -12q-101 0 -155 73t-54 181t54 180.5t155 72.5q102 0 156.5 -72.5t54.5 -180.5t-54.5 -181t-156.5 -73zM225 127q49 0 49 115q0 114 -49 114q-47 0 -47 -114q0 -115 47 -115z" />
    <glyph glyph-name="afii10081" unicode="&#x43f;" 
d="M427 0h-158v346h-76v-346h-158v483h392v-483z" />
    <glyph glyph-name="afii10082" unicode="&#x440;" horiz-adv-x="461" 
d="M291 -12q-30 0 -57 16t-41 50v-238h-158v667h158v-54q31 66 98 66q74 0 114.5 -66t40.5 -188q0 -118 -41 -185.5t-114 -67.5zM234 127q51 0 51 114q0 115 -51 115q-28 0 -41 -33v-162q14 -34 41 -34z" />
    <glyph glyph-name="afii10083" unicode="&#x441;" horiz-adv-x="371" 
d="M226 -12q-95 0 -152.5 70t-57.5 184t57 183.5t153 69.5q43 0 79.5 -12.5t55.5 -29.5l-45 -123q-31 26 -58 26q-37 0 -59 -31t-22 -83t22 -83.5t59 -31.5q29 0 58 26l45 -123q-44 -42 -135 -42z" />
    <glyph glyph-name="afii10084" unicode="&#x442;" horiz-adv-x="329" 
d="M244 0h-158v346h-75v137h307v-137h-74v-346z" />
    <glyph glyph-name="afii10085" unicode="&#x443;" horiz-adv-x="435" 
d="M47 -188l22 136q8 -5 20 -5q32 0 39 24l8 24l-142 492h166l57 -284l58 284h166l-159 -547q-22 -76 -60.5 -104t-108.5 -28q-45 0 -66 8z" />
    <glyph glyph-name="afii10086" unicode="&#x444;" horiz-adv-x="672" 
d="M163 495q29 0 55 -16t39 -50v238h158v-238q29 66 94 66q70 0 109 -66t39 -188q0 -118 -39 -185.5t-109 -67.5q-29 0 -55 16t-39 50v-238h-158v238q-29 -66 -94 -66q-70 0 -109 66t-39 188q0 118 39 185.5t109 67.5zM220 356q-47 0 -47 -114q0 -115 47 -115q25 0 37 33
v162q-12 34 -37 34zM452 127q47 0 47 114q0 115 -47 115q-25 0 -37 -33v-162q12 -34 37 -34z" />
    <glyph glyph-name="afii10087" unicode="&#x445;" horiz-adv-x="418" 
d="M423 0h-167l-47 129l-48 -129h-167l116 242l-111 241h165l44 -127l44 127h166l-111 -241z" />
    <glyph glyph-name="afii10088" unicode="&#x446;" horiz-adv-x="478" 
d="M311 -123v123h-276v483h158v-346h76v346h158v-346h42v-260h-158z" />
    <glyph glyph-name="afii10089" unicode="&#x447;" 
d="M35 483h158v-180q0 -35 29 -35q28 0 47 12v203h158v-483h-158v159q-36 -30 -107 -30q-127 0 -127 115v239z" />
    <glyph glyph-name="afii10090" unicode="&#x448;" horiz-adv-x="676" 
d="M483 483h158v-483h-606v483h158v-346h66v346h158v-346h66v346z" />
    <glyph glyph-name="afii10091" unicode="&#x449;" horiz-adv-x="692" 
d="M483 483h158v-346h42v-260h-158v123h-490v483h158v-346h66v346h158v-346h66v346z" />
    <glyph glyph-name="afii10092" unicode="&#x44a;" horiz-adv-x="505" 
d="M299 0h-213v346h-75v137h233v-153h55q94 0 142.5 -46.5t48.5 -118.5q0 -71 -49 -118t-142 -47zM285 206h-41v-82h41q21 0 33 11.5t12 29.5q0 17 -12 29t-33 12z" />
    <glyph glyph-name="afii10093" unicode="&#x44b;" horiz-adv-x="674" 
d="M35 483h158v-153h55q94 0 142.5 -46.5t48.5 -118.5q0 -71 -49 -118t-142 -47h-213v483zM234 206h-41v-82h41q21 0 33 11.5t12 29.5q0 17 -12 29t-33 12zM639 0h-158v483h158v-483z" />
    <glyph glyph-name="afii10094" unicode="&#x44c;" horiz-adv-x="454" 
d="M35 483h158v-153h55q94 0 142.5 -46.5t48.5 -118.5q0 -71 -49 -118t-142 -47h-213v483zM234 206h-41v-82h41q21 0 33 11.5t12 29.5q0 17 -12 29t-33 12z" />
    <glyph glyph-name="afii10095" unicode="&#x44d;" horiz-adv-x="371" 
d="M145 -12q-91 0 -135 42l44 109q27 -24 63 -24q64 0 82 75h-126v107h125q-18 71 -81 71q-34 0 -63 -25l-44 110q19 17 55.5 29.5t79.5 12.5q96 0 153 -69.5t57 -183.5t-57.5 -184t-152.5 -70z" />
    <glyph glyph-name="afii10096" unicode="&#x44e;" horiz-adv-x="665" 
d="M439 -12q-87 0 -139 54.5t-66 141.5h-41v-184h-158v483h158v-162h45q17 78 68.5 126t132.5 48q102 0 156.5 -72.5t54.5 -180.5t-54.5 -181t-156.5 -73zM439 127q49 0 49 115q0 114 -49 114q-47 0 -47 -114q0 -115 47 -115z" />
    <glyph glyph-name="afii10097" unicode="&#x44f;" 
d="M183 0h-167l71 187q-64 40 -64 133q0 70 50.5 116.5t140.5 46.5h213v-483h-158v154h-44zM228 278h41v81h-41q-21 0 -33 -11.5t-12 -29.5t12 -29t33 -11z" />
    <glyph glyph-name="afii10071" unicode="&#x451;" horiz-adv-x="435" 
d="M399 615q0 -34 -23.5 -57t-57.5 -23q-33 0 -56.5 23t-23.5 57t23.5 57t56.5 23q34 0 57.5 -23t23.5 -57zM213 615q0 -33 -23 -56.5t-57 -23.5q-33 0 -56.5 23.5t-23.5 56.5t23.5 56.5t56.5 23.5q34 0 57 -23.5t23 -56.5zM233 -12q-101 0 -159 69t-58 185
q0 110 55.5 181.5t153.5 71.5t147.5 -67.5t49.5 -182.5v-55h-255q1 -32 22 -53.5t62 -21.5q44 0 81 37l69 -90q-32 -36 -77 -55t-91 -19zM273 297q0 71 -53 71t-53 -71h106z" />
    <glyph glyph-name="afii10099" unicode="&#x452;" horiz-adv-x="471" 
d="M319 524h-117v-99q14 27 50 48.5t70 21.5q114 0 114 -113v-395q0 -183 -164 -183q-43 0 -74 16l26 124q9 -7 23 -7q31 0 31 50v332q0 37 -29 37q-30 0 -47 -47v-309h-158v524h-33v87h33v56h158v-56h117v-87z" />
    <glyph glyph-name="afii10100" unicode="&#x453;" horiz-adv-x="338" 
d="M338 700l-112 -144h-97l80 144h129zM327 483v-137h-134v-346h-158v483h292z" />
    <glyph glyph-name="afii10101" unicode="&#x454;" horiz-adv-x="371" 
d="M226 -12q-95 0 -152.5 70t-57.5 184t57 183.5t153 69.5q43 0 79.5 -12.5t55.5 -29.5l-44 -110q-29 25 -63 25q-63 0 -81 -71h125v-107h-126q16 -75 82 -75q36 0 63 24l44 -109q-44 -42 -135 -42z" />
    <glyph glyph-name="afii10102" unicode="&#x455;" horiz-adv-x="382" 
d="M186 -12q-121 0 -182 65l60 108q52 -50 107 -50q50 0 50 31q0 13 -20.5 22t-50 18t-58.5 24.5t-49.5 50t-20.5 84.5q0 65 47 109.5t134 44.5q93 0 167 -60l-60 -106q-16 16 -44.5 29.5t-59.5 13.5q-17 0 -28 -7.5t-11 -18.5q0 -12 21 -20.5t51 -18.5t60 -26t51 -50.5
t21 -83.5q0 -70 -51 -114.5t-134 -44.5z" />
    <glyph glyph-name="afii10103" unicode="&#x456;" horiz-adv-x="228" 
d="M114 525q-38 0 -64 26.5t-26 63.5q0 38 26.5 64.5t63.5 26.5t63.5 -26.5t26.5 -64.5q0 -37 -26 -63.5t-64 -26.5zM193 0h-158v483h158v-483z" />
    <glyph glyph-name="afii10104" unicode="&#x457;" horiz-adv-x="228" 
d="M287 615q0 -34 -23.5 -57t-57.5 -23q-33 0 -56.5 23t-23.5 57t23.5 57t56.5 23q34 0 57.5 -23t23.5 -57zM101 615q0 -33 -23 -56.5t-57 -23.5q-33 0 -56.5 23.5t-23.5 56.5t23.5 56.5t56.5 23.5q34 0 57 -23.5t23 -56.5zM193 0h-158v483h158v-483z" />
    <glyph glyph-name="afii10105" unicode="&#x458;" horiz-adv-x="228" 
d="M114 525q-38 0 -64 26.5t-26 63.5q0 38 26.5 64.5t63.5 26.5t63.5 -26.5t26.5 -64.5q0 -37 -26 -63.5t-64 -26.5zM29 -196q-43 0 -74 16l26 124q9 -7 23 -7q31 0 31 50v496h158v-496q0 -183 -164 -183z" />
    <glyph glyph-name="afii10106" unicode="&#x459;" horiz-adv-x="688" 
d="M14 -12v133q12 0 20.5 6.5t18 35.5t13.5 81l19 239h342v-153h55q94 0 142.5 -46.5t48.5 -118.5q0 -71 -49 -118t-142 -47h-213v346h-37l-9 -118q-11 -138 -56.5 -189t-152.5 -51zM468 206h-41v-82h41q21 0 33 11.5t12 29.5q0 17 -12 29t-33 12z" />
    <glyph glyph-name="afii10107" unicode="&#x45a;" horiz-adv-x="665" 
d="M193 0h-158v483h158v-162h76v162h158v-162h55q94 0 142.5 -45.5t48.5 -115.5q0 -68 -49 -114t-142 -46h-213v184h-76v-184zM479 184h-52v-60h52q16 0 25 8.5t9 21.5t-9 21.5t-25 8.5z" />
    <glyph glyph-name="afii10108" unicode="&#x45b;" horiz-adv-x="471" 
d="M319 524h-117v-99q14 27 50 48.5t70 21.5q114 0 114 -113v-382h-158v319q0 37 -29 37q-30 0 -47 -47v-309h-158v524h-33v87h33v56h158v-56h117v-87z" />
    <glyph glyph-name="afii10109" unicode="&#x45c;" horiz-adv-x="445" 
d="M381 700l-112 -144h-97l80 144h129zM450 0h-173l-51 166l-33 -64v-102h-158v483h158v-178l74 178h174l-108 -213z" />
    <glyph glyph-name="afii10110" unicode="&#x45e;" horiz-adv-x="435" 
d="M47 -188l22 136q8 -5 20 -5q32 0 39 24l8 24l-142 492h166l57 -284l58 284h166l-159 -547q-22 -76 -60.5 -104t-108.5 -28q-45 0 -66 8zM346 603q-46 -65 -129 -65q-81 0 -129 65l70 52q21 -31 59 -31t59 31z" />
    <glyph glyph-name="afii10193" unicode="&#x45f;" 
d="M152 -122v122h-117v483h158v-346h76v346h158v-483h-117v-122h-158z" />
    <glyph glyph-name="afii10050" unicode="&#x490;" horiz-adv-x="400" 
d="M218 513v-513h-177v667h159v123h177v-277h-159z" />
    <glyph glyph-name="afii10098" unicode="&#x491;" horiz-adv-x="338" 
d="M193 346v-346h-158v483h134v122h158v-259h-134z" />
    <glyph glyph-name="uni1E02" unicode="&#x1e02;" horiz-adv-x="502" 
d="M308 0h-267v667h258q90 0 133 -50t43 -120q0 -61 -30 -101t-79 -52q52 -8 85 -54t33 -109q0 -79 -43 -130t-133 -51zM249 415q46 0 46 49t-46 49h-31v-98h31zM253 154q51 0 51 54q0 53 -51 53h-35v-107h35zM251 703q-33 0 -56.5 23t-23.5 56t24 56.5t56 23.5
q33 0 56.5 -23.5t23.5 -56.5t-23.5 -56t-56.5 -23z" />
    <glyph glyph-name="uni1E03" unicode="&#x1e03;" horiz-adv-x="461" 
d="M193 163q14 -36 41 -36q51 0 51 115q0 114 -51 114q-27 0 -41 -35v-158zM193 0h-158v667h158v-238q14 33 41 49.5t57 16.5q73 0 114 -67.5t41 -185.5q0 -122 -40.5 -188t-114.5 -66q-67 0 -98 66v-54zM235 703q-33 0 -56.5 23t-23.5 56t24 56.5t56 23.5q33 0 56.5 -23.5
t23.5 -56.5t-23.5 -56t-56.5 -23z" />
    <glyph glyph-name="uni1E0A" unicode="&#x1e0a;" horiz-adv-x="524" 
d="M248 0h-207v667h206q130 0 194.5 -92.5t64.5 -241.5q0 -151 -63.5 -242t-194.5 -91zM247 154q79 0 79 179q0 180 -79 180h-29v-359h29zM261 703q-33 0 -56.5 23t-23.5 56t24 56.5t56 23.5q33 0 56.5 -23.5t23.5 -56.5t-23.5 -56t-56.5 -23z" />
    <glyph glyph-name="uni1E0B" unicode="&#x1e0b;" horiz-adv-x="461" 
d="M426 0h-157v54q-32 -66 -98 -66q-74 0 -114.5 66t-40.5 188q0 119 40.5 186t114.5 67q30 0 57 -16.5t41 -49.5v238h157v-667zM227 127q26 0 42 36v159q-16 34 -42 34q-50 0 -50 -114q0 -115 50 -115zM229 703q-33 0 -56.5 23t-23.5 56t24 56.5t56 23.5q33 0 56.5 -23.5
t23.5 -56.5t-23.5 -56t-56.5 -23z" />
    <glyph glyph-name="uni1E1E" unicode="&#x1e1e;" horiz-adv-x="400" 
d="M210 703q-33 0 -56.5 23t-23.5 56t24 56.5t56 23.5q33 0 56.5 -23.5t23.5 -56.5t-23.5 -56t-56.5 -23zM218 0h-177v667h336v-154h-159v-98h152v-154h-152v-261z" />
    <glyph glyph-name="uni1E1F" unicode="&#x1e1f;" horiz-adv-x="275" 
d="M206 703q-33 0 -56.5 23t-23.5 56t24 56.5t56 23.5q33 0 56.5 -23.5t23.5 -56.5t-23.5 -56t-56.5 -23zM210 0h-158v346h-41v137h41v19q0 175 157 175q63 0 99 -26l-33 -120q-13 13 -31 13q-34 0 -34 -42v-19h56v-137h-56v-346z" />
    <glyph glyph-name="uni1E22" unicode="&#x1e22;" horiz-adv-x="532" 
d="M490 0h-176v266h-96v-266h-177v667h177v-247h96v247h176v-667zM265 703q-33 0 -56.5 23t-23.5 56t24 56.5t56 23.5q33 0 56.5 -23.5t23.5 -56.5t-23.5 -56t-56.5 -23z" />
    <glyph glyph-name="uni1E23" unicode="&#x1e23;" 
d="M427 0h-158v319q0 37 -29 37q-30 0 -47 -47v-309h-158v667h158v-242q14 27 50 48.5t70 21.5q114 0 114 -113v-382zM231 703q-33 0 -56.5 23t-23.5 56t24 56.5t56 23.5q33 0 56.5 -23.5t23.5 -56.5t-23.5 -56t-56.5 -23z" />
    <glyph glyph-name="uni1E56" unicode="&#x1e56;" horiz-adv-x="496" 
d="M218 0h-177v667h223q106 0 161.5 -64t55.5 -159q0 -94 -55.5 -158t-161.5 -64h-46v-222zM244 376q27 0 42.5 18t15.5 51q0 32 -15.5 50t-42.5 18h-26v-137h26zM248 703q-33 0 -56.5 23t-23.5 56t24 56.5t56 23.5q33 0 56.5 -23.5t23.5 -56.5t-23.5 -56t-56.5 -23z" />
    <glyph glyph-name="uni1E57" unicode="&#x1e57;" horiz-adv-x="461" 
d="M291 -12q-30 0 -57 16t-41 50v-238h-158v667h158v-54q31 66 98 66q74 0 114.5 -66t40.5 -188q0 -118 -41 -185.5t-114 -67.5zM234 127q51 0 51 114q0 115 -51 115q-28 0 -41 -33v-162q14 -34 41 -34zM236 536q-33 0 -56.5 23t-23.5 56t24 56.5t56 23.5q33 0 56.5 -23.5
t23.5 -56.5t-23.5 -56t-56.5 -23z" />
    <glyph glyph-name="uni1E60" unicode="&#x1e60;" horiz-adv-x="437" 
d="M205 -12q-125 0 -201 71l71 138q46 -53 118 -53q22 0 34.5 12t12.5 31q0 22 -22.5 40.5t-54 35.5t-63.5 40t-54.5 66t-22.5 102q0 84 57.5 145.5t160.5 61.5q105 0 171 -61l-64 -136q-41 41 -100 41q-21 0 -33 -11.5t-12 -29.5t16 -34t40 -28.5t52 -31.5t52 -41.5
t40 -60.5t16 -85q0 -95 -58.5 -153.5t-155.5 -58.5zM218 703q-33 0 -56.5 23t-23.5 56t24 56.5t56 23.5q33 0 56.5 -23.5t23.5 -56.5t-23.5 -56t-56.5 -23z" />
    <glyph glyph-name="uni1E61" unicode="&#x1e61;" horiz-adv-x="382" 
d="M186 -12q-121 0 -182 65l60 108q52 -50 107 -50q50 0 50 31q0 13 -20.5 22t-50 18t-58.5 24.5t-49.5 50t-20.5 84.5q0 65 47 109.5t134 44.5q93 0 167 -60l-60 -106q-16 16 -44.5 29.5t-59.5 13.5q-17 0 -28 -7.5t-11 -18.5q0 -12 21 -20.5t51 -18.5t60 -26t51 -50.5
t21 -83.5q0 -70 -51 -114.5t-134 -44.5zM190 536q-33 0 -56.5 23t-23.5 56t24 56.5t56 23.5q33 0 56.5 -23.5t23.5 -56.5t-23.5 -56t-56.5 -23z" />
    <glyph glyph-name="uni1E6A" unicode="&#x1e6a;" horiz-adv-x="406" 
d="M292 0h-177v513h-97v154h370v-154h-96v-513zM203 703q-33 0 -56.5 23t-23.5 56t24 56.5t56 23.5q33 0 56.5 -23.5t23.5 -56.5t-23.5 -56t-56.5 -23z" />
    <glyph glyph-name="uni1E6B" unicode="&#x1e6b;" horiz-adv-x="282" 
d="M187 -12q-72 0 -103.5 34.5t-31.5 107.5v216h-41v137h41v132h158v-132h56v-137h-56v-182q0 -37 22 -37q17 0 23 8l25 -126q-33 -21 -93 -21zM134 703q-33 0 -56.5 23t-23.5 56t24 56.5t56 23.5q33 0 56.5 -23.5t23.5 -56.5t-23.5 -56t-56.5 -23z" />
    <glyph glyph-name="Wgrave" unicode="&#x1e80;" horiz-adv-x="684" 
d="M558 0h-176l-40 346l-41 -346h-175l-122 667h178l40 -362l53 362h134l54 -362l39 362h178zM394 723h-97l-112 144h129z" />
    <glyph glyph-name="wgrave" unicode="&#x1e81;" horiz-adv-x="674" 
d="M560 0h-166l-57 269l-57 -269h-166l-117 483h162l51 -273l49 273h146l59 -273l50 273h163zM389 556h-97l-112 144h129z" />
    <glyph glyph-name="Wacute" unicode="&#x1e82;" horiz-adv-x="684" 
d="M499 867l-112 -144h-97l80 144h129zM558 0h-176l-40 346l-41 -346h-175l-122 667h178l40 -362l53 362h134l54 -362l39 362h178z" />
    <glyph glyph-name="wacute" unicode="&#x1e83;" horiz-adv-x="674" 
d="M494 700l-112 -144h-97l80 144h129zM560 0h-166l-57 269l-57 -269h-166l-117 483h162l51 -273l49 273h146l59 -273l50 273h163z" />
    <glyph glyph-name="Wdieresis" unicode="&#x1e84;" horiz-adv-x="684" 
d="M514 782q0 -34 -23.5 -57t-57.5 -23q-33 0 -56.5 23t-23.5 57t23.5 57t56.5 23q34 0 57.5 -23t23.5 -57zM328 782q0 -33 -23 -56.5t-57 -23.5q-33 0 -56.5 23.5t-23.5 56.5t23.5 56.5t56.5 23.5q34 0 57 -23.5t23 -56.5zM558 0h-176l-40 346l-41 -346h-175l-122 667h178
l40 -362l53 362h134l54 -362l39 362h178z" />
    <glyph glyph-name="wdieresis" unicode="&#x1e85;" horiz-adv-x="674" 
d="M510 615q0 -34 -23.5 -57t-57.5 -23q-33 0 -56.5 23t-23.5 57t23.5 57t56.5 23q34 0 57.5 -23t23.5 -57zM324 615q0 -33 -23 -56.5t-57 -23.5q-33 0 -56.5 23.5t-23.5 56.5t23.5 56.5t56.5 23.5q34 0 57 -23.5t23 -56.5zM560 0h-166l-57 269l-57 -269h-166l-117 483h162
l51 -273l49 273h146l59 -273l50 273h163z" />
    <glyph glyph-name="uni1EA0" unicode="&#x1ea0;" horiz-adv-x="484" 
d="M490 0h-181l-14 93h-107l-13 -93h-181l146 667h203zM275 247l-33 228l-33 -228h66zM243 -203q-33 0 -56.5 23t-23.5 56t24 56.5t56 23.5q33 0 56.5 -23.5t23.5 -56.5t-23.5 -56t-56.5 -23z" />
    <glyph glyph-name="uni1EA1" unicode="&#x1ea1;" horiz-adv-x="453" 
d="M418 0h-157v47q-14 -26 -46 -42.5t-62 -16.5q-60 0 -99 43t-39 117t39 114.5t99 40.5q31 0 63 -14.5t45 -39.5v42q0 33 -19 52t-52 19q-48 0 -101 -45l-54 110q32 34 86.5 51t104.5 17q86 0 139 -41.5t53 -122.5v-331zM214 91q35 0 47 31v46q-13 32 -47 32q-43 0 -43 -54
q0 -55 43 -55zM230 -203q-33 0 -56.5 23t-23.5 56t24 56.5t56 23.5q33 0 56.5 -23.5t23.5 -56.5t-23.5 -56t-56.5 -23z" />
    <glyph glyph-name="uni1EA2" unicode="&#x1ea2;" horiz-adv-x="484" 
d="M490 0h-181l-14 93h-107l-13 -93h-181l146 667h203zM275 247l-33 228l-33 -228h66zM227 752l-55 9q6 28 25.5 43.5t47.5 15.5q30 0 48.5 -18t18.5 -53q0 -26 -12 -52h-56q14 22 14 48t-16 26q-12 0 -15 -19z" />
    <glyph glyph-name="uni1EA3" unicode="&#x1ea3;" horiz-adv-x="453" 
d="M418 0h-157v47q-14 -26 -46 -42.5t-62 -16.5q-60 0 -99 43t-39 117t39 114.5t99 40.5q31 0 63 -14.5t45 -39.5v42q0 33 -19 52t-52 19q-48 0 -101 -45l-54 110q32 34 86.5 51t104.5 17q86 0 139 -41.5t53 -122.5v-331zM214 91q35 0 47 31v46q-13 32 -47 32q-43 0 -43 -54
q0 -55 43 -55zM211 582l-55 9q6 28 25.5 43.5t47.5 15.5q30 0 48.5 -18t18.5 -53q0 -26 -12 -52h-56q14 22 14 48t-16 26q-12 0 -15 -19z" />
    <glyph glyph-name="uni1EA4" unicode="&#x1ea4;" horiz-adv-x="484" 
d="M373 682h-84l-48 59l-44 -59h-84l59 108h138zM490 0h-181l-14 93h-107l-13 -93h-181l146 667h203zM275 247l-33 228l-33 -228h66zM558 843l-112 -108h-97l80 108h129z" />
    <glyph glyph-name="uni1EA5" unicode="&#x1ea5;" horiz-adv-x="453" 
d="M418 0h-157v47q-14 -26 -46 -42.5t-62 -16.5q-60 0 -99 43t-39 117t39 114.5t99 40.5q31 0 63 -14.5t45 -39.5v42q0 33 -19 52t-52 19q-48 0 -101 -45l-54 110q32 34 86.5 51t104.5 17q86 0 139 -41.5t53 -122.5v-331zM214 91q35 0 47 31v46q-13 32 -47 32q-43 0 -43 -54
q0 -55 43 -55zM361 556h-84l-48 79l-44 -79h-84l59 144h138zM542 770l-112 -144h-97l80 144h129z" />
    <glyph glyph-name="uni1EA6" unicode="&#x1ea6;" horiz-adv-x="484" 
d="M373 682h-84l-48 59l-44 -59h-84l59 108h138zM490 0h-181l-14 93h-107l-13 -93h-181l146 667h203zM275 247l-33 228l-33 -228h66zM136 735h-97l-112 108h129z" />
    <glyph glyph-name="uni1EA7" unicode="&#x1ea7;" horiz-adv-x="453" 
d="M418 0h-157v47q-14 -26 -46 -42.5t-62 -16.5q-60 0 -99 43t-39 117t39 114.5t99 40.5q31 0 63 -14.5t45 -39.5v42q0 33 -19 52t-52 19q-48 0 -101 -45l-54 110q32 34 86.5 51t104.5 17q86 0 139 -41.5t53 -122.5v-331zM214 91q35 0 47 31v46q-13 32 -47 32q-43 0 -43 -54
q0 -55 43 -55zM361 556h-84l-48 79l-44 -79h-84l59 144h138zM121 626h-97l-112 144h129z" />
    <glyph glyph-name="uni1EA8" unicode="&#x1ea8;" horiz-adv-x="484" 
d="M373 682h-84l-48 59l-44 -59h-84l59 108h138zM490 0h-181l-14 93h-107l-13 -93h-181l146 667h203zM275 247l-33 228l-33 -228h66zM382 786l-55 7q12 44 73 44q67 0 67 -53q0 -19 -12 -39h-56q14 17 14 36q0 20 -16 20q-12 0 -15 -15z" />
    <glyph glyph-name="uni1EA9" unicode="&#x1ea9;" horiz-adv-x="453" 
d="M418 0h-157v47q-14 -26 -46 -42.5t-62 -16.5q-60 0 -99 43t-39 117t39 114.5t99 40.5q31 0 63 -14.5t45 -39.5v42q0 33 -19 52t-52 19q-48 0 -101 -45l-54 110q32 34 86.5 51t104.5 17q86 0 139 -41.5t53 -122.5v-331zM214 91q35 0 47 31v46q-13 32 -47 32q-43 0 -43 -54
q0 -55 43 -55zM361 556h-84l-48 79l-44 -79h-84l59 144h138zM317 722l-55 9q6 28 25.5 43.5t47.5 15.5q30 0 48.5 -18t18.5 -53q0 -26 -12 -52h-56q14 22 14 48t-16 26q-12 0 -15 -19z" />
    <glyph glyph-name="uni1EAA" unicode="&#x1eaa;" horiz-adv-x="484" 
d="M373 678h-84l-48 39l-44 -39h-84l59 72h138zM490 0h-181l-14 93h-107l-13 -93h-181l146 667h203zM275 247l-33 228l-33 -228h66zM287 757q-28 0 -54.5 13t-36.5 13q-24 0 -24 -23h-74q0 30 26 48.5t71 18.5q28 0 54.5 -13.5t36.5 -13.5q24 0 24 24h74q0 -30 -26 -48.5
t-71 -18.5z" />
    <glyph glyph-name="uni1EAB" unicode="&#x1eab;" horiz-adv-x="453" 
d="M418 0h-157v47q-14 -26 -46 -42.5t-62 -16.5q-60 0 -99 43t-39 117t39 114.5t99 40.5q31 0 63 -14.5t45 -39.5v42q0 33 -19 52t-52 19q-48 0 -101 -45l-54 110q32 34 86.5 51t104.5 17q86 0 139 -41.5t53 -122.5v-331zM214 91q35 0 47 31v46q-13 32 -47 32q-43 0 -43 -54
q0 -55 43 -55zM361 523h-84l-48 79l-44 -79h-84l59 144h138zM273 682q-22 0 -39 13t-29.5 26.5t-22.5 13.5q-24 0 -24 -47h-74q0 61 26 97.5t71 36.5q21 0 38.5 -13.5t30 -27t22.5 -13.5q24 0 24 48h74q0 -61 -26 -97.5t-71 -36.5z" />
    <glyph glyph-name="uni1EAC" unicode="&#x1eac;" horiz-adv-x="484" 
d="M490 0h-181l-14 93h-107l-13 -93h-181l146 667h203zM275 247l-33 228l-33 -228h66zM372 723h-84l-48 79l-44 -79h-84l59 144h138zM243 -203q-33 0 -56.5 23t-23.5 56t24 56.5t56 23.5q33 0 56.5 -23.5t23.5 -56.5t-23.5 -56t-56.5 -23z" />
    <glyph glyph-name="uni1EAD" unicode="&#x1ead;" horiz-adv-x="453" 
d="M418 0h-157v47q-14 -26 -46 -42.5t-62 -16.5q-60 0 -99 43t-39 117t39 114.5t99 40.5q31 0 63 -14.5t45 -39.5v42q0 33 -19 52t-52 19q-48 0 -101 -45l-54 110q32 34 86.5 51t104.5 17q86 0 139 -41.5t53 -122.5v-331zM214 91q35 0 47 31v46q-13 32 -47 32q-43 0 -43 -54
q0 -55 43 -55zM357 556h-84l-48 79l-44 -79h-84l59 144h138zM230 -203q-33 0 -56.5 23t-23.5 56t24 56.5t56 23.5q33 0 56.5 -23.5t23.5 -56.5t-23.5 -56t-56.5 -23z" />
    <glyph glyph-name="uni1EAE" unicode="&#x1eae;" horiz-adv-x="484" 
d="M490 0h-181l-14 93h-107l-13 -93h-181l146 667h203zM275 247l-33 228l-33 -228h66zM397 828l-112 -77h-97l80 77h129zM370 719q-46 -38 -129 -38q-81 0 -129 38l70 30q21 -18 59 -18t59 18z" />
    <glyph glyph-name="uni1EAF" unicode="&#x1eaf;" horiz-adv-x="453" 
d="M418 0h-157v47q-14 -26 -46 -42.5t-62 -16.5q-60 0 -99 43t-39 117t39 114.5t99 40.5q31 0 63 -14.5t45 -39.5v42q0 33 -19 52t-52 19q-48 0 -101 -45l-54 110q32 34 86.5 51t104.5 17q86 0 139 -41.5t53 -122.5v-331zM214 91q35 0 47 31v46q-13 32 -47 32q-43 0 -43 -54
q0 -55 43 -55zM382 787l-112 -144h-97l80 144h129zM356 579q-46 -65 -129 -65q-81 0 -129 65l70 52q21 -31 59 -31t59 31z" />
    <glyph glyph-name="uni1EB0" unicode="&#x1eb0;" horiz-adv-x="484" 
d="M490 0h-181l-14 93h-107l-13 -93h-181l146 667h203zM275 247l-33 228l-33 -228h66zM297 751h-97l-112 77h129zM370 718q-46 -38 -129 -38q-81 0 -129 38l70 30q21 -18 59 -18t59 18z" />
    <glyph glyph-name="uni1EB1" unicode="&#x1eb1;" horiz-adv-x="453" 
d="M418 0h-157v47q-14 -26 -46 -42.5t-62 -16.5q-60 0 -99 43t-39 117t39 114.5t99 40.5q31 0 63 -14.5t45 -39.5v42q0 33 -19 52t-52 19q-48 0 -101 -45l-54 110q32 34 86.5 51t104.5 17q86 0 139 -41.5t53 -122.5v-331zM214 91q35 0 47 31v46q-13 32 -47 32q-43 0 -43 -54
q0 -55 43 -55zM281 643h-97l-112 144h129zM356 579q-46 -65 -129 -65q-81 0 -129 65l70 52q21 -31 59 -31t59 31z" />
    <glyph glyph-name="uni1EB2" unicode="&#x1eb2;" horiz-adv-x="484" 
d="M490 0h-181l-14 93h-107l-13 -93h-181l146 667h203zM275 247l-33 228l-33 -228h66zM228 780l-55 5q13 32 73 32q67 0 67 -39q0 -13 -12 -27h-56q14 11 14 25t-16 14q-12 0 -15 -10zM370 718q-46 -38 -129 -38q-81 0 -129 38l70 30q21 -18 59 -18t59 18z" />
    <glyph glyph-name="uni1EB3" unicode="&#x1eb3;" horiz-adv-x="453" 
d="M418 0h-157v47q-14 -26 -46 -42.5t-62 -16.5q-60 0 -99 43t-39 117t39 114.5t99 40.5q31 0 63 -14.5t45 -39.5v42q0 33 -19 52t-52 19q-48 0 -101 -45l-54 110q32 34 86.5 51t104.5 17q86 0 139 -41.5t53 -122.5v-331zM214 91q35 0 47 31v46q-13 32 -47 32q-43 0 -43 -54
q0 -55 43 -55zM212 699l-55 9q6 28 25.5 43.5t47.5 15.5q30 0 48.5 -18t18.5 -53q0 -26 -12 -52h-56q14 22 14 48t-16 26q-12 0 -15 -19zM356 579q-46 -65 -129 -65q-81 0 -129 65l70 52q21 -31 59 -31t59 31z" />
    <glyph glyph-name="uni1EB4" unicode="&#x1eb4;" horiz-adv-x="484" 
d="M490 0h-181l-14 93h-107l-13 -93h-181l146 667h203zM275 247l-33 228l-33 -228h66zM372 717q-46 -35 -129 -35q-81 0 -129 35l70 28q22 -17 59 -17t59 17zM287 757q-28 0 -54.5 13t-36.5 13q-24 0 -24 -23h-74q0 30 26 48.5t71 18.5q28 0 54.5 -13.5t36.5 -13.5
q24 0 24 24h74q0 -30 -26 -48.5t-71 -18.5z" />
    <glyph glyph-name="uni1EB5" unicode="&#x1eb5;" horiz-adv-x="453" 
d="M418 0h-157v47q-14 -26 -46 -42.5t-62 -16.5q-60 0 -99 43t-39 117t39 114.5t99 40.5q31 0 63 -14.5t45 -39.5v42q0 33 -19 52t-52 19q-48 0 -101 -45l-54 110q32 34 86.5 51t104.5 17q86 0 139 -41.5t53 -122.5v-331zM214 91q35 0 47 31v46q-13 32 -47 32q-43 0 -43 -54
q0 -55 43 -55zM356 579q-46 -65 -129 -65q-81 0 -129 65l70 52q21 -31 59 -31t59 31zM274 650q-22 0 -39 13t-29.5 26.5t-22.5 13.5q-24 0 -24 -47h-74q0 61 26 97.5t71 36.5q22 0 39 -13.5t29.5 -27t22.5 -13.5q24 0 24 48h74q0 -61 -26 -97.5t-71 -36.5z" />
    <glyph glyph-name="uni1EB6" unicode="&#x1eb6;" horiz-adv-x="484" 
d="M490 0h-181l-14 93h-107l-13 -93h-181l146 667h203zM275 247l-33 228l-33 -228h66zM243 -203q-33 0 -56.5 23t-23.5 56t24 56.5t56 23.5q33 0 56.5 -23.5t23.5 -56.5t-23.5 -56t-56.5 -23zM370 770q-46 -65 -129 -65q-81 0 -129 65l70 52q21 -31 59 -31t59 31z" />
    <glyph glyph-name="uni1EB7" unicode="&#x1eb7;" horiz-adv-x="453" 
d="M418 0h-157v47q-14 -26 -46 -42.5t-62 -16.5q-60 0 -99 43t-39 117t39 114.5t99 40.5q31 0 63 -14.5t45 -39.5v42q0 33 -19 52t-52 19q-48 0 -101 -45l-54 110q32 34 86.5 51t104.5 17q86 0 139 -41.5t53 -122.5v-331zM214 91q35 0 47 31v46q-13 32 -47 32q-43 0 -43 -54
q0 -55 43 -55zM230 -203q-33 0 -56.5 23t-23.5 56t24 56.5t56 23.5q33 0 56.5 -23.5t23.5 -56.5t-23.5 -56t-56.5 -23zM356 603q-46 -65 -129 -65q-81 0 -129 65l70 52q21 -31 59 -31t59 31z" />
    <glyph glyph-name="uni1EB8" unicode="&#x1eb8;" horiz-adv-x="405" 
d="M377 0h-336v667h336v-154h-159v-98h152v-154h-152v-107h159v-154zM213 -203q-33 0 -56.5 23t-23.5 56t24 56.5t56 23.5q33 0 56.5 -23.5t23.5 -56.5t-23.5 -56t-56.5 -23z" />
    <glyph glyph-name="uni1EB9" unicode="&#x1eb9;" horiz-adv-x="435" 
d="M233 -12q-101 0 -159 69t-58 185q0 110 55.5 181.5t153.5 71.5t147.5 -67.5t49.5 -182.5v-55h-255q1 -32 22 -53.5t62 -21.5q44 0 81 37l69 -90q-32 -36 -77 -55t-91 -19zM273 297q0 71 -53 71t-53 -71h106zM224 -203q-33 0 -56.5 23t-23.5 56t24 56.5t56 23.5
q33 0 56.5 -23.5t23.5 -56.5t-23.5 -56t-56.5 -23z" />
    <glyph glyph-name="uni1EBA" unicode="&#x1eba;" horiz-adv-x="405" 
d="M377 0h-336v667h336v-154h-159v-98h152v-154h-152v-107h159v-154zM187 752l-55 9q6 28 25.5 43.5t47.5 15.5q30 0 48.5 -18t18.5 -53q0 -26 -12 -52h-56q14 22 14 48t-16 26q-12 0 -15 -19z" />
    <glyph glyph-name="uni1EBB" unicode="&#x1ebb;" horiz-adv-x="435" 
d="M233 -12q-101 0 -159 69t-58 185q0 110 55.5 181.5t153.5 71.5t147.5 -67.5t49.5 -182.5v-55h-255q1 -32 22 -53.5t62 -21.5q44 0 81 37l69 -90q-32 -36 -77 -55t-91 -19zM273 297q0 71 -53 71t-53 -71h106zM202 582l-55 9q6 28 25.5 43.5t47.5 15.5q30 0 48.5 -18
t18.5 -53q0 -26 -12 -52h-56q14 22 14 48t-16 26q-12 0 -15 -19z" />
    <glyph glyph-name="uni1EBC" unicode="&#x1ebc;" horiz-adv-x="405" 
d="M377 0h-336v667h336v-154h-159v-98h152v-154h-152v-107h159v-154zM258 721q-22 0 -39 13.5t-29.5 26.5t-22.5 13q-24 0 -24 -47h-74q0 61 26 97.5t71 36.5q22 0 39 -13.5t29.5 -27t22.5 -13.5q24 0 24 48h74q0 -61 -26 -97.5t-71 -36.5z" />
    <glyph glyph-name="uni1EBD" unicode="&#x1ebd;" horiz-adv-x="435" 
d="M233 -12q-101 0 -159 69t-58 185q0 110 55.5 181.5t153.5 71.5t147.5 -67.5t49.5 -182.5v-55h-255q1 -32 22 -53.5t62 -21.5q44 0 81 37l69 -90q-32 -36 -77 -55t-91 -19zM273 297q0 71 -53 71t-53 -71h106zM264 554q-22 0 -39 13t-29.5 26.5t-22.5 13.5q-24 0 -24 -47
h-74q0 61 26 97.5t71 36.5q21 0 38.5 -13.5t30 -27t22.5 -13.5q24 0 24 48h74q0 -61 -26 -97.5t-71 -36.5z" />
    <glyph glyph-name="uni1EBE" unicode="&#x1ebe;" horiz-adv-x="405" 
d="M340 682h-84l-48 59l-44 -59h-84l59 108h138zM525 843l-112 -108h-97l80 108h129zM377 0h-336v667h336v-154h-159v-98h152v-154h-152v-107h159v-154z" />
    <glyph glyph-name="uni1EBF" unicode="&#x1ebf;" horiz-adv-x="435" 
d="M353 556h-84l-48 79l-44 -79h-84l59 144h138zM535 770l-112 -144h-97l80 144h129zM233 -12q-101 0 -159 69t-58 185q0 110 55.5 181.5t153.5 71.5t147.5 -67.5t49.5 -182.5v-55h-255q1 -32 22 -53.5t62 -21.5q44 0 81 37l69 -90q-32 -36 -77 -55t-91 -19zM273 297
q0 71 -53 71t-53 -71h106z" />
    <glyph glyph-name="uni1EC0" unicode="&#x1ec0;" horiz-adv-x="405" 
d="M341 682h-84l-48 59l-44 -59h-84l59 108h138zM377 0h-336v667h336v-154h-159v-98h152v-154h-152v-107h159v-154zM104 735h-97l-112 108h129z" />
    <glyph glyph-name="uni1EC1" unicode="&#x1ec1;" horiz-adv-x="435" 
d="M353 556h-84l-48 79l-44 -79h-84l59 144h138zM233 -12q-101 0 -159 69t-58 185q0 110 55.5 181.5t153.5 71.5t147.5 -67.5t49.5 -182.5v-55h-255q1 -32 22 -53.5t62 -21.5q44 0 81 37l69 -90q-32 -36 -77 -55t-91 -19zM273 297q0 71 -53 71t-53 -71h106zM112 626h-97
l-112 144h129z" />
    <glyph glyph-name="uni1EC2" unicode="&#x1ec2;" horiz-adv-x="405" 
d="M340 682h-84l-48 59l-44 -59h-84l59 108h138zM377 0h-336v667h336v-154h-159v-98h152v-154h-152v-107h159v-154zM349 786l-55 7q12 44 73 44q67 0 67 -53q0 -19 -12 -39h-56q14 17 14 36q0 20 -16 20q-12 0 -15 -15z" />
    <glyph glyph-name="uni1EC3" unicode="&#x1ec3;" horiz-adv-x="435" 
d="M352 556h-84l-48 79l-44 -79h-84l59 144h138zM233 -12q-101 0 -159 69t-58 185q0 110 55.5 181.5t153.5 71.5t147.5 -67.5t49.5 -182.5v-55h-255q1 -32 22 -53.5t62 -21.5q44 0 81 37l69 -90q-32 -36 -77 -55t-91 -19zM273 297q0 71 -53 71t-53 -71h106zM308 722l-55 9
q6 28 25.5 43.5t47.5 15.5q30 0 48.5 -18t18.5 -53q0 -26 -12 -52h-56q14 22 14 48t-16 26q-12 0 -15 -19z" />
    <glyph glyph-name="uni1EC4" unicode="&#x1ec4;" horiz-adv-x="405" 
d="M340 678h-84l-48 39l-44 -39h-84l59 72h138zM377 0h-336v667h336v-154h-159v-98h152v-154h-152v-107h159v-154zM254 757q-28 0 -54.5 13t-36.5 13q-24 0 -24 -23h-74q0 30 26 48.5t71 18.5q28 0 54.5 -13.5t36.5 -13.5q24 0 24 24h74q0 -30 -26 -48.5t-71 -18.5z" />
    <glyph glyph-name="uni1EC5" unicode="&#x1ec5;" horiz-adv-x="435" 
d="M350 523h-84l-48 79l-44 -79h-84l59 144h138zM233 -12q-101 0 -159 69t-58 185q0 110 55.5 181.5t153.5 71.5t147.5 -67.5t49.5 -182.5v-55h-255q1 -32 22 -53.5t62 -21.5q44 0 81 37l69 -90q-32 -36 -77 -55t-91 -19zM273 297q0 71 -53 71t-53 -71h106zM262 682
q-22 0 -39 13t-29.5 26.5t-22.5 13.5q-24 0 -24 -47h-74q0 61 26 97.5t71 36.5q22 0 39 -13.5t29.5 -27t22.5 -13.5q24 0 24 48h74q0 -61 -26 -97.5t-71 -36.5z" />
    <glyph glyph-name="uni1EC6" unicode="&#x1ec6;" horiz-adv-x="405" 
d="M339 723h-84l-48 79l-44 -79h-84l59 144h138zM377 0h-336v667h336v-154h-159v-98h152v-154h-152v-107h159v-154zM213 -203q-33 0 -56.5 23t-23.5 56t24 56.5t56 23.5q33 0 56.5 -23.5t23.5 -56.5t-23.5 -56t-56.5 -23z" />
    <glyph glyph-name="uni1EC7" unicode="&#x1ec7;" horiz-adv-x="435" 
d="M353 556h-84l-48 79l-44 -79h-84l59 144h138zM233 -12q-101 0 -159 69t-58 185q0 110 55.5 181.5t153.5 71.5t147.5 -67.5t49.5 -182.5v-55h-255q1 -32 22 -53.5t62 -21.5q44 0 81 37l69 -90q-32 -36 -77 -55t-91 -19zM273 297q0 71 -53 71t-53 -71h106zM224 -203
q-33 0 -56.5 23t-23.5 56t24 56.5t56 23.5q33 0 56.5 -23.5t23.5 -56.5t-23.5 -56t-56.5 -23z" />
    <glyph glyph-name="uni1EC8" unicode="&#x1ec8;" horiz-adv-x="259" 
d="M218 0h-177v667h177v-667zM114 752l-55 9q6 28 25.5 43.5t47.5 15.5q30 0 48.5 -18t18.5 -53q0 -26 -12 -52h-56q14 22 14 48t-16 26q-12 0 -15 -19z" />
    <glyph glyph-name="uni1EC9" unicode="&#x1ec9;" horiz-adv-x="228" 
d="M193 0h-158v483h158v-483zM99 582l-55 9q6 28 25.5 43.5t47.5 15.5q30 0 48.5 -18t18.5 -53q0 -26 -12 -52h-56q14 22 14 48t-16 26q-12 0 -15 -19z" />
    <glyph glyph-name="uni1ECA" unicode="&#x1eca;" horiz-adv-x="259" 
d="M218 0h-177v667h177v-667zM131 -203q-33 0 -56.5 23t-23.5 56t24 56.5t56 23.5q33 0 56.5 -23.5t23.5 -56.5t-23.5 -56t-56.5 -23z" />
    <glyph glyph-name="uni1ECB" unicode="&#x1ecb;" horiz-adv-x="228" 
d="M114 525q-38 0 -64 26.5t-26 63.5q0 38 26.5 64.5t63.5 26.5t63.5 -26.5t26.5 -64.5q0 -37 -26 -63.5t-64 -26.5zM193 0h-158v483h158v-483zM116 -203q-33 0 -56.5 23t-23.5 56t24 56.5t56 23.5q33 0 56.5 -23.5t23.5 -56.5t-23.5 -56t-56.5 -23z" />
    <glyph glyph-name="uni1ECC" unicode="&#x1ecc;" horiz-adv-x="522" 
d="M261 -12q-120 0 -181.5 93.5t-61.5 251.5t61.5 251.5t181.5 93.5t181.5 -93.5t61.5 -251.5t-61.5 -251.5t-181.5 -93.5zM261 144q63 0 63 189t-63 189t-63 -189t63 -189zM264 -203q-33 0 -56.5 23t-23.5 56t24 56.5t56 23.5q33 0 56.5 -23.5t23.5 -56.5t-23.5 -56
t-56.5 -23z" />
    <glyph glyph-name="uni1ECD" unicode="&#x1ecd;" horiz-adv-x="451" 
d="M225 -12q-101 0 -155 73t-54 181t54 180.5t155 72.5q102 0 156.5 -72.5t54.5 -180.5t-54.5 -181t-156.5 -73zM225 127q49 0 49 115q0 114 -49 114q-47 0 -47 -114q0 -115 47 -115zM226 -203q-33 0 -56.5 23t-23.5 56t24 56.5t56 23.5q33 0 56.5 -23.5t23.5 -56.5
t-23.5 -56t-56.5 -23z" />
    <glyph glyph-name="uni1ECE" unicode="&#x1ece;" horiz-adv-x="522" 
d="M261 -12q-120 0 -181.5 93.5t-61.5 251.5t61.5 251.5t181.5 93.5t181.5 -93.5t61.5 -251.5t-61.5 -251.5t-181.5 -93.5zM261 144q63 0 63 189t-63 189t-63 -189t63 -189zM246 752l-55 9q6 28 25.5 43.5t47.5 15.5q30 0 48.5 -18t18.5 -53q0 -26 -12 -52h-56q14 22 14 48
t-16 26q-12 0 -15 -19z" />
    <glyph glyph-name="uni1ECF" unicode="&#x1ecf;" horiz-adv-x="451" 
d="M225 -12q-101 0 -155 73t-54 181t54 180.5t155 72.5q102 0 156.5 -72.5t54.5 -180.5t-54.5 -181t-156.5 -73zM225 127q49 0 49 115q0 114 -49 114q-47 0 -47 -114q0 -115 47 -115zM212 582l-55 9q6 28 25.5 43.5t47.5 15.5q30 0 48.5 -18t18.5 -53q0 -26 -12 -52h-56
q14 22 14 48t-16 26q-12 0 -15 -19z" />
    <glyph glyph-name="uni1ED0" unicode="&#x1ed0;" horiz-adv-x="522" 
d="M390 682h-84l-48 59l-44 -59h-84l59 108h138zM575 843l-112 -108h-97l80 108h129zM261 -12q-120 0 -181.5 93.5t-61.5 251.5t61.5 251.5t181.5 93.5t181.5 -93.5t61.5 -251.5t-61.5 -251.5t-181.5 -93.5zM261 144q63 0 63 189t-63 189t-63 -189t63 -189z" />
    <glyph glyph-name="uni1ED1" unicode="&#x1ed1;" horiz-adv-x="451" 
d="M353 556h-84l-48 79l-44 -79h-84l59 144h138zM535 770l-112 -144h-97l80 144h129zM225 -12q-101 0 -155 73t-54 181t54 180.5t155 72.5q102 0 156.5 -72.5t54.5 -180.5t-54.5 -181t-156.5 -73zM225 127q49 0 49 115q0 114 -49 114q-47 0 -47 -114q0 -115 47 -115z" />
    <glyph glyph-name="uni1ED2" unicode="&#x1ed2;" horiz-adv-x="522" 
d="M388 682h-84l-48 59l-44 -59h-84l59 108h138zM261 -12q-120 0 -181.5 93.5t-61.5 251.5t61.5 251.5t181.5 93.5t181.5 -93.5t61.5 -251.5t-61.5 -251.5t-181.5 -93.5zM261 144q63 0 63 189t-63 189t-63 -189t63 -189zM151 735h-97l-112 108h129z" />
    <glyph glyph-name="uni1ED3" unicode="&#x1ed3;" horiz-adv-x="451" 
d="M353 556h-84l-48 79l-44 -79h-84l59 144h138zM225 -12q-101 0 -155 73t-54 181t54 180.5t155 72.5q102 0 156.5 -72.5t54.5 -180.5t-54.5 -181t-156.5 -73zM225 127q49 0 49 115q0 114 -49 114q-47 0 -47 -114q0 -115 47 -115zM112 626h-97l-112 144h129z" />
    <glyph glyph-name="uni1ED4" unicode="&#x1ed4;" horiz-adv-x="522" 
d="M387 682h-84l-48 59l-44 -59h-84l59 108h138zM261 -12q-120 0 -181.5 93.5t-61.5 251.5t61.5 251.5t181.5 93.5t181.5 -93.5t61.5 -251.5t-61.5 -251.5t-181.5 -93.5zM261 144q63 0 63 189t-63 189t-63 -189t63 -189zM396 786l-55 7q12 44 73 44q67 0 67 -53
q0 -19 -12 -39h-56q14 17 14 36q0 20 -16 20q-12 0 -15 -15z" />
    <glyph glyph-name="uni1ED5" unicode="&#x1ed5;" horiz-adv-x="451" 
d="M354 556h-84l-48 79l-44 -79h-84l59 144h138zM225 -12q-101 0 -155 73t-54 181t54 180.5t155 72.5q102 0 156.5 -72.5t54.5 -180.5t-54.5 -181t-156.5 -73zM225 127q49 0 49 115q0 114 -49 114q-47 0 -47 -114q0 -115 47 -115zM310 722l-55 9q6 28 25.5 43.5t47.5 15.5
q30 0 48.5 -18t18.5 -53q0 -26 -12 -52h-56q14 22 14 48t-16 26q-12 0 -15 -19z" />
    <glyph glyph-name="uni1ED6" unicode="&#x1ed6;" horiz-adv-x="522" 
d="M388 678h-84l-48 39l-44 -39h-84l59 72h138zM261 -12q-120 0 -181.5 93.5t-61.5 251.5t61.5 251.5t181.5 93.5t181.5 -93.5t61.5 -251.5t-61.5 -251.5t-181.5 -93.5zM261 144q63 0 63 189t-63 189t-63 -189t63 -189zM302 757q-28 0 -54.5 13t-36.5 13q-24 0 -24 -23h-74
q0 30 26 48.5t71 18.5q28 0 54.5 -13.5t36.5 -13.5q24 0 24 24h74q0 -30 -26 -48.5t-71 -18.5z" />
    <glyph glyph-name="uni1ED7" unicode="&#x1ed7;" horiz-adv-x="451" 
d="M356 523h-84l-48 79l-44 -79h-84l59 144h138zM225 -12q-101 0 -155 73t-54 181t54 180.5t155 72.5q102 0 156.5 -72.5t54.5 -180.5t-54.5 -181t-156.5 -73zM225 127q49 0 49 115q0 114 -49 114q-47 0 -47 -114q0 -115 47 -115zM268 682q-22 0 -39 13t-29.5 26.5
t-22.5 13.5q-24 0 -24 -47h-74q0 61 26 97.5t71 36.5q21 0 38.5 -13.5t30 -27t22.5 -13.5q24 0 24 48h74q0 -61 -26 -97.5t-71 -36.5z" />
    <glyph glyph-name="uni1ED8" unicode="&#x1ed8;" horiz-adv-x="522" 
d="M392 723h-84l-48 79l-44 -79h-84l59 144h138zM261 -12q-120 0 -181.5 93.5t-61.5 251.5t61.5 251.5t181.5 93.5t181.5 -93.5t61.5 -251.5t-61.5 -251.5t-181.5 -93.5zM261 144q63 0 63 189t-63 189t-63 -189t63 -189zM264 -203q-33 0 -56.5 23t-23.5 56t24 56.5t56 23.5
q33 0 56.5 -23.5t23.5 -56.5t-23.5 -56t-56.5 -23z" />
    <glyph glyph-name="uni1ED9" unicode="&#x1ed9;" horiz-adv-x="451" 
d="M356 556h-84l-48 79l-44 -79h-84l59 144h138zM225 -12q-101 0 -155 73t-54 181t54 180.5t155 72.5q102 0 156.5 -72.5t54.5 -180.5t-54.5 -181t-156.5 -73zM225 127q49 0 49 115q0 114 -49 114q-47 0 -47 -114q0 -115 47 -115zM226 -203q-33 0 -56.5 23t-23.5 56t24 56.5
t56 23.5q33 0 56.5 -23.5t23.5 -56.5t-23.5 -56t-56.5 -23z" />
    <glyph glyph-name="uni1EDA" unicode="&#x1eda;" horiz-adv-x="522" 
d="M418 867l-112 -144h-97l80 144h129zM261 -12q-120 0 -181.5 93.5t-61.5 251.5t61.5 251.5t181.5 93.5q118 0 182 -94q24 22 30 46q-3 -3 -15 -3q-23 0 -38 16t-15 41q0 26 18 44.5t44 18.5q29 0 50 -22t21 -58q0 -77 -69 -133q35 -80 35 -201q0 -158 -61.5 -251.5
t-181.5 -93.5zM261 144q63 0 63 189t-63 189t-63 -189t63 -189z" />
    <glyph glyph-name="uni1EDB" unicode="&#x1edb;" horiz-adv-x="451" 
d="M382 700l-112 -144h-97l80 144h129zM449 533q0 -70 -59 -124q46 -67 46 -167q0 -108 -54.5 -181t-156.5 -73q-101 0 -155 73t-54 181t54 180.5t155 72.5q76 0 129 -45q25 25 30 46q-3 -3 -15 -3q-23 0 -38 16t-15 41q0 26 18 44.5t44 18.5q29 0 50 -22t21 -58zM225 127
q49 0 49 115q0 114 -49 114q-47 0 -47 -114q0 -115 47 -115z" />
    <glyph glyph-name="uni1EDC" unicode="&#x1edc;" horiz-adv-x="522" 
d="M261 -12q-120 0 -181.5 93.5t-61.5 251.5t61.5 251.5t181.5 93.5q118 0 182 -94q24 22 30 46q-3 -3 -15 -3q-23 0 -38 16t-15 41q0 26 18 44.5t44 18.5q29 0 50 -22t21 -58q0 -77 -69 -133q35 -80 35 -201q0 -158 -61.5 -251.5t-181.5 -93.5zM261 144q63 0 63 189
t-63 189t-63 -189t63 -189zM313 723h-97l-112 144h129z" />
    <glyph glyph-name="uni1EDD" unicode="&#x1edd;" horiz-adv-x="451" 
d="M449 533q0 -70 -59 -124q46 -67 46 -167q0 -108 -54.5 -181t-156.5 -73q-101 0 -155 73t-54 181t54 180.5t155 72.5q76 0 129 -45q25 25 30 46q-3 -3 -15 -3q-23 0 -38 16t-15 41q0 26 18 44.5t44 18.5q29 0 50 -22t21 -58zM225 127q49 0 49 115q0 114 -49 114
q-47 0 -47 -114q0 -115 47 -115zM277 556h-97l-112 144h129z" />
    <glyph glyph-name="uni1EDE" unicode="&#x1ede;" horiz-adv-x="522" 
d="M261 -12q-120 0 -181.5 93.5t-61.5 251.5t61.5 251.5t181.5 93.5q118 0 182 -94q24 22 30 46q-3 -3 -15 -3q-23 0 -38 16t-15 41q0 26 18 44.5t44 18.5q29 0 50 -22t21 -58q0 -77 -69 -133q35 -80 35 -201q0 -158 -61.5 -251.5t-181.5 -93.5zM261 144q63 0 63 189
t-63 189t-63 -189t63 -189zM246 752l-55 9q6 28 25.5 43.5t47.5 15.5q30 0 48.5 -18t18.5 -53q0 -26 -12 -52h-56q14 22 14 48t-16 26q-12 0 -15 -19z" />
    <glyph glyph-name="uni1EDF" unicode="&#x1edf;" horiz-adv-x="451" 
d="M449 533q0 -70 -59 -124q46 -67 46 -167q0 -108 -54.5 -181t-156.5 -73q-101 0 -155 73t-54 181t54 180.5t155 72.5q76 0 129 -45q25 25 30 46q-3 -3 -15 -3q-23 0 -38 16t-15 41q0 26 18 44.5t44 18.5q29 0 50 -22t21 -58zM225 127q49 0 49 115q0 114 -49 114
q-47 0 -47 -114q0 -115 47 -115zM210 582l-55 9q6 28 25.5 43.5t47.5 15.5q30 0 48.5 -18t18.5 -53q0 -26 -12 -52h-56q14 22 14 48t-16 26q-12 0 -15 -19z" />
    <glyph glyph-name="uni1EE0" unicode="&#x1ee0;" horiz-adv-x="522" 
d="M261 -12q-120 0 -181.5 93.5t-61.5 251.5t61.5 251.5t181.5 93.5q118 0 182 -94q24 22 30 46q-3 -3 -15 -3q-23 0 -38 16t-15 41q0 26 18 44.5t44 18.5q29 0 50 -22t21 -58q0 -77 -69 -133q35 -80 35 -201q0 -158 -61.5 -251.5t-181.5 -93.5zM261 144q63 0 63 189
t-63 189t-63 -189t63 -189zM308 721q-22 0 -39 13.5t-29.5 26.5t-22.5 13q-24 0 -24 -47h-74q0 61 26 97.5t71 36.5q22 0 39 -13.5t29.5 -27t22.5 -13.5q24 0 24 48h74q0 -61 -26 -97.5t-71 -36.5z" />
    <glyph glyph-name="uni1EE1" unicode="&#x1ee1;" horiz-adv-x="451" 
d="M449 533q0 -70 -59 -124q46 -67 46 -167q0 -108 -54.5 -181t-156.5 -73q-101 0 -155 73t-54 181t54 180.5t155 72.5q76 0 129 -45q25 25 30 46q-3 -3 -15 -3q-23 0 -38 16t-15 41q0 26 18 44.5t44 18.5q29 0 50 -22t21 -58zM225 127q49 0 49 115q0 114 -49 114
q-47 0 -47 -114q0 -115 47 -115zM242 554q-22 0 -39 13t-29.5 26.5t-22.5 13.5q-24 0 -24 -47h-74q0 61 26 97.5t71 36.5q22 0 39 -13.5t29.5 -27t22.5 -13.5q24 0 24 48h74q0 -61 -26 -97.5t-71 -36.5z" />
    <glyph glyph-name="uni1EE2" unicode="&#x1ee2;" horiz-adv-x="522" 
d="M261 -12q-120 0 -181.5 93.5t-61.5 251.5t61.5 251.5t181.5 93.5q118 0 182 -94q24 22 30 46q-3 -3 -15 -3q-23 0 -38 16t-15 41q0 26 18 44.5t44 18.5q29 0 50 -22t21 -58q0 -77 -69 -133q35 -80 35 -201q0 -158 -61.5 -251.5t-181.5 -93.5zM261 144q63 0 63 189
t-63 189t-63 -189t63 -189zM264 -203q-33 0 -56.5 23t-23.5 56t24 56.5t56 23.5q33 0 56.5 -23.5t23.5 -56.5t-23.5 -56t-56.5 -23z" />
    <glyph glyph-name="uni1EE3" unicode="&#x1ee3;" horiz-adv-x="451" 
d="M449 533q0 -70 -59 -124q46 -67 46 -167q0 -108 -54.5 -181t-156.5 -73q-101 0 -155 73t-54 181t54 180.5t155 72.5q76 0 129 -45q25 25 30 46q-3 -3 -15 -3q-23 0 -38 16t-15 41q0 26 18 44.5t44 18.5q29 0 50 -22t21 -58zM225 127q49 0 49 115q0 114 -49 114
q-47 0 -47 -114q0 -115 47 -115zM226 -203q-33 0 -56.5 23t-23.5 56t24 56.5t56 23.5q33 0 56.5 -23.5t23.5 -56.5t-23.5 -56t-56.5 -23z" />
    <glyph glyph-name="uni1EE4" unicode="&#x1ee4;" horiz-adv-x="532" 
d="M266 -12q-92 0 -158.5 57.5t-66.5 167.5v454h177v-463q0 -62 48 -62t48 62v463h177v-453q0 -75 -34 -128t-83.5 -75.5t-107.5 -22.5zM268 -203q-33 0 -56.5 23t-23.5 56t24 56.5t56 23.5q33 0 56.5 -23.5t23.5 -56.5t-23.5 -56t-56.5 -23z" />
    <glyph glyph-name="uni1EE5" unicode="&#x1ee5;" 
d="M427 0h-158v56q-15 -27 -50 -47.5t-70 -20.5q-114 0 -114 113v382h158v-319q0 -37 29 -37q15 0 27.5 13t19.5 32v311h158v-483zM231 -203q-33 0 -56.5 23t-23.5 56t24 56.5t56 23.5q33 0 56.5 -23.5t23.5 -56.5t-23.5 -56t-56.5 -23z" />
    <glyph glyph-name="uni1EE6" unicode="&#x1ee6;" horiz-adv-x="532" 
d="M266 -12q-92 0 -158.5 57.5t-66.5 167.5v454h177v-463q0 -62 48 -62t48 62v463h177v-453q0 -75 -34 -128t-83.5 -75.5t-107.5 -22.5zM251 752l-55 9q6 28 25.5 43.5t47.5 15.5q30 0 48.5 -18t18.5 -53q0 -26 -12 -52h-56q14 22 14 48t-16 26q-12 0 -15 -19z" />
    <glyph glyph-name="uni1EE7" unicode="&#x1ee7;" 
d="M427 0h-158v56q-15 -27 -50 -47.5t-70 -20.5q-114 0 -114 113v382h158v-319q0 -37 29 -37q15 0 27.5 13t19.5 32v311h158v-483zM215 582l-55 9q6 28 25.5 43.5t47.5 15.5q30 0 48.5 -18t18.5 -53q0 -26 -12 -52h-56q14 22 14 48t-16 26q-12 0 -15 -19z" />
    <glyph glyph-name="uni1EE8" unicode="&#x1ee8;" horiz-adv-x="532" 
d="M423 867l-112 -144h-97l80 144h129zM588 726q0 -43 -24.5 -83.5t-72.5 -68.5v-360q0 -75 -34 -128t-83.5 -75.5t-107.5 -22.5q-92 0 -158.5 57.5t-66.5 167.5v454h177v-463q0 -62 48 -62t48 62v463h177v-27q24 22 32 48q-4 -2 -15 -2q-23 0 -38 15.5t-15 40.5
q0 26 18.5 45t43.5 19q29 0 50 -22t21 -58z" />
    <glyph glyph-name="uni1EE9" unicode="&#x1ee9;" 
d="M388 700l-112 -144h-97l80 144h129zM427 0h-158v56q-15 -27 -50 -47.5t-70 -20.5q-114 0 -114 113v382h158v-319q0 -37 29 -37q15 0 27.5 13t19.5 32v311h136q12 18 16 30q-4 -3 -16 -3q-23 0 -38 16t-15 41q0 26 18 44.5t44 18.5q30 0 50.5 -22t20.5 -58q0 -69 -58 -123
v-427z" />
    <glyph glyph-name="uni1EEA" unicode="&#x1eea;" horiz-adv-x="532" 
d="M318 723h-97l-112 144h129zM588 726q0 -43 -24.5 -83.5t-72.5 -68.5v-360q0 -75 -34 -128t-83.5 -75.5t-107.5 -22.5q-92 0 -158.5 57.5t-66.5 167.5v454h177v-463q0 -62 48 -62t48 62v463h177v-27q24 22 32 48q-4 -2 -15 -2q-23 0 -38 15.5t-15 40.5q0 26 18.5 45
t43.5 19q29 0 50 -22t21 -58z" />
    <glyph glyph-name="uni1EEB" unicode="&#x1eeb;" 
d="M283 556h-97l-112 144h129zM427 0h-158v56q-15 -27 -50 -47.5t-70 -20.5q-114 0 -114 113v382h158v-319q0 -37 29 -37q15 0 27.5 13t19.5 32v311h136q12 18 16 30q-4 -3 -16 -3q-23 0 -38 16t-15 41q0 26 18 44.5t44 18.5q30 0 50.5 -22t20.5 -58q0 -69 -58 -123v-427z
" />
    <glyph glyph-name="uni1EEC" unicode="&#x1eec;" horiz-adv-x="532" 
d="M251 752l-55 9q6 28 25.5 43.5t47.5 15.5q30 0 48.5 -18t18.5 -53q0 -26 -12 -52h-56q14 22 14 48t-16 26q-12 0 -15 -19zM588 726q0 -43 -24.5 -83.5t-72.5 -68.5v-360q0 -75 -34 -128t-83.5 -75.5t-107.5 -22.5q-92 0 -158.5 57.5t-66.5 167.5v454h177v-463
q0 -62 48 -62t48 62v463h177v-27q24 22 32 48q-4 -2 -15 -2q-23 0 -38 15.5t-15 40.5q0 26 18.5 45t43.5 19q29 0 50 -22t21 -58z" />
    <glyph glyph-name="uni1EED" unicode="&#x1eed;" 
d="M215 582l-55 9q6 28 25.5 43.5t47.5 15.5q30 0 48.5 -18t18.5 -53q0 -26 -12 -52h-56q14 22 14 48t-16 26q-12 0 -15 -19zM427 0h-158v56q-15 -27 -50 -47.5t-70 -20.5q-114 0 -114 113v382h158v-319q0 -37 29 -37q15 0 27.5 13t19.5 32v311h136q12 18 16 30
q-4 -3 -16 -3q-23 0 -38 16t-15 41q0 26 18 44.5t44 18.5q30 0 50.5 -22t20.5 -58q0 -69 -58 -123v-427z" />
    <glyph glyph-name="uni1EEE" unicode="&#x1eee;" horiz-adv-x="532" 
d="M588 726q0 -43 -24.5 -83.5t-72.5 -68.5v-360q0 -75 -34 -128t-83.5 -75.5t-107.5 -22.5q-92 0 -158.5 57.5t-66.5 167.5v454h177v-463q0 -62 48 -62t48 62v463h177v-27q24 22 32 48q-4 -2 -15 -2q-23 0 -38 15.5t-15 40.5q0 26 18.5 45t43.5 19q29 0 50 -22t21 -58z
M311 721q-22 0 -39 13.5t-29.5 26.5t-22.5 13q-24 0 -24 -47h-74q0 61 26 97.5t71 36.5q22 0 39 -13.5t29.5 -27t22.5 -13.5q24 0 24 48h74q0 -61 -26 -97.5t-71 -36.5z" />
    <glyph glyph-name="uni1EEF" unicode="&#x1eef;" 
d="M427 0h-158v56q-15 -27 -50 -47.5t-70 -20.5q-114 0 -114 113v382h158v-319q0 -37 29 -37q15 0 27.5 13t19.5 32v311h136q12 18 16 30q-4 -3 -16 -3q-23 0 -38 16t-15 41q0 26 18 44.5t44 18.5q30 0 50.5 -22t20.5 -58q0 -69 -58 -123v-427zM260 554q-22 0 -39 13
t-29.5 26.5t-22.5 13.5q-24 0 -24 -47h-74q0 61 26 97.5t71 36.5q21 0 38.5 -13.5t30 -27t22.5 -13.5q24 0 24 48h74q0 -61 -26 -97.5t-71 -36.5z" />
    <glyph glyph-name="uni1EF0" unicode="&#x1ef0;" horiz-adv-x="532" 
d="M268 -203q-33 0 -56.5 23t-23.5 56t24 56.5t56 23.5q33 0 56.5 -23.5t23.5 -56.5t-23.5 -56t-56.5 -23zM588 726q0 -43 -24.5 -83.5t-72.5 -68.5v-360q0 -75 -34 -128t-83.5 -75.5t-107.5 -22.5q-92 0 -158.5 57.5t-66.5 167.5v454h177v-463q0 -62 48 -62t48 62v463h177
v-27q24 22 32 48q-4 -2 -15 -2q-23 0 -38 15.5t-15 40.5q0 26 18.5 45t43.5 19q29 0 50 -22t21 -58z" />
    <glyph glyph-name="uni1EF1" unicode="&#x1ef1;" 
d="M231 -203q-33 0 -56.5 23t-23.5 56t24 56.5t56 23.5q33 0 56.5 -23.5t23.5 -56.5t-23.5 -56t-56.5 -23zM427 0h-158v56q-15 -27 -50 -47.5t-70 -20.5q-114 0 -114 113v382h158v-319q0 -37 29 -37q15 0 27.5 13t19.5 32v311h136q12 18 16 30q-4 -3 -16 -3q-23 0 -38 16
t-15 41q0 26 18 44.5t44 18.5q30 0 50.5 -22t20.5 -58q0 -69 -58 -123v-427z" />
    <glyph glyph-name="Ygrave" unicode="&#x1ef2;" horiz-adv-x="489" 
d="M333 0h-177v269l-163 398h186l65 -232l66 232h186l-163 -398v-269zM296 723h-97l-112 144h129z" />
    <glyph glyph-name="ygrave" unicode="&#x1ef3;" horiz-adv-x="435" 
d="M47 -188l22 136q8 -5 20 -5q32 0 39 24l8 24l-142 492h166l57 -284l58 284h166l-159 -547q-22 -76 -60.5 -104t-108.5 -28q-45 0 -66 8zM269 556h-97l-112 144h129z" />
    <glyph glyph-name="thinspace" unicode="&#x2009;" horiz-adv-x="31" 
 />
    <glyph glyph-name="endash" unicode="&#x2013;" horiz-adv-x="460" 
d="M430 176h-400v132h400v-132z" />
    <glyph glyph-name="emdash" unicode="&#x2014;" horiz-adv-x="640" 
d="M610 176h-580v132h580v-132z" />
    <glyph glyph-name="afii00208" unicode="&#x2015;" horiz-adv-x="460" 
d="M430 176h-400v132h400v-132z" />
    <glyph glyph-name="quoteleft" unicode="&#x2018;" horiz-adv-x="273" 
d="M33 474q0 122 116 204l65 -53q-25 -13 -51 -41t-34 -54q12 3 23 3q34 0 56.5 -23.5t22.5 -60.5q0 -39 -27.5 -66.5t-65.5 -27.5q-43 0 -74 32.5t-31 86.5z" />
    <glyph glyph-name="quoteright" unicode="&#x2019;" horiz-adv-x="273" 
d="M237 559q0 -124 -116 -205l-65 53q25 13 51 41t34 54q-12 -3 -23 -3q-33 0 -55.5 23.5t-22.5 60.5q0 39 27.5 66.5t65.5 27.5q43 0 73.5 -32t30.5 -86z" />
    <glyph glyph-name="quotesinglbase" unicode="&#x201a;" horiz-adv-x="270" 
d="M236 62q0 -123 -116 -205l-65 53q25 13 51 41t34 55q-8 -4 -23 -4q-33 0 -55.5 23.5t-22.5 60.5q0 39 27.5 66.5t65.5 27.5q43 0 73.5 -32t30.5 -86z" />
    <glyph glyph-name="quotereversed" unicode="&#x201b;" horiz-adv-x="273" 
d="M36 559q0 53 31 85.5t74 32.5q38 0 65.5 -27.5t27.5 -66.5q0 -37 -22.5 -60.5t-56.5 -23.5q-11 0 -23 3q8 -26 34 -54t51 -41l-65 -53q-116 82 -116 205z" />
    <glyph glyph-name="quotedblleft" unicode="&#x201c;" horiz-adv-x="502" 
d="M36 474q0 122 116 204l65 -53q-25 -13 -51 -41t-34 -54q12 3 23 3q34 0 56.5 -23.5t22.5 -60.5q0 -39 -27.5 -66.5t-65.5 -27.5q-43 0 -74 32.5t-31 86.5zM265 474q0 123 115 204l66 -53q-25 -13 -51.5 -41t-34.5 -54q15 3 24 3q33 0 55.5 -23.5t22.5 -60.5
q0 -39 -27.5 -66.5t-65.5 -27.5q-43 0 -73.5 32.5t-30.5 86.5z" />
    <glyph glyph-name="quotedblright" unicode="&#x201d;" horiz-adv-x="502" 
d="M465 559q0 -124 -115 -205l-65 53q25 13 51 41t34 54q-12 -3 -23 -3q-34 0 -56.5 23.5t-22.5 60.5q0 39 27.5 66.5t65.5 27.5q43 0 73.5 -32t30.5 -86zM237 559q0 -124 -116 -205l-65 53q25 13 51 41t34 54q-12 -3 -23 -3q-33 0 -55.5 23.5t-22.5 60.5q0 39 27.5 66.5
t65.5 27.5q43 0 73.5 -32t30.5 -86z" />
    <glyph glyph-name="quotedblbase" unicode="&#x201e;" horiz-adv-x="498" 
d="M236 62q0 -123 -116 -205l-65 53q25 13 51 41t34 55q-8 -4 -23 -4q-33 0 -55.5 23.5t-22.5 60.5q0 39 27.5 66.5t65.5 27.5q43 0 73.5 -32t30.5 -86zM464 62q0 -122 -115 -205l-65 53q25 13 51 41t34 55q-8 -4 -23 -4q-34 0 -56.5 23.5t-22.5 60.5q0 39 27.5 66.5
t65.5 27.5q43 0 73.5 -32t30.5 -86z" />
    <glyph glyph-name="dagger" unicode="&#x2020;" horiz-adv-x="285" 
d="M267 517l-89 4l4 -194h-80l5 194l-89 -4v73l89 -3l-5 90h80l-4 -90l89 3v-73z" />
    <glyph glyph-name="daggerdbl" unicode="&#x2021;" horiz-adv-x="285" 
d="M267 590v-73l-89 4v-183l89 4v-73l-89 3l4 -92h-80l4 92l-88 -3v73l88 -4v183l-88 -4v73l88 -3l-4 90h80l-4 -90z" />
    <glyph glyph-name="bullet" unicode="&#x2022;" horiz-adv-x="358" 
d="M305 242q0 -51 -36.5 -87.5t-88.5 -36.5t-88.5 36.5t-36.5 87.5q0 52 36.5 88.5t88.5 36.5t88.5 -36.5t36.5 -88.5z" />
    <glyph glyph-name="ellipsis" unicode="&#x2026;" horiz-adv-x="810" 
d="M231 83q0 -39 -28.5 -67t-67.5 -28t-67.5 28t-28.5 67q0 40 28.5 68.5t67.5 28.5t67.5 -28.5t28.5 -68.5zM501 83q0 -39 -28.5 -67t-67.5 -28t-67.5 28t-28.5 67q0 40 28.5 68.5t67.5 28.5t67.5 -28.5t28.5 -68.5zM771 83q0 -39 -28 -67t-68 -28q-39 0 -67.5 28t-28.5 67
q0 40 28.5 68.5t67.5 28.5q40 0 68 -28.5t28 -68.5z" />
    <glyph glyph-name="perthousand" unicode="&#x2030;" horiz-adv-x="893" 
d="M289 509q0 -72 -38 -119.5t-100 -47.5t-100.5 48t-38.5 119q0 72 38.5 120t100.5 48t100 -48t38 -120zM475 667l-285 -667h-60l284 667h61zM592 154q0 -71 -38 -118.5t-100 -47.5q-63 0 -101 47t-38 119t38 120t101 48q62 0 100 -48t38 -120zM191 509q0 74 -40 74
t-40 -74q0 -72 40 -72t40 72zM494 154q0 73 -40 73t-40 -73q0 -72 40 -72t40 72zM881 154q0 -71 -38 -118.5t-100 -47.5q-63 0 -101 47.5t-38 118.5q0 72 38.5 120t100.5 48t100 -48t38 -120zM783 154q0 73 -40 73t-40 -73q0 -72 40 -72t40 72z" />
    <glyph glyph-name="guilsinglleft" unicode="&#x2039;" horiz-adv-x="267" 
d="M237 63h-117l-90 180l90 177h117l-90 -177z" />
    <glyph glyph-name="guilsinglright" unicode="&#x203a;" horiz-adv-x="267" 
d="M237 243l-90 -180h-117l90 180l-90 177h117z" />
    <glyph glyph-name="uni203E" unicode="&#x203e;" horiz-adv-x="268" 
d="M268 555h-268v87h268v-87z" />
    <glyph glyph-name="fraction" unicode="&#x2044;" horiz-adv-x="151" 
d="M248 667l-285 -667h-60l284 667h61z" />
    <glyph glyph-name="zerosuperior" unicode="&#x2070;" horiz-adv-x="322" 
d="M312 621q0 -88 -40 -147.5t-111 -59.5q-72 0 -111.5 59t-39.5 148t39.5 147.5t111.5 58.5q71 0 111 -59t40 -147zM193 621q0 61 -6.5 87.5t-25.5 26.5q-20 0 -26.5 -26.5t-6.5 -87.5t6.5 -88t26.5 -27q19 0 25.5 27t6.5 88z" />
    <glyph glyph-name="foursuperior" unicode="&#x2074;" horiz-adv-x="322" 
d="M312 498h-31v-77h-117v77h-154v88l131 235h140v-232h31v-91zM164 589v109l-58 -109h58z" />
    <glyph glyph-name="fivesuperior" unicode="&#x2075;" horiz-adv-x="322" 
d="M310 556q0 -64 -42 -103t-114 -39q-99 0 -147 63l70 72q32 -43 70 -43q21 0 33 13t12 35q0 20 -10.5 33t-28.5 13q-30 0 -51 -37l-84 25v233h268v-92h-152v-76q25 30 67 30q45 0 77 -33.5t32 -93.5z" />
    <glyph glyph-name="sixsuperior" unicode="&#x2076;" horiz-adv-x="322" 
d="M311 557q0 -66 -40 -104.5t-100 -38.5q-79 0 -119.5 57t-40.5 149q0 98 48.5 152.5t127.5 54.5q66 0 106 -35l-54 -80q-20 23 -50 23q-25 0 -43.5 -21.5t-18.5 -62.5v-4q26 45 80 45q43 0 73.5 -37t30.5 -98zM194 552q0 25 -10 37.5t-23 12.5q-21 0 -34 -24q3 -72 35 -72
q15 0 23.5 14t8.5 32z" />
    <glyph glyph-name="sevensuperior" unicode="&#x2077;" horiz-adv-x="298" 
d="M288 741l-115 -320h-111l119 308h-171v92h278v-80z" />
    <glyph glyph-name="eightsuperior" unicode="&#x2078;" horiz-adv-x="322" 
d="M311 527q0 -55 -40 -84t-110 -29q-72 0 -111.5 29t-39.5 84q0 33 21.5 61.5t54.5 38.5q-32 9 -51 34t-19 59q0 54 42.5 80.5t102.5 26.5q59 0 101.5 -26.5t42.5 -80.5q0 -34 -19 -59t-51 -34q32 -10 54 -38.5t22 -61.5zM192 702q0 37 -31 37q-32 0 -32 -37q0 -27 32 -39
q31 13 31 39zM196 539q0 21 -12 32.5t-23 14.5q-11 -2 -23.5 -14t-12.5 -33q0 -37 36 -37q35 0 35 37z" />
    <glyph glyph-name="ninesuperior" unicode="&#x2079;" horiz-adv-x="322" 
d="M10 684q0 65 40.5 104t99.5 39q80 0 120.5 -56.5t40.5 -149.5q0 -98 -48.5 -152.5t-127.5 -54.5q-66 0 -106 35l54 80q19 -23 49 -23q24 0 43 21.5t19 62.5v4q-24 -45 -80 -45q-43 0 -73.5 37t-30.5 98zM127 689q0 -25 10 -37.5t23 -12.5q21 0 35 25q-3 71 -35 71
q-15 0 -24 -14t-9 -32z" />
    <glyph glyph-name="parenleftsuperior" unicode="&#x207d;" horiz-adv-x="189" 
d="M171 385l-64 -29q-80 121 -80 265t80 265l64 -28q-48 -102 -48 -237q0 -136 48 -236z" />
    <glyph glyph-name="parenrightsuperior" unicode="&#x207e;" horiz-adv-x="190" 
d="M162 621q0 -144 -80 -265l-65 29q50 103 50 236t-50 237l65 28q80 -121 80 -265z" />
    <glyph glyph-name="nsuperior" unicode="&#x207f;" horiz-adv-x="335" 
d="M305 326h-111v202q0 26 -22 26q-18 0 -31 -27v-201h-112v314h112v-36q10 17 34.5 30.5t49.5 13.5q37 0 58.5 -20t21.5 -59v-243z" />
    <glyph glyph-name="zeroinferior" unicode="&#x2080;" horiz-adv-x="322" 
d="M312 54q0 -88 -40 -147.5t-111 -59.5q-72 0 -111.5 59t-39.5 148t39.5 147.5t111.5 58.5q71 0 111 -59t40 -147zM193 54q0 61 -6.5 87.5t-25.5 26.5q-20 0 -26.5 -26.5t-6.5 -87.5t6.5 -88t26.5 -27q19 0 25.5 27t6.5 88z" />
    <glyph glyph-name="oneinferior" unicode="&#x2081;" horiz-adv-x="273" 
d="M239 -146h-117v252l-53 -53l-66 68l136 133h100v-400z" />
    <glyph glyph-name="twoinferior" unicode="&#x2082;" horiz-adv-x="322" 
d="M311 -146h-286v84q110 95 139.5 129.5t29.5 61.5q0 17 -11.5 28t-31.5 11q-42 0 -73 -45l-68 70q57 67 149 67q69 0 109.5 -33.5t40.5 -93.5q0 -40 -30.5 -80.5t-108.5 -106.5h141v-92z" />
    <glyph glyph-name="threeinferior" unicode="&#x2083;" horiz-adv-x="322" 
d="M309 -34q0 -54 -42 -86.5t-108 -32.5q-103 0 -149 63l70 71q31 -42 74 -42q21 0 32 10.5t11 24.5q0 37 -50 37q-24 0 -30 -1v91q5 -1 26 -1q49 0 49 34t-41 34q-46 0 -69 -37l-68 63q50 66 145 66q66 0 105 -28.5t39 -81.5q0 -33 -21.5 -59t-54.5 -31q35 -5 58.5 -32
t23.5 -62z" />
    <glyph glyph-name="fourinferior" unicode="&#x2084;" horiz-adv-x="322" 
d="M312 -69h-31v-77h-117v77h-154v88l131 235h140v-232h31v-91zM164 22v109l-58 -109h58z" />
    <glyph glyph-name="fiveinferior" unicode="&#x2085;" horiz-adv-x="322" 
d="M310 -11q0 -64 -42 -103t-114 -39q-99 0 -147 63l70 72q32 -43 70 -43q21 0 33 13t12 35q0 20 -10.5 33t-28.5 13q-30 0 -51 -37l-84 25v233h268v-92h-152v-76q25 30 67 30q45 0 77 -33.5t32 -93.5z" />
    <glyph glyph-name="sixinferior" unicode="&#x2086;" horiz-adv-x="322" 
d="M311 -10q0 -66 -40 -104.5t-100 -38.5q-79 0 -119.5 57t-40.5 149q0 98 48.5 152.5t127.5 54.5q66 0 106 -35l-54 -80q-20 23 -50 23q-25 0 -43.5 -21.5t-18.5 -62.5v-4q26 45 80 45q43 0 73.5 -37t30.5 -98zM194 -15q0 25 -10 37.5t-23 12.5q-21 0 -34 -24q3 -72 35 -72
q15 0 23.5 14t8.5 32z" />
    <glyph glyph-name="seveninferior" unicode="&#x2087;" horiz-adv-x="298" 
d="M288 174l-115 -320h-111l119 308h-171v92h278v-80z" />
    <glyph glyph-name="eightinferior" unicode="&#x2088;" horiz-adv-x="322" 
d="M311 -40q0 -55 -40 -84t-110 -29q-72 0 -111.5 29t-39.5 84q0 33 21.5 61.5t54.5 38.5q-32 9 -51 34t-19 59q0 54 42.5 80.5t102.5 26.5q59 0 101.5 -26.5t42.5 -80.5q0 -34 -19 -59t-51 -34q32 -10 54 -38.5t22 -61.5zM192 135q0 37 -31 37q-32 0 -32 -37q0 -27 32 -39
q31 13 31 39zM196 -28q0 21 -12 32.5t-23 14.5q-11 -2 -23.5 -14t-12.5 -33q0 -37 36 -37q35 0 35 37z" />
    <glyph glyph-name="nineinferior" unicode="&#x2089;" horiz-adv-x="322" 
d="M10 117q0 65 40.5 104t99.5 39q80 0 120.5 -56.5t40.5 -149.5q0 -98 -48.5 -152.5t-127.5 -54.5q-66 0 -106 35l54 80q19 -23 49 -23q24 0 43 21.5t19 62.5v4q-24 -45 -80 -45q-43 0 -73.5 37t-30.5 98zM127 122q0 -25 10 -37.5t23 -12.5q21 0 35 25q-3 71 -35 71
q-15 0 -24 -14t-9 -32z" />
    <glyph glyph-name="parenleftinferior" unicode="&#x208d;" horiz-adv-x="189" 
d="M171 -182l-64 -29q-80 121 -80 265t80 265l64 -28q-48 -102 -48 -237q0 -136 48 -236z" />
    <glyph glyph-name="parenrightinferior" unicode="&#x208e;" horiz-adv-x="190" 
d="M162 54q0 -144 -80 -265l-65 29q50 103 50 236t-50 237l65 28q80 -121 80 -265z" />
    <glyph glyph-name="colonmonetary" unicode="&#x20a1;" 
d="M444 768l-35 -167q28 -40 48 -109l-139 -51q-8 41 -21 61t-37 20q-64 0 -64 -189t64 -189q48 0 59 93l138 -50q-43 -183 -171 -197l-18 -90h-82l19 94q-14 2 -33 10l-21 -104h-82l31 153q-84 88 -84 280q0 147 52.5 238t157.5 104l19 93h82l-20 -95q18 -5 33 -12l22 107
h82z" />
    <glyph glyph-name="frenchfranc" unicode="&#x20a3;" horiz-adv-x="409" 
d="M228 0h-177v93h-40v87h40v487h336v-154h-159v-98h152v-154h-152v-81h70v-87h-70v-93z" />
    <glyph glyph-name="lira" unicode="&#x20a4;" horiz-adv-x="469" 
d="M30 337v75h20q-7 30 -7 57q0 90 68.5 149t152.5 59q74 0 127 -38t65 -111l-142 -57q-9 64 -40 64q-17 0 -28.5 -18.5t-11.5 -49.5q0 -33 6 -55h77v-75h-55q6 -26 7 -43h48v-76h-57q-15 -41 -37 -61q20 7 36 7q22 0 48 -10t45 -10q47 0 70 25l41 -140q-16 -17 -51.5 -29
t-75.5 -12q-42 0 -86.5 21t-66.5 21q-43 0 -92 -37l-46 117q69 48 69 107v1h-84v76h67q-2 5 -9 19.5t-10 23.5h-48z" />
    <glyph glyph-name="uni20A6" unicode="&#x20a6;" horiz-adv-x="551" 
d="M500 0h-164l-108 277v-277h-177v225h-40v87h40v49h-40v87h40v219h177l96 -260v260h176v-219h39v-87h-39v-49h39v-87h-39v-225z" />
    <glyph glyph-name="peseta" unicode="&#x20a7;" horiz-adv-x="534" 
d="M528 390h-40q-12 -81 -67 -134.5t-147 -53.5h-46v-202h-177v390h-40v89h40v188h223q92 0 146.5 -53.5t66.5 -134.5h41v-89zM228 513v-34h74q-17 34 -48 34h-26zM254 356q32 0 48 34h-74v-34h26z" />
    <glyph glyph-name="rupee" unicode="&#x20a8;" horiz-adv-x="861" 
d="M665 -12q-121 0 -182 65l60 108q52 -50 107 -50q50 0 50 31q0 13 -20.5 22t-50 18t-58.5 24.5t-49.5 50t-20.5 84.5q0 65 47 109.5t134 44.5q93 0 167 -60l-60 -106q-16 16 -44.5 29.5t-59.5 13.5q-17 0 -28 -7.5t-11 -18.5q0 -12 21 -20.5t51 -18.5t60 -26t51 -50.5
t21 -83.5q0 -70 -51 -114.5t-134 -44.5zM487 0h-189l-57 222h-23v-222h-177v667h232q90 0 149 -62t59 -154q0 -128 -79 -186zM244 376q27 0 42.5 18t15.5 50q0 33 -15.5 51t-42.5 18h-26v-137h26z" />
    <glyph glyph-name="uni20A9" unicode="&#x20a9;" horiz-adv-x="722" 
d="M577 0h-176l-40 346l-41 -346h-175l-41 225h-79v87h63l-9 49h-54v87h38l-40 219h178l40 -362l53 362h134l54 -362l39 362h178l-40 -219h35v-87h-51l-9 -49h60v-87h-76z" />
    <glyph glyph-name="afii57636" unicode="&#x20aa;" horiz-adv-x="622" 
d="M384 0h-203v390h112v-281h91q90 0 90 73v368h113v-362q0 -97 -58.5 -142.5t-144.5 -45.5zM238 550q86 0 145 -45.5t59 -142.5v-204h-113v210q0 73 -91 73h-91v-441h-112v550h203z" />
    <glyph glyph-name="dong" unicode="&#x20ab;" horiz-adv-x="470" 
d="M381 -188h-268v87h268v-87zM426 0h-157v54q-32 -66 -98 -66q-74 0 -114.5 66t-40.5 188q0 119 40.5 186t114.5 67q30 0 57 -16.5t41 -49.5v95h-119v87h119v56h157v-56h32v-87h-32v-524zM227 127q26 0 42 36v159q-16 34 -42 34q-50 0 -50 -114q0 -115 50 -115z" />
    <glyph glyph-name="Euro" unicode="&#x20ac;" horiz-adv-x="488" 
d="M283 -12q-98 0 -157 60.5t-78 169.5h-35v94h26v45h-26v94h36q20 107 78.5 167t155.5 60q47 0 82.5 -16.5t57.5 -47.5t34 -58t23 -64l-139 -51q-8 41 -21 61t-37 20q-41 0 -55 -71h76v-94h-85v-45h85v-94h-77q14 -74 56 -74q48 0 59 93l138 -50q-47 -199 -197 -199z" />
    <glyph glyph-name="afii61289" unicode="&#x2113;" horiz-adv-x="486" 
d="M195 192v-51q0 -36 22 -36q15 0 23 8l24 -104q-27 -21 -92 -21q-68 0 -101.5 32.5t-33.5 109.5v345q0 91 62.5 146.5t165.5 55.5q84 0 148 -46t64 -118q0 -39 -16.5 -70.5t-65.5 -75.5zM195 360l85 75l23 23.5t15.5 23.5t7.5 31q0 21 -17 34.5t-44 13.5q-70 0 -70 -86
v-115z" />
    <glyph glyph-name="afii61352" unicode="&#x2116;" horiz-adv-x="859" 
d="M697 350q-69 0 -108 48t-39 117q0 70 38.5 117.5t108.5 47.5q71 0 109.5 -47.5t38.5 -117.5t-38.5 -117.5t-109.5 -47.5zM697 439q20 0 26.5 18t6.5 58t-6.5 57.5t-26.5 17.5q-32 0 -32 -75q0 -76 32 -76zM490 0h-164l-108 277v-277h-177v667h177l96 -260v260h176v-667z
" />
    <glyph glyph-name="published" unicode="&#x2117;" horiz-adv-x="778" 
d="M735 334q0 -142 -101.5 -243.5t-244.5 -101.5t-244 101.5t-101 243.5t101 243.5t244 101.5t244.5 -101.5t101.5 -243.5zM694 334q0 125 -90 215t-215 90t-214.5 -90t-89.5 -215t89.5 -215t214.5 -90t215 90t90 215zM558 414q0 -52 -38 -85.5t-90 -33.5h-112v-164h-50v405
h162q52 0 90 -34t38 -88zM505 414q0 33 -22.5 55t-52.5 22h-112v-151h112q30 0 52.5 21.5t22.5 52.5z" />
    <glyph glyph-name="servicemark" unicode="&#x2120;" horiz-adv-x="374" 
d="M337 447h-28v182l-55 -182h-8l-55 182v-182h-28v220h43l44 -157l44 157h43v-220zM122 501q0 -26 -15.5 -43t-40.5 -17q-32 0 -51 21l14 25q16 -19 34 -19q12 0 21 9t9 24q0 17 -11.5 30.5t-24.5 22t-24.5 25t-11.5 37.5q0 25 15 41t39 16q25 0 43 -16l-12 -24
q-12 13 -29 13q-11 0 -18.5 -8t-7.5 -22t11 -26.5t24.5 -21.5t24.5 -26.5t11 -40.5z" />
    <glyph glyph-name="trademark" unicode="&#x2122;" horiz-adv-x="374" 
d="M339 447h-28v182l-55 -182h-8l-55 182v-182h-28v220h43l44 -157l44 157h43v-220zM129 641h-42v-194h-28v194h-42v26h112v-26z" />
    <glyph glyph-name="Omega" unicode="&#x2126;" horiz-adv-x="519" 
d="M28 154h80q-91 84 -91 221q0 138 61.5 220.5t180.5 82.5q120 0 181.5 -82t61.5 -221q0 -135 -93 -221h82v-154h-208v154q19 19 29.5 75t10.5 104q0 188 -64 188q-63 0 -63 -188q0 -49 10.5 -104.5t28.5 -74.5v-154h-207v154z" />
    <glyph glyph-name="estimated" unicode="&#x212e;" horiz-adv-x="842" 
d="M811 324h-632q-5 0 -5 -5v-190q0 -14 9 -23q98 -103 240 -103q151 0 250 115h57q-54 -63 -135 -99.5t-174 -36.5q-161 0 -275.5 103t-114.5 248t114.5 248t275.5 103t275.5 -103t114.5 -248v-9zM668 349v191q0 14 -10 24q-97 99 -235 99q-140 0 -239 -102
q-10 -10 -10 -24v-188q0 -6 5 -6h485q4 0 4 6z" />
    <glyph glyph-name="onethird" unicode="&#x2153;" horiz-adv-x="758" 
d="M239 267h-117v252l-53 -53l-66 68l136 133h100v-400zM534 667l-285 -667h-60l284 667h61zM746 112q0 -54 -42 -86.5t-108 -32.5q-103 0 -149 63l70 71q31 -42 74 -42q21 0 32 10.5t11 24.5q0 37 -50 37q-24 0 -30 -1v91q5 -1 26 -1q49 0 49 34t-41 34q-46 0 -69 -37
l-68 63q50 66 145 66q66 0 105 -28.5t39 -81.5q0 -33 -21.5 -59t-54.5 -31q35 -5 58.5 -32t23.5 -62z" />
    <glyph glyph-name="twothirds" unicode="&#x2154;" horiz-adv-x="794" 
d="M311 267h-286v84q110 95 139.5 129.5t29.5 61.5q0 17 -11.5 28t-31.5 11q-42 0 -73 -45l-68 70q57 67 149 67q69 0 109.5 -33.5t40.5 -93.5q0 -40 -30.5 -80.5t-108.5 -106.5h141v-92zM570 667l-285 -667h-60l284 667h61zM782 112q0 -54 -42 -86.5t-108 -32.5
q-103 0 -149 63l70 71q31 -42 74 -42q21 0 32 10.5t11 24.5q0 37 -50 37q-24 0 -30 -1v91q5 -1 26 -1q49 0 49 34t-41 34q-46 0 -69 -37l-68 63q50 66 145 66q66 0 105 -28.5t39 -81.5q0 -33 -21.5 -59t-54.5 -31q35 -5 58.5 -32t23.5 -62z" />
    <glyph glyph-name="oneeighth" unicode="&#x215b;" horiz-adv-x="758" 
d="M239 267h-117v252l-53 -53l-66 68l136 133h100v-400zM748 106q0 -55 -40 -84t-110 -29q-72 0 -111.5 29t-39.5 84q0 33 21.5 61.5t54.5 38.5q-32 9 -51 34t-19 59q0 54 42.5 80.5t102.5 26.5q59 0 101.5 -26.5t42.5 -80.5q0 -34 -19 -59t-51 -34q32 -10 54 -38.5
t22 -61.5zM629 281q0 37 -31 37q-32 0 -32 -37q0 -27 32 -39q31 13 31 39zM633 118q0 21 -12 32.5t-23 14.5q-11 -2 -23.5 -14t-12.5 -33q0 -37 36 -37q35 0 35 37zM534 667l-285 -667h-60l284 667h61z" />
    <glyph glyph-name="threeeighths" unicode="&#x215c;" horiz-adv-x="794" 
d="M784 106q0 -55 -40 -84t-110 -29q-72 0 -111.5 29t-39.5 84q0 33 21.5 61.5t54.5 38.5q-32 9 -51 34t-19 59q0 54 42.5 80.5t102.5 26.5q59 0 101.5 -26.5t42.5 -80.5q0 -34 -19 -59t-51 -34q32 -10 54 -38.5t22 -61.5zM665 281q0 37 -31 37q-32 0 -32 -37q0 -27 32 -39
q31 13 31 39zM669 118q0 21 -12 32.5t-23 14.5q-11 -2 -23.5 -14t-12.5 -33q0 -37 36 -37q35 0 35 37zM570 667l-285 -667h-60l284 667h61zM309 379q0 -54 -42 -86.5t-108 -32.5q-103 0 -149 63l70 71q31 -42 74 -42q21 0 32 10.5t11 24.5q0 37 -50 37q-24 0 -30 -1v91
q5 -1 26 -1q49 0 49 34t-41 34q-46 0 -69 -37l-68 63q50 66 145 66q66 0 105 -28.5t39 -81.5q0 -33 -21.5 -59t-54.5 -31q35 -5 58.5 -32t23.5 -62z" />
    <glyph glyph-name="fiveeighths" unicode="&#x215d;" horiz-adv-x="786" 
d="M775 106q0 -55 -40 -84t-110 -29q-72 0 -111.5 29t-39.5 84q0 33 21.5 61.5t54.5 38.5q-32 9 -51 34t-19 59q0 54 42.5 80.5t102.5 26.5q59 0 101.5 -26.5t42.5 -80.5q0 -34 -19 -59t-51 -34q32 -10 54 -38.5t22 -61.5zM656 281q0 37 -31 37q-32 0 -32 -37q0 -27 32 -39
q31 13 31 39zM660 118q0 21 -12 32.5t-23 14.5q-11 -2 -23.5 -14t-12.5 -33q0 -37 36 -37q35 0 35 37zM310 402q0 -64 -42 -103t-114 -39q-99 0 -147 63l70 72q32 -43 70 -43q21 0 33 13t12 35q0 20 -10.5 33t-28.5 13q-30 0 -51 -37l-84 25v233h268v-92h-152v-76
q25 30 67 30q45 0 77 -33.5t32 -93.5zM561 667l-285 -667h-60l284 667h61z" />
    <glyph glyph-name="seveneighths" unicode="&#x215e;" horiz-adv-x="734" 
d="M723 106q0 -55 -40 -84t-110 -29q-72 0 -111.5 29t-39.5 84q0 33 21.5 61.5t54.5 38.5q-32 9 -51 34t-19 59q0 54 42.5 80.5t102.5 26.5q59 0 101.5 -26.5t42.5 -80.5q0 -34 -19 -59t-51 -34q32 -10 54 -38.5t22 -61.5zM604 281q0 37 -31 37q-32 0 -32 -37q0 -27 32 -39
q31 13 31 39zM608 118q0 21 -12 32.5t-23 14.5q-11 -2 -23.5 -14t-12.5 -33q0 -37 36 -37q35 0 35 37zM288 587l-115 -320h-111l119 308h-171v92h278v-80zM509 667l-285 -667h-60l284 667h61z" />
    <glyph glyph-name="arrowleft" unicode="&#x2190;" horiz-adv-x="582" 
d="M538 211h-269l12 -130l-281 205l281 204l-12 -129h269v-150z" />
    <glyph glyph-name="arrowup" unicode="&#x2191;" horiz-adv-x="582" 
d="M216 17v269l-130 -12l205 281l204 -281l-129 12v-269h-150z" />
    <glyph glyph-name="arrowright" unicode="&#x2192;" horiz-adv-x="582" 
d="M584 286l-281 -205l12 130h-268v150h268l-12 129z" />
    <glyph glyph-name="arrowdown" unicode="&#x2193;" horiz-adv-x="582" 
d="M366 555v-269l130 12l-205 -281l-204 281l129 -12v269h150z" />
    <glyph glyph-name="partialdiff" unicode="&#x2202;" horiz-adv-x="451" 
d="M225 -12q-101 0 -155 66.5t-54 165.5q0 96 43.5 163t116.5 67q69 0 103 -75q-19 146 -97 250l131 60q62 -90 92.5 -193.5t30.5 -249.5q0 -114 -54 -184t-157 -70zM225 127q49 0 49 92t-49 92q-47 0 -47 -92t47 -92z" />
    <glyph glyph-name="Delta" unicode="&#x2206;" horiz-adv-x="490" 
d="M496 0h-502l149 667h203zM292 154l-47 321l-48 -321h95z" />
    <glyph glyph-name="product" unicode="&#x220f;" horiz-adv-x="606" 
d="M540 -90h-176v603h-121v-603h-177v603h-48v154h570v-154h-48v-603z" />
    <glyph glyph-name="summation" unicode="&#x2211;" horiz-adv-x="399" 
d="M212 513l107 -217l-113 -232h168v-154h-346v161l109 227l-109 215v154h346v-154h-162z" />
    <glyph glyph-name="minus" unicode="&#x2212;" horiz-adv-x="388" 
d="M359 291h-330v93h330v-93z" />
    <glyph glyph-name="uni2215" unicode="&#x2215;" horiz-adv-x="151" 
d="M248 667l-285 -667h-60l284 667h61z" />
    <glyph glyph-name="uni2219" unicode="&#x2219;" horiz-adv-x="270" 
d="M231 244q0 -39 -28.5 -67.5t-67.5 -28.5t-67.5 28.5t-28.5 67.5q0 40 28.5 68.5t67.5 28.5t67.5 -28.5t28.5 -68.5z" />
    <glyph glyph-name="radical" unicode="&#x221a;" horiz-adv-x="466" 
d="M288 0h-99l-62 287l-74 -14l-17 92l162 30l43 -239l110 511h97z" />
    <glyph glyph-name="infinity" unicode="&#x221e;" horiz-adv-x="509" 
d="M149 152q-60 0 -90 54.5t-30 129.5t30 129.5t90 54.5q70 0 105 -95q16 42 44 68t62 26q60 0 90 -54.5t30 -129.5t-30 -129t-90 -54q-34 0 -62.5 26t-43.5 68q-34 -94 -105 -94zM344 245q21 0 34 24.5t13 66.5q0 41 -13 66t-34 25q-36 0 -51 -91q16 -91 51 -91zM165 245
q35 0 51 91q-16 91 -51 91q-20 0 -33.5 -25t-13.5 -66q0 -42 13.5 -66.5t33.5 -24.5z" />
    <glyph glyph-name="integral" unicode="&#x222b;" horiz-adv-x="254" 
d="M43 -100h-26v101h26q12 0 20.5 8.5t8.5 21.5v605q0 56 41.5 94t97.5 38h26v-101h-26q-12 0 -20.5 -9t-8.5 -22v-605q0 -56 -41.5 -93.5t-97.5 -37.5z" />
    <glyph glyph-name="approxequal" unicode="&#x2248;" horiz-adv-x="388" 
d="M29 194v98q37 -20 82 -20q34 0 79 18t87 18q47 0 82 -16v-98q-37 20 -82 20q-34 0 -79 -18t-87 -18q-44 0 -82 16zM29 376v98q39 -21 82 -21q34 0 79 18t87 18q47 0 82 -16v-97q-37 20 -82 20q-34 0 -79 -18.5t-87 -18.5q-45 0 -82 17z" />
    <glyph glyph-name="notequal" unicode="&#x2260;" horiz-adv-x="388" 
d="M121 93h-60l43 101h-75v94h115l39 92h-154v93h193l43 101h61l-42 -101h75v-93h-116l-38 -92h154v-94h-194z" />
    <glyph glyph-name="lessequal" unicode="&#x2264;" horiz-adv-x="388" 
d="M359 150l-330 128v114l330 128v-112l-224 -74l224 -73v-111zM359 9h-330v94h330v-94z" />
    <glyph glyph-name="greaterequal" unicode="&#x2265;" horiz-adv-x="388" 
d="M359 278l-330 -128v111l223 73l-223 74v112l330 -128v-114zM359 9h-330v94h330v-94z" />
    <glyph glyph-name="triangleright" unicode="&#x22b2;" horiz-adv-x="587" 
d="M589 286l-535 -309v618z" />
    <glyph glyph-name="triangleleft" unicode="&#x22b3;" horiz-adv-x="587" 
d="M535 595v-618l-535 309z" />
    <glyph glyph-name="dotmath" unicode="&#x22c5;" horiz-adv-x="270" 
d="M231 244q0 -39 -28.5 -67.5t-67.5 -28.5t-67.5 28.5t-28.5 67.5q0 40 28.5 68.5t67.5 28.5t67.5 -28.5t28.5 -68.5z" />
    <glyph glyph-name="uni2318" unicode="&#x2318;" horiz-adv-x="667" 
d="M214 154v61h-61q-25 0 -43 -18t-18 -43q0 -26 17.5 -44t43.5 -18t43.5 18t17.5 44zM214 452v62q0 25 -17.5 43t-42.5 18q-26 0 -44 -17.5t-18 -43.5t18 -44t44 -18h60zM265 265h137v137h-137v-137zM575 154q0 25 -18 43t-43 18h-61v-61q0 -26 17.5 -44t43.5 -18t43.5 18
t17.5 44zM575 514q0 25 -18 43t-43 18q-26 0 -43.5 -17.5t-17.5 -43.5v-62h61q25 0 43 18.5t18 43.5zM625 154q0 -46 -32.5 -79t-78.5 -33t-79 33t-33 79v61h-137v-61q0 -46 -33 -79t-79 -33t-78.5 33t-32.5 79t32.5 78.5t78.5 32.5h61v137h-60q-46 0 -79 33t-33 79t33 78.5
t79 32.5t78.5 -32.5t32.5 -78.5v-62h137v62q0 46 33 78.5t79 32.5t78.5 -32.5t32.5 -78.5t-32.5 -79t-78.5 -33h-61v-137h61q46 0 78.5 -32.5t32.5 -78.5z" />
    <glyph glyph-name="blacksquare" unicode="&#x25a0;" horiz-adv-x="661" 
d="M618 0h-571v572h571v-572z" />
    <glyph glyph-name="triagup" unicode="&#x25b2;" horiz-adv-x="616" 
d="M617 29l-619 1l309 535z" />
    <glyph glyph-name="triagdn" unicode="&#x25bc;" horiz-adv-x="616" 
d="M617 510l-310 -535l-309 535h619z" />
    <glyph glyph-name="lozenge" unicode="&#x25ca;" horiz-adv-x="375" 
d="M198 0h-21l-158 334l158 333h21l158 -333zM188 41l132 293l-133 292l-132 -292z" />
    <glyph glyph-name="circlesolid" unicode="&#x25cf;" horiz-adv-x="695" 
d="M644 285q0 -123 -87 -210t-210 -87t-210 87t-87 210t87 210t210 87t210 -87t87 -210z" />
    <glyph glyph-name="blackstar" unicode="&#x2605;" horiz-adv-x="759" 
d="M759 421l-235 -171l90 -275l-235 170l-234 -170l89 275l-234 171h290l89 276l90 -276h290z" />
    <glyph glyph-name="ballotbox" unicode="&#x2610;" horiz-adv-x="661" 
d="M616 0h-571v572h571v-572zM513 94v384h-365v-384h365z" />
    <glyph glyph-name="boxchecked" unicode="&#x2611;" horiz-adv-x="661" 
d="M616 0h-571v572h477l96 175l81 -49l-83 -153v-545zM148 478v-384h219l-199 243l73 68l115 -138l115 211h-323zM513 94v261l-142 -261h142z" />
    <glyph glyph-name="diamond" unicode="&#x2666;" horiz-adv-x="501" 
d="M501 285l-251 -250l-250 250l250 251z" />
    <glyph glyph-name="checkmark" unicode="&#x2713;" horiz-adv-x="531" 
d="M531 698l-329 -607l-202 246l73 68l115 -138l262 480z" />
    <glyph glyph-name="perthousand.onum" unicode="&#xf628;" horiz-adv-x="740" 
d="M241 423q0 -59 -32 -99t-84 -40t-84 40t-32 99t32 99t84 40t84 -40t32 -99zM483 129q0 -59 -31.5 -98.5t-83.5 -39.5q-53 0 -84.5 39.5t-31.5 98.5t31.5 99t84.5 40q52 0 83.5 -40t31.5 -99zM413 550l-254 -550h-59l253 550h60zM153 423q0 60 -28 60q-12 0 -20 -16
t-8 -44q0 -59 28 -59t28 59zM396 129q0 28 -8 44t-20 16q-29 0 -29 -60q0 -59 29 -59q28 0 28 59zM731 129q0 -59 -32 -98.5t-84 -39.5q-53 0 -84.5 39.5t-31.5 98.5t31.5 99t84.5 40q52 0 84 -40t32 -99zM643 129q0 28 -8 44t-20 16q-28 0 -28 -60q0 -59 28 -59t28 59z" />
    <glyph glyph-name="uniF637" unicode="&#xf637;" horiz-adv-x="333" 
d="M304 326h-111v201q0 24 -22 24q-17 0 -31 -27v-198h-111v434h111v-156q11 17 35 30.5t49 13.5q80 0 80 -78v-244z" />
    <glyph glyph-name="zero.tzero" unicode="&#xf638;" horiz-adv-x="491" 
d="M246 -12q-69 0 -119 41l-16 -29h-95l53 98q-53 91 -53 235q0 95 25 171.5t78 124.5t127 48q66 0 117 -40l17 30h95l-54 -98q54 -94 54 -236q0 -147 -60 -246t-169 -99zM246 144q29 0 39 41t10 148v4l-87 -159q10 -34 38 -34zM196 333v-3l87 159q-12 32 -37 32
q-30 0 -40 -40t-10 -148z" />
    <glyph glyph-name="zero.tnum" unicode="&#xf639;" horiz-adv-x="491" 
d="M246 -12q-74 0 -127 48.5t-78 125t-25 171.5t25 171.5t78 124.5t127 48t127 -48t77.5 -124.5t24.5 -171.5q0 -147 -60 -246t-169 -99zM246 144q29 0 39 41t10 148q0 108 -10 148t-39 40q-30 0 -40 -40t-10 -148t10 -148.5t40 -40.5z" />
    <glyph glyph-name="two.tnum" unicode="&#xf63a;" horiz-adv-x="491" 
d="M475 0h-437v146q177 176 216.5 224t39.5 89q0 26 -16 44t-45 18q-65 0 -111 -64l-106 108q84 112 227 112q103 0 165.5 -58t62.5 -155q0 -66 -41 -130t-154 -180h199v-154z" />
    <glyph glyph-name="three.tnum" unicode="&#xf63b;" horiz-adv-x="491" 
d="M241 -12q-75 0 -135.5 29t-93.5 77l114 106q43 -56 107 -56q35 0 51 16.5t16 40.5q0 30 -21.5 44t-51.5 14q-33 0 -45 -1v157q8 -1 37 -1q74 0 74 54q0 53 -63 53q-28 0 -57 -12.5t-44 -37.5l-109 96q78 110 221 110q100 0 160.5 -46.5t60.5 -136.5q0 -53 -34.5 -97
t-84.5 -53q58 -10 93.5 -54.5t35.5 -103.5q0 -90 -64.5 -144t-166.5 -54z" />
    <glyph glyph-name="four.tnum" unicode="&#xf63c;" horiz-adv-x="491" 
d="M429 0h-177v120h-237v155l209 392h205v-393h47v-154h-47v-120zM252 274v194l-95 -194h95z" />
    <glyph glyph-name="five.tnum" unicode="&#xf63d;" horiz-adv-x="491" 
d="M235 -12q-151 0 -225 106l110 108q45 -58 103 -58q33 0 52 21t19 53q0 34 -16 53.5t-46 19.5q-45 0 -75 -49l-130 29v396h409v-154h-232v-123q14 23 41.5 37.5t59.5 14.5q75 0 121.5 -58t46.5 -161q0 -106 -64 -170.5t-174 -64.5z" />
    <glyph glyph-name="six.tnum" unicode="&#xf63e;" horiz-adv-x="491" 
d="M261 -12q-121 0 -182 95.5t-61 248.5q0 160 73 252.5t195 92.5q101 0 163 -64l-86 -130q-29 38 -73 38q-38 0 -66 -40.5t-28 -106.5v-5q15 34 47 54t71 20q68 0 114 -59t46 -161q0 -106 -61 -170.5t-152 -64.5zM250 144q22 0 34.5 22t12.5 50q0 40 -15 58.5t-35 18.5
q-31 0 -52 -43q6 -106 55 -106z" />
    <glyph glyph-name="seven.tnum" unicode="&#xf63f;" horiz-adv-x="491" 
d="M277 0h-188l173 513h-228v154h423v-122z" />
    <glyph glyph-name="eight.tnum" unicode="&#xf640;" horiz-adv-x="491" 
d="M245 -12q-112 0 -170 48.5t-58 137.5q0 56 34.5 104.5t84.5 65.5q-48 16 -79 57.5t-31 99.5q0 59 33 100.5t80.5 58.5t105.5 17q90 0 155 -44.5t65 -131.5q0 -58 -31 -99.5t-80 -57.5q50 -17 84.5 -65.5t34.5 -103.5q0 -89 -58.5 -138t-169.5 -49zM245 398q47 24 47 66
q0 57 -47 57t-47 -57q0 -40 47 -66zM245 144q23 0 38 14.5t15 44.5q0 33 -19 54t-34 25q-15 -4 -33.5 -25t-18.5 -54q0 -59 52 -59z" />
    <glyph glyph-name="nine.tnum" unicode="&#xf641;" horiz-adv-x="491" 
d="M205 -11q-101 0 -163 64l86 130q29 -38 73 -38q36 0 65 38t29 108v6q-15 -34 -47 -54t-71 -20q-68 0 -114 59t-46 161q0 106 61 170.5t152 64.5q121 0 182 -95.5t61 -248.5q0 -160 -73 -252.5t-195 -92.5zM244 373q30 0 52 43q-6 106 -53 106q-24 0 -36.5 -21.5
t-12.5 -50.5q0 -40 15 -58.5t35 -18.5z" />
    <glyph glyph-name="percent.onum" unicode="&#xf642;" horiz-adv-x="492" 
d="M241 423q0 -59 -32 -99t-84 -40t-84 40t-32 99t32 99t84 40t84 -40t32 -99zM483 129q0 -59 -31.5 -98.5t-83.5 -39.5q-53 0 -84.5 39.5t-31.5 98.5t31.5 99t84.5 40q52 0 83.5 -40t31.5 -99zM403 550l-254 -550h-59l254 550h59zM153 423q0 60 -28 60q-12 0 -20 -16
t-8 -44q0 -59 28 -59t28 59zM396 129q0 28 -8 44t-20 16q-29 0 -29 -60q0 -59 29 -59q28 0 28 59z" />
    <glyph glyph-name="zero.tonum" unicode="&#xf643;" horiz-adv-x="491" 
d="M475 275q0 -124 -59.5 -205.5t-169.5 -81.5t-170 81.5t-60 205.5q0 125 60 206t170 81t169.5 -81t59.5 -206zM295 275q0 131 -49 131q-50 0 -50 -131t50 -131q49 0 49 131z" />
    <glyph glyph-name="one.tonum" unicode="&#xf644;" horiz-adv-x="491" 
d="M408 0h-177v325l-85 -87l-100 104l210 208h152v-550z" />
    <glyph glyph-name="two.tonum" unicode="&#xf645;" horiz-adv-x="491" 
d="M448 0h-410v146q117 60 178 115.5t61 94.5q0 21 -14.5 35.5t-41.5 14.5q-57 0 -98 -54l-107 98q84 112 221 112q97 0 157 -46t60 -129q0 -56 -46 -118.5t-130 -114.5h170v-154z" />
    <glyph glyph-name="three.tonum" unicode="&#xf646;" horiz-adv-x="491" 
d="M241 -127q-75 0 -135.5 29t-93.5 77l114 106q43 -56 107 -56q35 0 51 16.5t16 40.5q0 30 -21.5 44t-51.5 14q-33 0 -45 -1v157q8 -1 37 -1q74 0 74 54q0 53 -63 53q-28 0 -57 -12.5t-44 -37.5l-109 96q78 110 221 110q100 0 160.5 -46.5t60.5 -136.5q0 -53 -34.5 -97
t-84.5 -53q58 -10 93.5 -54.5t35.5 -103.5q0 -90 -64.5 -144t-166.5 -54z" />
    <glyph glyph-name="four.tonum" unicode="&#xf647;" horiz-adv-x="491" 
d="M476 12h-47v-129h-177v129h-237v154l209 384h205v-384h47v-154zM252 166v185l-95 -185h95z" />
    <glyph glyph-name="five.tonum" unicode="&#xf648;" horiz-adv-x="491" 
d="M235 -129q-151 0 -225 106l110 108q45 -58 103 -58q33 0 52 21t19 53q0 34 -16 53.5t-46 19.5q-45 0 -75 -49l-130 29v396h409v-154h-232v-123q14 23 41.5 37.5t59.5 14.5q75 0 121.5 -58t46.5 -161q0 -106 -64 -170.5t-174 -64.5z" />
    <glyph glyph-name="six.tonum" unicode="&#xf649;" horiz-adv-x="491" 
d="M261 -12q-121 0 -182 95.5t-61 248.5q0 160 73 252.5t195 92.5q101 0 163 -64l-86 -130q-29 38 -73 38q-38 0 -66 -40.5t-28 -106.5v-5q15 34 47 54t71 20q68 0 114 -59t46 -161q0 -106 -61 -170.5t-152 -64.5zM250 144q22 0 34.5 22t12.5 50q0 40 -15 58.5t-35 18.5
q-31 0 -52 -43q6 -106 55 -106z" />
    <glyph glyph-name="seven.tonum" unicode="&#xf64a;" horiz-adv-x="491" 
d="M277 -117h-188l173 513h-228v154h423v-122z" />
    <glyph glyph-name="eight.tonum" unicode="&#xf64b;" horiz-adv-x="491" 
d="M245 -12q-112 0 -170 48.5t-58 137.5q0 56 34.5 104.5t84.5 65.5q-48 16 -79 57.5t-31 99.5q0 59 33 100.5t80.5 58.5t105.5 17q90 0 155 -44.5t65 -131.5q0 -58 -31 -99.5t-80 -57.5q50 -17 84.5 -65.5t34.5 -103.5q0 -89 -58.5 -138t-169.5 -49zM245 398q47 24 47 66
q0 57 -47 57t-47 -57q0 -40 47 -66zM245 144q23 0 38 14.5t15 44.5q0 33 -19 54t-34 25q-15 -4 -33.5 -25t-18.5 -54q0 -59 52 -59z" />
    <glyph glyph-name="nine.tonum" unicode="&#xf64c;" horiz-adv-x="491" 
d="M205 -127q-101 0 -163 64l86 130q29 -38 73 -38q36 0 65 38t29 108v6q-15 -34 -47 -54t-71 -20q-68 0 -114 59t-46 161q0 106 61 170.5t152 64.5q121 0 182 -95.5t61 -248.5q0 -160 -73 -252.5t-195 -92.5zM244 257q30 0 52 43q-6 106 -53 106q-24 0 -36.5 -21.5
t-12.5 -50.5q0 -40 15 -58.5t35 -18.5z" />
    <glyph glyph-name="colonmonetary.onum" unicode="&#xf64d;" horiz-adv-x="420" 
d="M96 -53l16 80q-92 70 -92 248q0 127 51 204t152 82l8 38h56l-9 -42q12 -1 21 -6l10 48h56l-17 -79q40 -39 64 -123l-130 -42q-14 64 -45 64q-51 0 -51 -144t51 -144q35 0 45 67l130 -40q-9 -34 -19.5 -58.5t-30 -52.5t-51 -43.5t-73.5 -15.5l-8 -41h-55l9 47q-10 2 -21 6
l-11 -53h-56z" />
    <glyph glyph-name="Euro.onum" unicode="&#xf64e;" horiz-adv-x="440" 
d="M264 293h-58v-37h58v-70h-51q11 -55 44 -55q35 0 45 67l130 -40q-9 -34 -19.5 -59t-30 -53t-51.5 -43t-74 -15q-88 0 -141 52.5t-69 145.5h-34v70h27v37h-27v69h34q16 93 68.5 146.5t141.5 53.5q42 0 73.5 -14.5t51 -41.5t30.5 -51.5t20 -57.5l-130 -42q-14 64 -45 64
q-34 0 -45 -57h52v-69z" />
    <glyph glyph-name="florin.onum" unicode="&#xf64f;" horiz-adv-x="413" 
d="M201 -119h-180l70 314h-34v111h58l22 90q21 86 72 125.5t114 39.5q62 0 100 -29l-56 -134q-9 9 -21 9q-26 0 -36 -42l-14 -59h50v-111h-75z" />
    <glyph glyph-name="numbersign.onum" unicode="&#xf650;" horiz-adv-x="414" 
d="M400 407l-17 -81h-43l-23 -99h45l-21 -81h-43l-33 -146h-101l36 146h-47l-33 -146h-101l35 146h-40l19 81h41l22 99h-41l18 81h43l32 143h101l-33 -143h44l33 143h101l-34 -143h40zM240 326h-44l-22 -99h44z" />
    <glyph glyph-name="sterling.onum" unicode="&#xf651;" horiz-adv-x="385" 
d="M23 232v82h24q-13 45 -13 80q0 72 55 119.5t126 47.5q63 0 106.5 -31.5t52.5 -87.5l-122 -44q-7 48 -28 48q-12 0 -20 -14t-8 -39q0 -34 12 -79h55v-82h-39q1 -7 1 -19q0 -46 -28 -85q7 3 14 3q18 0 38 -7.5t37 -7.5q35 0 58 23l36 -113q-14 -15 -44 -25t-64 -10
q-39 0 -71.5 15.5t-49.5 15.5q-35 0 -77 -30l-41 96q57 34 57 82q0 28 -13 62h-54z" />
    <glyph glyph-name="yen.onum" unicode="&#xf652;" horiz-adv-x="431" 
d="M297 0h-163v104h-110v80h110v38h-110v79h76l-107 249h171l51 -169l51 169h172l-108 -249h77v-79h-110v-38h110v-80h-110v-104z" />
    </font>
</defs>
</svg>
